  0
SECTION
  2
HEADER
  9
$ACADVER
  1
AC1014
  9
$HANDSEED
  5
FFFF
  9
$MEASUREMENT
 70
     1
  0
ENDSEC
  0
SECTION
  2
TABLES
  0
TABLE
  2
VPORT
  5
8
330
0
100
AcDbSymbolTable
 70
     4
  0
VPORT
  5
2E
330
8
100
AcDbSymbolTableRecord
100
AcDbViewportTableRecord
  2
*ACTIVE
 70
     0
 10
0.0
 20
0.0
 11
1.0
 21
1.0
 12
210.0
 22
148.5
 13
0.0
 23
0.0
 14
10.0
 24
10.0
 15
10.0
 25
10.0
 16
0.0
 26
0.0
 36
1.0
 17
0.0
 27
0.0
 37
0.0
 40
341.0
 41
1.24
 42
50.0
 43
0.0
 44
0.0
 50
0.0
 51
0.0
 71
     0
 72
   100
 73
     1
 74
     3
 75
     0
 76
     0
 77
     0
 78
     0
  0
ENDTAB
  0
TABLE
  2
LTYPE
  5
5
330
0
100
AcDbSymbolTable
 70
     1
  0
LTYPE
  5
14
330
5
100
AcDbSymbolTableRecord
100
AcDbLinetypeTableRecord
  2
BYBLOCK
 70
     0
  3

 72
    65
 73
     0
 40
0.0
  0
LTYPE
  5
15
330
5
100
AcDbSymbolTableRecord
100
AcDbLinetypeTableRecord
  2
BYLAYER
 70
     0
  3

 72
    65
 73
     0
 40
0.0
  0
LTYPE
  5
16
330
5
100
AcDbSymbolTableRecord
100
AcDbLinetypeTableRecord
  2
CONTINUOUS
 70
     0
  3
Solid line
 72
    65
 73
     0
 40
0.0
  0
ENDTAB
  0
TABLE
  2
LAYER
  5
2
100
AcDbSymbolTable
 70
2
  0
LAYER
  5
50
100
AcDbSymbolTableRecord
100
AcDbLayerTableRecord
  2
0
 70
0
  6
CONTINUOUS
  0
LAYER
  5
51
100
AcDbSymbolTableRecord
100
AcDbLayerTableRecord
  2
box
 70
0
  6
CONTINUOUS
  0
ENDTAB
  0
TABLE
  2
STYLE
  5
3
330
0
100
AcDbSymbolTable
 70
     1
  0
STYLE
  5
11
330
3
100
AcDbSymbolTableRecord
100
AcDbTextStyleTableRecord
  2
STANDARD
 70
     0
 40
0.0
 41
1.0
 50
0.0
 71
     0
 42
2.5
  3
txt
  4

  0
ENDTAB
  0
TABLE
  2
VIEW
  5
6
330
0
100
AcDbSymbolTable
 70
     0
  0
ENDTAB
  0
TABLE
  2
UCS
  5
7
330
0
100
AcDbSymbolTable
 70
     0
  0
ENDTAB
  0
TABLE
  2
APPID
  5
9
330
0
100
AcDbSymbolTable
 70
     2
  0
APPID
  5
12
330
9
100
AcDbSymbolTableRecord
100
AcDbRegAppTableRecord
  2
ACAD
 70
     0
  0
ENDTAB
  0
TABLE
  2
DIMSTYLE
  5
A
330
0
100
AcDbSymbolTable
 70
     1
  0
DIMSTYLE
105
27
330
A
100
AcDbSymbolTableRecord
100
AcDbDimStyleTableRecord
  2
ISO-25
 70
     0
  3

  4

  5

  6

  7

 40
1.0
 41
2.5
 42
0.625
 43
3.75
 44
1.25
 45
0.0
 46
0.0
 47
0.0
 48
0.0
140
2.5
141
2.5
142
0.0
143
0.03937007874016
144
1.0
145
0.0
146
1.0
147
0.625
 71
     0
 72
     0
 73
     0
 74
     0
 75
     0
 76
     0
 77
     1
 78
     8
170
     0
171
     3
172
     1
173
     0
174
     0
175
     0
176
     0
177
     0
178
     0
270
     2
271
     2
272
     2
273
     2
274
     3
340
11
275
     0
280
     0
281
     0
282
     0
283
     0
284
     8
285
     0
286
     0
287
     3
288
     0
  0
ENDTAB
  0
TABLE
  2
BLOCK_RECORD
  5
1
330
0
100
AcDbSymbolTable
 70
     1
  0
BLOCK_RECORD
  5
1F
330
1
100
AcDbSymbolTableRecord
100
AcDbBlockTableRecord
  2
*MODEL_SPACE
  0
BLOCK_RECORD
  5
1B
330
1
100
AcDbSymbolTableRecord
100
AcDbBlockTableRecord
  2
*PAPER_SPACE
  0
ENDTAB
  0
ENDSEC
  0
SECTION
  2
BLOCKS
  0
BLOCK
  5
20
330
1F
100
AcDbEntity
  8
0
100
AcDbBlockBegin
  2
*MODEL_SPACE
 70
     0
 10
0.0
 20
0.0
 30
0.0
  3
*MODEL_SPACE
  1

  0
ENDBLK
  5
21
330
1F
100
AcDbEntity
  8
0
100
AcDbBlockEnd
  0
BLOCK
  5
1C
330
1B
100
AcDbEntity
 67
     1
  8
0
100
AcDbBlockBegin
  2
*PAPER_SPACE
  1

  0
ENDBLK
  5
1D
330
1B
100
AcDbEntity
 67
     1
  8
0
100
AcDbBlockEnd
  0
ENDSEC
  0
SECTION
  2
ENTITIES
  0
LWPOLYLINE
  5
100
100
AcDbEntity
  8
box
 62
7
100
AcDbPolyline
 90
2
 70
0
 10
632.692900
 20
28.346460
 30
0.0
 10
664.692900
 20
28.346460
 30
0.0
  0
LWPOLYLINE
  5
101
100
AcDbEntity
  8
box
 62
7
100
AcDbPolyline
 90
2
 70
0
 10
664.692900
 20
41.846460
 30
0.0
 10
664.692900
 20
28.346460
 30
0.0
  0
LWPOLYLINE
  5
102
100
AcDbEntity
  8
box
 62
7
100
AcDbPolyline
 90
4
 70
0
 10
664.692900
 20
41.846460
 30
0.0
 10
696.692900
 20
41.846460
 30
0.0
 10
696.692900
 20
28.346460
 30
0.0
 10
728.692900
 20
28.346460
 30
0.0
  0
LWPOLYLINE
  5
103
100
AcDbEntity
  8
box
 62
7
100
AcDbPolyline
 90
2
 70
0
 10
728.692900
 20
41.846460
 30
0.0
 10
728.692900
 20
28.346460
 30
0.0
  0
LWPOLYLINE
  5
104
100
AcDbEntity
  8
box
 62
7
100
AcDbPolyline
 90
4
 70
0
 10
728.692900
 20
41.846460
 30
0.0
 10
760.692900
 20
41.846460
 30
0.0
 10
760.692900
 20
28.346460
 30
0.0
 10
792.692900
 20
28.346460
 30
0.0
  0
LWPOLYLINE
  5
105
100
AcDbEntity
  8
box
 62
7
100
AcDbPolyline
 90
2
 70
0
 10
792.692900
 20
41.846460
 30
0.0
 10
792.692900
 20
28.346460
 30
0.0
  0
LWPOLYLINE
  5
106
100
AcDbEntity
  8
box
 62
7
100
AcDbPolyline
 90
4
 70
0
 10
792.692900
 20
41.846460
 30
0.0
 10
824.692900
 20
41.846460
 30
0.0
 10
824.692900
 20
28.346460
 30
0.0
 10
856.692900
 20
28.346460
 30
0.0
  0
LWPOLYLINE
  5
107
100
AcDbEntity
  8
box
 62
7
100
AcDbPolyline
 90
2
 70
0
 10
856.692900
 20
41.846460
 30
0.0
 10
856.692900
 20
28.346460
 30
0.0
  0
LWPOLYLINE
  5
108
100
AcDbEntity
  8
box
 62
7
100
AcDbPolyline
 90
4
 70
0
 10
856.692900
 20
41.846460
 30
0.0
 10
888.692900
 20
41.846460
 30
0.0
 10
888.692900
 20
28.346460
 30
0.0
 10
907.192900
 20
28.346460
 30
0.0
  0
LWPOLYLINE
  5
109
100
AcDbEntity
  8
box
 62
7
100
AcDbPolyline
 90
4
 70
0
 10
632.692900
 20
388.346500
 30
0.0
 10
664.692900
 20
388.346500
 30
0.0
 10
664.692900
 20
374.846500
 30
0.0
 10
696.692900
 20
374.846500
 30
0.0
  0
LWPOLYLINE
  5
10a
100
AcDbEntity
  8
box
 62
7
100
AcDbPolyline
 90
2
 70
0
 10
696.692900
 20
388.346500
 30
0.0
 10
696.692900
 20
374.846500
 30
0.0
  0
LWPOLYLINE
  5
10b
100
AcDbEntity
  8
box
 62
7
100
AcDbPolyline
 90
4
 70
0
 10
696.692900
 20
388.346500
 30
0.0
 10
728.692900
 20
388.346500
 30
0.0
 10
728.692900
 20
374.846500
 30
0.0
 10
760.692900
 20
374.846500
 30
0.0
  0
LWPOLYLINE
  5
10c
100
AcDbEntity
  8
box
 62
7
100
AcDbPolyline
 90
2
 70
0
 10
760.692900
 20
388.346500
 30
0.0
 10
760.692900
 20
374.846500
 30
0.0
  0
LWPOLYLINE
  5
10d
100
AcDbEntity
  8
box
 62
7
100
AcDbPolyline
 90
4
 70
0
 10
760.692900
 20
388.346500
 30
0.0
 10
792.692900
 20
388.346500
 30
0.0
 10
792.692900
 20
374.846500
 30
0.0
 10
824.692900
 20
374.846500
 30
0.0
  0
LWPOLYLINE
  5
10e
100
AcDbEntity
  8
box
 62
7
100
AcDbPolyline
 90
2
 70
0
 10
824.692900
 20
388.346500
 30
0.0
 10
824.692900
 20
374.846500
 30
0.0
  0
LWPOLYLINE
  5
10f
100
AcDbEntity
  8
box
 62
7
100
AcDbPolyline
 90
4
 70
0
 10
824.692900
 20
388.346500
 30
0.0
 10
856.692900
 20
388.346500
 30
0.0
 10
856.692900
 20
374.846500
 30
0.0
 10
888.692900
 20
374.846500
 30
0.0
  0
LWPOLYLINE
  5
110
100
AcDbEntity
  8
box
 62
7
100
AcDbPolyline
 90
2
 70
0
 10
888.692900
 20
388.346500
 30
0.0
 10
888.692900
 20
374.846500
 30
0.0
  0
LWPOLYLINE
  5
111
100
AcDbEntity
  8
box
 62
7
100
AcDbPolyline
 90
2
 70
0
 10
888.692900
 20
388.346500
 30
0.0
 10
907.192900
 20
388.346500
 30
0.0
  0
LWPOLYLINE
  5
112
100
AcDbEntity
  8
box
 62
7
100
AcDbPolyline
 90
2
 70
0
 10
632.692900
 20
28.346460
 30
0.0
 10
632.692900
 20
61.073730
 30
0.0
  0
LWPOLYLINE
  5
113
100
AcDbEntity
  8
box
 62
7
100
AcDbPolyline
 90
2
 70
0
 10
646.192900
 20
61.073730
 30
0.0
 10
632.692900
 20
61.073730
 30
0.0
  0
LWPOLYLINE
  5
114
100
AcDbEntity
  8
box
 62
7
100
AcDbPolyline
 90
4
 70
0
 10
646.192900
 20
61.073730
 30
0.0
 10
646.192900
 20
93.801000
 30
0.0
 10
632.692900
 20
93.801000
 30
0.0
 10
632.692900
 20
126.528300
 30
0.0
  0
LWPOLYLINE
  5
115
100
AcDbEntity
  8
box
 62
7
100
AcDbPolyline
 90
2
 70
0
 10
646.192900
 20
126.528300
 30
0.0
 10
632.692900
 20
126.528300
 30
0.0
  0
LWPOLYLINE
  5
116
100
AcDbEntity
  8
box
 62
7
100
AcDbPolyline
 90
4
 70
0
 10
646.192900
 20
126.528300
 30
0.0
 10
646.192900
 20
159.255500
 30
0.0
 10
632.692900
 20
159.255500
 30
0.0
 10
632.692900
 20
191.982800
 30
0.0
  0
LWPOLYLINE
  5
117
100
AcDbEntity
  8
box
 62
7
100
AcDbPolyline
 90
2
 70
0
 10
646.192900
 20
191.982800
 30
0.0
 10
632.692900
 20
191.982800
 30
0.0
  0
LWPOLYLINE
  5
118
100
AcDbEntity
  8
box
 62
7
100
AcDbPolyline
 90
4
 70
0
 10
646.192900
 20
191.982800
 30
0.0
 10
646.192900
 20
224.710100
 30
0.0
 10
632.692900
 20
224.710100
 30
0.0
 10
632.692900
 20
257.437400
 30
0.0
  0
LWPOLYLINE
  5
119
100
AcDbEntity
  8
box
 62
7
100
AcDbPolyline
 90
2
 70
0
 10
646.192900
 20
257.437400
 30
0.0
 10
632.692900
 20
257.437400
 30
0.0
  0
LWPOLYLINE
  5
11a
100
AcDbEntity
  8
box
 62
7
100
AcDbPolyline
 90
4
 70
0
 10
646.192900
 20
257.437400
 30
0.0
 10
646.192900
 20
290.164600
 30
0.0
 10
632.692900
 20
290.164600
 30
0.0
 10
632.692900
 20
322.891900
 30
0.0
  0
LWPOLYLINE
  5
11b
100
AcDbEntity
  8
box
 62
7
100
AcDbPolyline
 90
2
 70
0
 10
646.192900
 20
322.891900
 30
0.0
 10
632.692900
 20
322.891900
 30
0.0
  0
LWPOLYLINE
  5
11c
100
AcDbEntity
  8
box
 62
7
100
AcDbPolyline
 90
4
 70
0
 10
646.192900
 20
322.891900
 30
0.0
 10
646.192900
 20
355.619200
 30
0.0
 10
632.692900
 20
355.619200
 30
0.0
 10
632.692900
 20
388.346500
 30
0.0
  0
LWPOLYLINE
  5
11d
100
AcDbEntity
  8
box
 62
7
100
AcDbPolyline
 90
2
 70
0
 10
907.192900
 20
28.346460
 30
0.0
 10
907.192900
 20
61.073730
 30
0.0
  0
LWPOLYLINE
  5
11e
100
AcDbEntity
  8
box
 62
7
100
AcDbPolyline
 90
2
 70
0
 10
920.692900
 20
61.073730
 30
0.0
 10
907.192900
 20
61.073730
 30
0.0
  0
LWPOLYLINE
  5
11f
100
AcDbEntity
  8
box
 62
7
100
AcDbPolyline
 90
4
 70
0
 10
920.692900
 20
61.073730
 30
0.0
 10
920.692900
 20
93.801000
 30
0.0
 10
907.192900
 20
93.801000
 30
0.0
 10
907.192900
 20
126.528300
 30
0.0
  0
LWPOLYLINE
  5
120
100
AcDbEntity
  8
box
 62
7
100
AcDbPolyline
 90
2
 70
0
 10
920.692900
 20
126.528300
 30
0.0
 10
907.192900
 20
126.528300
 30
0.0
  0
LWPOLYLINE
  5
121
100
AcDbEntity
  8
box
 62
7
100
AcDbPolyline
 90
4
 70
0
 10
920.692900
 20
126.528300
 30
0.0
 10
920.692900
 20
159.255500
 30
0.0
 10
907.192900
 20
159.255500
 30
0.0
 10
907.192900
 20
191.982800
 30
0.0
  0
LWPOLYLINE
  5
122
100
AcDbEntity
  8
box
 62
7
100
AcDbPolyline
 90
2
 70
0
 10
920.692900
 20
191.982800
 30
0.0
 10
907.192900
 20
191.982800
 30
0.0
  0
LWPOLYLINE
  5
123
100
AcDbEntity
  8
box
 62
7
100
AcDbPolyline
 90
4
 70
0
 10
920.692900
 20
191.982800
 30
0.0
 10
920.692900
 20
224.710100
 30
0.0
 10
907.192900
 20
224.710100
 30
0.0
 10
907.192900
 20
257.437400
 30
0.0
  0
LWPOLYLINE
  5
124
100
AcDbEntity
  8
box
 62
7
100
AcDbPolyline
 90
2
 70
0
 10
920.692900
 20
257.437400
 30
0.0
 10
907.192900
 20
257.437400
 30
0.0
  0
LWPOLYLINE
  5
125
100
AcDbEntity
  8
box
 62
7
100
AcDbPolyline
 90
4
 70
0
 10
920.692900
 20
257.437400
 30
0.0
 10
920.692900
 20
290.164600
 30
0.0
 10
907.192900
 20
290.164600
 30
0.0
 10
907.192900
 20
322.891900
 30
0.0
  0
LWPOLYLINE
  5
126
100
AcDbEntity
  8
box
 62
7
100
AcDbPolyline
 90
2
 70
0
 10
920.692900
 20
322.891900
 30
0.0
 10
907.192900
 20
322.891900
 30
0.0
  0
LWPOLYLINE
  5
127
100
AcDbEntity
  8
box
 62
7
100
AcDbPolyline
 90
4
 70
0
 10
920.692900
 20
322.891900
 30
0.0
 10
920.692900
 20
355.619200
 30
0.0
 10
907.192900
 20
355.619200
 30
0.0
 10
907.192900
 20
388.346500
 30
0.0
  0
LWPOLYLINE
  5
128
100
AcDbEntity
  8
box
 62
7
100
AcDbPolyline
 90
2
 70
0
 10
28.346460
 20
416.692900
 30
0.0
 10
62.228810
 20
416.692900
 30
0.0
  0
LWPOLYLINE
  5
129
100
AcDbEntity
  8
box
 62
7
100
AcDbPolyline
 90
2
 70
0
 10
62.228810
 20
430.192900
 30
0.0
 10
62.228810
 20
416.692900
 30
0.0
  0
LWPOLYLINE
  5
12a
100
AcDbEntity
  8
box
 62
7
100
AcDbPolyline
 90
4
 70
0
 10
62.228810
 20
430.192900
 30
0.0
 10
96.111160
 20
430.192900
 30
0.0
 10
96.111160
 20
416.692900
 30
0.0
 10
129.993500
 20
416.692900
 30
0.0
  0
LWPOLYLINE
  5
12b
100
AcDbEntity
  8
box
 62
7
100
AcDbPolyline
 90
2
 70
0
 10
129.993500
 20
430.192900
 30
0.0
 10
129.993500
 20
416.692900
 30
0.0
  0
LWPOLYLINE
  5
12c
100
AcDbEntity
  8
box
 62
7
100
AcDbPolyline
 90
4
 70
0
 10
129.993500
 20
430.192900
 30
0.0
 10
163.875900
 20
430.192900
 30
0.0
 10
163.875900
 20
416.692900
 30
0.0
 10
197.758200
 20
416.692900
 30
0.0
  0
LWPOLYLINE
  5
12d
100
AcDbEntity
  8
box
 62
7
100
AcDbPolyline
 90
2
 70
0
 10
197.758200
 20
430.192900
 30
0.0
 10
197.758200
 20
416.692900
 30
0.0
  0
LWPOLYLINE
  5
12e
100
AcDbEntity
  8
box
 62
7
100
AcDbPolyline
 90
4
 70
0
 10
197.758200
 20
430.192900
 30
0.0
 10
231.640600
 20
430.192900
 30
0.0
 10
231.640600
 20
416.692900
 30
0.0
 10
265.522900
 20
416.692900
 30
0.0
  0
LWPOLYLINE
  5
12f
100
AcDbEntity
  8
box
 62
7
100
AcDbPolyline
 90
2
 70
0
 10
265.522900
 20
430.192900
 30
0.0
 10
265.522900
 20
416.692900
 30
0.0
  0
LWPOLYLINE
  5
130
100
AcDbEntity
  8
box
 62
7
100
AcDbPolyline
 90
4
 70
0
 10
265.522900
 20
430.192900
 30
0.0
 10
299.405300
 20
430.192900
 30
0.0
 10
299.405300
 20
416.692900
 30
0.0
 10
333.287600
 20
416.692900
 30
0.0
  0
LWPOLYLINE
  5
131
100
AcDbEntity
  8
box
 62
7
100
AcDbPolyline
 90
2
 70
0
 10
333.287600
 20
430.192900
 30
0.0
 10
333.287600
 20
416.692900
 30
0.0
  0
LWPOLYLINE
  5
132
100
AcDbEntity
  8
box
 62
7
100
AcDbPolyline
 90
4
 70
0
 10
333.287600
 20
430.192900
 30
0.0
 10
367.170000
 20
430.192900
 30
0.0
 10
367.170000
 20
416.692900
 30
0.0
 10
401.052300
 20
416.692900
 30
0.0
  0
LWPOLYLINE
  5
133
100
AcDbEntity
  8
box
 62
7
100
AcDbPolyline
 90
2
 70
0
 10
401.052300
 20
430.192900
 30
0.0
 10
401.052300
 20
416.692900
 30
0.0
  0
LWPOLYLINE
  5
134
100
AcDbEntity
  8
box
 62
7
100
AcDbPolyline
 90
4
 70
0
 10
401.052300
 20
430.192900
 30
0.0
 10
434.934700
 20
430.192900
 30
0.0
 10
434.934700
 20
416.692900
 30
0.0
 10
468.817000
 20
416.692900
 30
0.0
  0
LWPOLYLINE
  5
135
100
AcDbEntity
  8
box
 62
7
100
AcDbPolyline
 90
2
 70
0
 10
468.817000
 20
430.192900
 30
0.0
 10
468.817000
 20
416.692900
 30
0.0
  0
LWPOLYLINE
  5
136
100
AcDbEntity
  8
box
 62
7
100
AcDbPolyline
 90
4
 70
0
 10
468.817000
 20
430.192900
 30
0.0
 10
502.699400
 20
430.192900
 30
0.0
 10
502.699400
 20
416.692900
 30
0.0
 10
536.581800
 20
416.692900
 30
0.0
  0
LWPOLYLINE
  5
137
100
AcDbEntity
  8
box
 62
7
100
AcDbPolyline
 90
2
 70
0
 10
536.581800
 20
430.192900
 30
0.0
 10
536.581800
 20
416.692900
 30
0.0
  0
LWPOLYLINE
  5
138
100
AcDbEntity
  8
box
 62
7
100
AcDbPolyline
 90
4
 70
0
 10
536.581800
 20
430.192900
 30
0.0
 10
570.464100
 20
430.192900
 30
0.0
 10
570.464100
 20
416.692900
 30
0.0
 10
590.846500
 20
416.692900
 30
0.0
  0
LWPOLYLINE
  5
139
100
AcDbEntity
  8
box
 62
7
100
AcDbPolyline
 90
4
 70
0
 10
28.346460
 20
776.692900
 30
0.0
 10
62.228810
 20
776.692900
 30
0.0
 10
62.228810
 20
763.192900
 30
0.0
 10
96.111160
 20
763.192900
 30
0.0
  0
LWPOLYLINE
  5
13a
100
AcDbEntity
  8
box
 62
7
100
AcDbPolyline
 90
2
 70
0
 10
96.111160
 20
776.692900
 30
0.0
 10
96.111160
 20
763.192900
 30
0.0
  0
LWPOLYLINE
  5
13b
100
AcDbEntity
  8
box
 62
7
100
AcDbPolyline
 90
4
 70
0
 10
96.111160
 20
776.692900
 30
0.0
 10
129.993500
 20
776.692900
 30
0.0
 10
129.993500
 20
763.192900
 30
0.0
 10
163.875900
 20
763.192900
 30
0.0
  0
LWPOLYLINE
  5
13c
100
AcDbEntity
  8
box
 62
7
100
AcDbPolyline
 90
2
 70
0
 10
163.875900
 20
776.692900
 30
0.0
 10
163.875900
 20
763.192900
 30
0.0
  0
LWPOLYLINE
  5
13d
100
AcDbEntity
  8
box
 62
7
100
AcDbPolyline
 90
4
 70
0
 10
163.875900
 20
776.692900
 30
0.0
 10
197.758200
 20
776.692900
 30
0.0
 10
197.758200
 20
763.192900
 30
0.0
 10
231.640600
 20
763.192900
 30
0.0
  0
LWPOLYLINE
  5
13e
100
AcDbEntity
  8
box
 62
7
100
AcDbPolyline
 90
2
 70
0
 10
231.640600
 20
776.692900
 30
0.0
 10
231.640600
 20
763.192900
 30
0.0
  0
LWPOLYLINE
  5
13f
100
AcDbEntity
  8
box
 62
7
100
AcDbPolyline
 90
4
 70
0
 10
231.640600
 20
776.692900
 30
0.0
 10
265.522900
 20
776.692900
 30
0.0
 10
265.522900
 20
763.192900
 30
0.0
 10
299.405300
 20
763.192900
 30
0.0
  0
LWPOLYLINE
  5
140
100
AcDbEntity
  8
box
 62
7
100
AcDbPolyline
 90
2
 70
0
 10
299.405300
 20
776.692900
 30
0.0
 10
299.405300
 20
763.192900
 30
0.0
  0
LWPOLYLINE
  5
141
100
AcDbEntity
  8
box
 62
7
100
AcDbPolyline
 90
4
 70
0
 10
299.405300
 20
776.692900
 30
0.0
 10
333.287600
 20
776.692900
 30
0.0
 10
333.287600
 20
763.192900
 30
0.0
 10
367.170000
 20
763.192900
 30
0.0
  0
LWPOLYLINE
  5
142
100
AcDbEntity
  8
box
 62
7
100
AcDbPolyline
 90
2
 70
0
 10
367.170000
 20
776.692900
 30
0.0
 10
367.170000
 20
763.192900
 30
0.0
  0
LWPOLYLINE
  5
143
100
AcDbEntity
  8
box
 62
7
100
AcDbPolyline
 90
4
 70
0
 10
367.170000
 20
776.692900
 30
0.0
 10
401.052300
 20
776.692900
 30
0.0
 10
401.052300
 20
763.192900
 30
0.0
 10
434.934700
 20
763.192900
 30
0.0
  0
LWPOLYLINE
  5
144
100
AcDbEntity
  8
box
 62
7
100
AcDbPolyline
 90
2
 70
0
 10
434.934700
 20
776.692900
 30
0.0
 10
434.934700
 20
763.192900
 30
0.0
  0
LWPOLYLINE
  5
145
100
AcDbEntity
  8
box
 62
7
100
AcDbPolyline
 90
4
 70
0
 10
434.934700
 20
776.692900
 30
0.0
 10
468.817000
 20
776.692900
 30
0.0
 10
468.817000
 20
763.192900
 30
0.0
 10
502.699400
 20
763.192900
 30
0.0
  0
LWPOLYLINE
  5
146
100
AcDbEntity
  8
box
 62
7
100
AcDbPolyline
 90
2
 70
0
 10
502.699400
 20
776.692900
 30
0.0
 10
502.699400
 20
763.192900
 30
0.0
  0
LWPOLYLINE
  5
147
100
AcDbEntity
  8
box
 62
7
100
AcDbPolyline
 90
4
 70
0
 10
502.699400
 20
776.692900
 30
0.0
 10
536.581800
 20
776.692900
 30
0.0
 10
536.581800
 20
763.192900
 30
0.0
 10
570.464100
 20
763.192900
 30
0.0
  0
LWPOLYLINE
  5
148
100
AcDbEntity
  8
box
 62
7
100
AcDbPolyline
 90
2
 70
0
 10
570.464100
 20
776.692900
 30
0.0
 10
570.464100
 20
763.192900
 30
0.0
  0
LWPOLYLINE
  5
149
100
AcDbEntity
  8
box
 62
7
100
AcDbPolyline
 90
2
 70
0
 10
570.464100
 20
776.692900
 30
0.0
 10
590.846500
 20
776.692900
 30
0.0
  0
LWPOLYLINE
  5
14a
100
AcDbEntity
  8
box
 62
7
100
AcDbPolyline
 90
2
 70
0
 10
28.346460
 20
416.692900
 30
0.0
 10
28.346460
 20
449.420200
 30
0.0
  0
LWPOLYLINE
  5
14b
100
AcDbEntity
  8
box
 62
7
100
AcDbPolyline
 90
2
 70
0
 10
41.846460
 20
449.420200
 30
0.0
 10
28.346460
 20
449.420200
 30
0.0
  0
LWPOLYLINE
  5
14c
100
AcDbEntity
  8
box
 62
7
100
AcDbPolyline
 90
4
 70
0
 10
41.846460
 20
449.420200
 30
0.0
 10
41.846460
 20
482.147500
 30
0.0
 10
28.346460
 20
482.147500
 30
0.0
 10
28.346460
 20
514.874700
 30
0.0
  0
LWPOLYLINE
  5
14d
100
AcDbEntity
  8
box
 62
7
100
AcDbPolyline
 90
2
 70
0
 10
41.846460
 20
514.874700
 30
0.0
 10
28.346460
 20
514.874700
 30
0.0
  0
LWPOLYLINE
  5
14e
100
AcDbEntity
  8
box
 62
7
100
AcDbPolyline
 90
4
 70
0
 10
41.846460
 20
514.874700
 30
0.0
 10
41.846460
 20
547.602000
 30
0.0
 10
28.346460
 20
547.602000
 30
0.0
 10
28.346460
 20
580.329300
 30
0.0
  0
LWPOLYLINE
  5
14f
100
AcDbEntity
  8
box
 62
7
100
AcDbPolyline
 90
2
 70
0
 10
41.846460
 20
580.329300
 30
0.0
 10
28.346460
 20
580.329300
 30
0.0
  0
LWPOLYLINE
  5
150
100
AcDbEntity
  8
box
 62
7
100
AcDbPolyline
 90
4
 70
0
 10
41.846460
 20
580.329300
 30
0.0
 10
41.846460
 20
613.056500
 30
0.0
 10
28.346460
 20
613.056500
 30
0.0
 10
28.346460
 20
645.783800
 30
0.0
  0
LWPOLYLINE
  5
151
100
AcDbEntity
  8
box
 62
7
100
AcDbPolyline
 90
2
 70
0
 10
41.846460
 20
645.783800
 30
0.0
 10
28.346460
 20
645.783800
 30
0.0
  0
LWPOLYLINE
  5
152
100
AcDbEntity
  8
box
 62
7
100
AcDbPolyline
 90
4
 70
0
 10
41.846460
 20
645.783800
 30
0.0
 10
41.846460
 20
678.511100
 30
0.0
 10
28.346460
 20
678.511100
 30
0.0
 10
28.346460
 20
711.238400
 30
0.0
  0
LWPOLYLINE
  5
153
100
AcDbEntity
  8
box
 62
7
100
AcDbPolyline
 90
2
 70
0
 10
41.846460
 20
711.238400
 30
0.0
 10
28.346460
 20
711.238400
 30
0.0
  0
LWPOLYLINE
  5
154
100
AcDbEntity
  8
box
 62
7
100
AcDbPolyline
 90
4
 70
0
 10
41.846460
 20
711.238400
 30
0.0
 10
41.846460
 20
743.965600
 30
0.0
 10
28.346460
 20
743.965600
 30
0.0
 10
28.346460
 20
776.692900
 30
0.0
  0
LWPOLYLINE
  5
155
100
AcDbEntity
  8
box
 62
7
100
AcDbPolyline
 90
2
 70
0
 10
590.846500
 20
416.692900
 30
0.0
 10
590.846500
 20
449.420200
 30
0.0
  0
LWPOLYLINE
  5
156
100
AcDbEntity
  8
box
 62
7
100
AcDbPolyline
 90
2
 70
0
 10
604.346500
 20
449.420200
 30
0.0
 10
590.846500
 20
449.420200
 30
0.0
  0
LWPOLYLINE
  5
157
100
AcDbEntity
  8
box
 62
7
100
AcDbPolyline
 90
4
 70
0
 10
604.346500
 20
449.420200
 30
0.0
 10
604.346500
 20
482.147500
 30
0.0
 10
590.846500
 20
482.147500
 30
0.0
 10
590.846500
 20
514.874700
 30
0.0
  0
LWPOLYLINE
  5
158
100
AcDbEntity
  8
box
 62
7
100
AcDbPolyline
 90
2
 70
0
 10
604.346500
 20
514.874700
 30
0.0
 10
590.846500
 20
514.874700
 30
0.0
  0
LWPOLYLINE
  5
159
100
AcDbEntity
  8
box
 62
7
100
AcDbPolyline
 90
4
 70
0
 10
604.346500
 20
514.874700
 30
0.0
 10
604.346500
 20
547.602000
 30
0.0
 10
590.846500
 20
547.602000
 30
0.0
 10
590.846500
 20
580.329300
 30
0.0
  0
LWPOLYLINE
  5
15a
100
AcDbEntity
  8
box
 62
7
100
AcDbPolyline
 90
2
 70
0
 10
604.346500
 20
580.329300
 30
0.0
 10
590.846500
 20
580.329300
 30
0.0
  0
LWPOLYLINE
  5
15b
100
AcDbEntity
  8
box
 62
7
100
AcDbPolyline
 90
4
 70
0
 10
604.346500
 20
580.329300
 30
0.0
 10
604.346500
 20
613.056500
 30
0.0
 10
590.846500
 20
613.056500
 30
0.0
 10
590.846500
 20
645.783800
 30
0.0
  0
LWPOLYLINE
  5
15c
100
AcDbEntity
  8
box
 62
7
100
AcDbPolyline
 90
2
 70
0
 10
604.346500
 20
645.783800
 30
0.0
 10
590.846500
 20
645.783800
 30
0.0
  0
LWPOLYLINE
  5
15d
100
AcDbEntity
  8
box
 62
7
100
AcDbPolyline
 90
4
 70
0
 10
604.346500
 20
645.783800
 30
0.0
 10
604.346500
 20
678.511100
 30
0.0
 10
590.846500
 20
678.511100
 30
0.0
 10
590.846500
 20
711.238400
 30
0.0
  0
LWPOLYLINE
  5
15e
100
AcDbEntity
  8
box
 62
7
100
AcDbPolyline
 90
2
 70
0
 10
604.346500
 20
711.238400
 30
0.0
 10
590.846500
 20
711.238400
 30
0.0
  0
LWPOLYLINE
  5
15f
100
AcDbEntity
  8
box
 62
7
100
AcDbPolyline
 90
4
 70
0
 10
604.346500
 20
711.238400
 30
0.0
 10
604.346500
 20
743.965600
 30
0.0
 10
590.846500
 20
743.965600
 30
0.0
 10
590.846500
 20
776.692900
 30
0.0
  0
LWPOLYLINE
  5
160
100
AcDbEntity
  8
box
 62
7
100
AcDbPolyline
 90
2
 70
0
 10
31.767393
 20
32.718572
 30
0.0
 10
65.649693
 20
32.718572
 30
0.0
  0
LWPOLYLINE
  5
161
100
AcDbEntity
  8
box
 62
7
100
AcDbPolyline
 90
2
 70
0
 10
65.649693
 20
46.218572
 30
0.0
 10
65.649693
 20
32.718572
 30
0.0
  0
LWPOLYLINE
  5
162
100
AcDbEntity
  8
box
 62
7
100
AcDbPolyline
 90
4
 70
0
 10
65.649693
 20
46.218572
 30
0.0
 10
99.531993
 20
46.218572
 30
0.0
 10
99.531993
 20
32.718572
 30
0.0
 10
133.413990
 20
32.718572
 30
0.0
  0
LWPOLYLINE
  5
163
100
AcDbEntity
  8
box
 62
7
100
AcDbPolyline
 90
2
 70
0
 10
133.413990
 20
46.218572
 30
0.0
 10
133.413990
 20
32.718572
 30
0.0
  0
LWPOLYLINE
  5
164
100
AcDbEntity
  8
box
 62
7
100
AcDbPolyline
 90
4
 70
0
 10
133.413990
 20
46.218572
 30
0.0
 10
167.296990
 20
46.218572
 30
0.0
 10
167.296990
 20
32.718572
 30
0.0
 10
201.178990
 20
32.718572
 30
0.0
  0
LWPOLYLINE
  5
165
100
AcDbEntity
  8
box
 62
7
100
AcDbPolyline
 90
2
 70
0
 10
201.178990
 20
46.218572
 30
0.0
 10
201.178990
 20
32.718572
 30
0.0
  0
LWPOLYLINE
  5
166
100
AcDbEntity
  8
box
 62
7
100
AcDbPolyline
 90
4
 70
0
 10
201.178990
 20
46.218572
 30
0.0
 10
235.060990
 20
46.218572
 30
0.0
 10
235.060990
 20
32.718572
 30
0.0
 10
268.943990
 20
32.718572
 30
0.0
  0
LWPOLYLINE
  5
167
100
AcDbEntity
  8
box
 62
7
100
AcDbPolyline
 90
2
 70
0
 10
268.943990
 20
46.218572
 30
0.0
 10
268.943990
 20
32.718572
 30
0.0
  0
LWPOLYLINE
  5
168
100
AcDbEntity
  8
box
 62
7
100
AcDbPolyline
 90
4
 70
0
 10
268.943990
 20
46.218572
 30
0.0
 10
302.825990
 20
46.218572
 30
0.0
 10
302.825990
 20
32.718572
 30
0.0
 10
336.708990
 20
32.718572
 30
0.0
  0
LWPOLYLINE
  5
169
100
AcDbEntity
  8
box
 62
7
100
AcDbPolyline
 90
2
 70
0
 10
336.708990
 20
46.218572
 30
0.0
 10
336.708990
 20
32.718572
 30
0.0
  0
LWPOLYLINE
  5
16a
100
AcDbEntity
  8
box
 62
7
100
AcDbPolyline
 90
4
 70
0
 10
336.708990
 20
46.218572
 30
0.0
 10
370.590990
 20
46.218572
 30
0.0
 10
370.590990
 20
32.718572
 30
0.0
 10
404.472990
 20
32.718572
 30
0.0
  0
LWPOLYLINE
  5
16b
100
AcDbEntity
  8
box
 62
7
100
AcDbPolyline
 90
2
 70
0
 10
404.472990
 20
46.218572
 30
0.0
 10
404.472990
 20
32.718572
 30
0.0
  0
LWPOLYLINE
  5
16c
100
AcDbEntity
  8
box
 62
7
100
AcDbPolyline
 90
4
 70
0
 10
404.472990
 20
46.218572
 30
0.0
 10
438.355990
 20
46.218572
 30
0.0
 10
438.355990
 20
32.718572
 30
0.0
 10
472.237990
 20
32.718572
 30
0.0
  0
LWPOLYLINE
  5
16d
100
AcDbEntity
  8
box
 62
7
100
AcDbPolyline
 90
2
 70
0
 10
472.237990
 20
46.218572
 30
0.0
 10
472.237990
 20
32.718572
 30
0.0
  0
LWPOLYLINE
  5
16e
100
AcDbEntity
  8
box
 62
7
100
AcDbPolyline
 90
4
 70
0
 10
472.237990
 20
46.218572
 30
0.0
 10
506.119990
 20
46.218572
 30
0.0
 10
506.119990
 20
32.718572
 30
0.0
 10
540.002990
 20
32.718572
 30
0.0
  0
LWPOLYLINE
  5
16f
100
AcDbEntity
  8
box
 62
7
100
AcDbPolyline
 90
2
 70
0
 10
540.002990
 20
46.218572
 30
0.0
 10
540.002990
 20
32.718572
 30
0.0
  0
LWPOLYLINE
  5
170
100
AcDbEntity
  8
box
 62
7
100
AcDbPolyline
 90
4
 70
0
 10
540.002990
 20
46.218572
 30
0.0
 10
573.884990
 20
46.218572
 30
0.0
 10
573.884990
 20
32.718572
 30
0.0
 10
594.266990
 20
32.718572
 30
0.0
  0
LWPOLYLINE
  5
171
100
AcDbEntity
  8
box
 62
7
100
AcDbPolyline
 90
4
 70
0
 10
31.767393
 20
392.718570
 30
0.0
 10
65.649693
 20
392.718570
 30
0.0
 10
65.649693
 20
379.218570
 30
0.0
 10
99.531993
 20
379.218570
 30
0.0
  0
LWPOLYLINE
  5
172
100
AcDbEntity
  8
box
 62
7
100
AcDbPolyline
 90
2
 70
0
 10
99.531993
 20
392.718570
 30
0.0
 10
99.531993
 20
379.218570
 30
0.0
  0
LWPOLYLINE
  5
173
100
AcDbEntity
  8
box
 62
7
100
AcDbPolyline
 90
4
 70
0
 10
99.531993
 20
392.718570
 30
0.0
 10
133.413990
 20
392.718570
 30
0.0
 10
133.413990
 20
379.218570
 30
0.0
 10
167.296990
 20
379.218570
 30
0.0
  0
LWPOLYLINE
  5
174
100
AcDbEntity
  8
box
 62
7
100
AcDbPolyline
 90
2
 70
0
 10
167.296990
 20
392.718570
 30
0.0
 10
167.296990
 20
379.218570
 30
0.0
  0
LWPOLYLINE
  5
175
100
AcDbEntity
  8
box
 62
7
100
AcDbPolyline
 90
4
 70
0
 10
167.296990
 20
392.718570
 30
0.0
 10
201.178990
 20
392.718570
 30
0.0
 10
201.178990
 20
379.218570
 30
0.0
 10
235.060990
 20
379.218570
 30
0.0
  0
LWPOLYLINE
  5
176
100
AcDbEntity
  8
box
 62
7
100
AcDbPolyline
 90
2
 70
0
 10
235.060990
 20
392.718570
 30
0.0
 10
235.060990
 20
379.218570
 30
0.0
  0
LWPOLYLINE
  5
177
100
AcDbEntity
  8
box
 62
7
100
AcDbPolyline
 90
4
 70
0
 10
235.060990
 20
392.718570
 30
0.0
 10
268.943990
 20
392.718570
 30
0.0
 10
268.943990
 20
379.218570
 30
0.0
 10
302.825990
 20
379.218570
 30
0.0
  0
LWPOLYLINE
  5
178
100
AcDbEntity
  8
box
 62
7
100
AcDbPolyline
 90
2
 70
0
 10
302.825990
 20
392.718570
 30
0.0
 10
302.825990
 20
379.218570
 30
0.0
  0
LWPOLYLINE
  5
179
100
AcDbEntity
  8
box
 62
7
100
AcDbPolyline
 90
4
 70
0
 10
302.825990
 20
392.718570
 30
0.0
 10
336.708990
 20
392.718570
 30
0.0
 10
336.708990
 20
379.218570
 30
0.0
 10
370.590990
 20
379.218570
 30
0.0
  0
LWPOLYLINE
  5
17a
100
AcDbEntity
  8
box
 62
7
100
AcDbPolyline
 90
2
 70
0
 10
370.590990
 20
392.718570
 30
0.0
 10
370.590990
 20
379.218570
 30
0.0
  0
LWPOLYLINE
  5
17b
100
AcDbEntity
  8
box
 62
7
100
AcDbPolyline
 90
4
 70
0
 10
370.590990
 20
392.718570
 30
0.0
 10
404.472990
 20
392.718570
 30
0.0
 10
404.472990
 20
379.218570
 30
0.0
 10
438.355990
 20
379.218570
 30
0.0
  0
LWPOLYLINE
  5
17c
100
AcDbEntity
  8
box
 62
7
100
AcDbPolyline
 90
2
 70
0
 10
438.355990
 20
392.718570
 30
0.0
 10
438.355990
 20
379.218570
 30
0.0
  0
LWPOLYLINE
  5
17d
100
AcDbEntity
  8
box
 62
7
100
AcDbPolyline
 90
4
 70
0
 10
438.355990
 20
392.718570
 30
0.0
 10
472.237990
 20
392.718570
 30
0.0
 10
472.237990
 20
379.218570
 30
0.0
 10
506.119990
 20
379.218570
 30
0.0
  0
LWPOLYLINE
  5
17e
100
AcDbEntity
  8
box
 62
7
100
AcDbPolyline
 90
2
 70
0
 10
506.119990
 20
392.718570
 30
0.0
 10
506.119990
 20
379.218570
 30
0.0
  0
LWPOLYLINE
  5
17f
100
AcDbEntity
  8
box
 62
7
100
AcDbPolyline
 90
4
 70
0
 10
506.119990
 20
392.718570
 30
0.0
 10
540.002990
 20
392.718570
 30
0.0
 10
540.002990
 20
379.218570
 30
0.0
 10
573.884990
 20
379.218570
 30
0.0
  0
LWPOLYLINE
  5
180
100
AcDbEntity
  8
box
 62
7
100
AcDbPolyline
 90
2
 70
0
 10
573.884990
 20
392.718570
 30
0.0
 10
573.884990
 20
379.218570
 30
0.0
  0
LWPOLYLINE
  5
181
100
AcDbEntity
  8
box
 62
7
100
AcDbPolyline
 90
2
 70
0
 10
573.884990
 20
392.718570
 30
0.0
 10
594.266990
 20
392.718570
 30
0.0
  0
LWPOLYLINE
  5
182
100
AcDbEntity
  8
box
 62
7
100
AcDbPolyline
 90
2
 70
0
 10
31.767393
 20
32.718572
 30
0.0
 10
31.767393
 20
65.445872
 30
0.0
  0
LWPOLYLINE
  5
183
100
AcDbEntity
  8
box
 62
7
100
AcDbPolyline
 90
2
 70
0
 10
45.267393
 20
65.445872
 30
0.0
 10
31.767393
 20
65.445872
 30
0.0
  0
LWPOLYLINE
  5
184
100
AcDbEntity
  8
box
 62
7
100
AcDbPolyline
 90
4
 70
0
 10
45.267393
 20
65.445872
 30
0.0
 10
45.267393
 20
98.173172
 30
0.0
 10
31.767393
 20
98.173172
 30
0.0
 10
31.767393
 20
130.900370
 30
0.0
  0
LWPOLYLINE
  5
185
100
AcDbEntity
  8
box
 62
7
100
AcDbPolyline
 90
2
 70
0
 10
45.267393
 20
130.900370
 30
0.0
 10
31.767393
 20
130.900370
 30
0.0
  0
LWPOLYLINE
  5
186
100
AcDbEntity
  8
box
 62
7
100
AcDbPolyline
 90
4
 70
0
 10
45.267393
 20
130.900370
 30
0.0
 10
45.267393
 20
163.627670
 30
0.0
 10
31.767393
 20
163.627670
 30
0.0
 10
31.767393
 20
196.354970
 30
0.0
  0
LWPOLYLINE
  5
187
100
AcDbEntity
  8
box
 62
7
100
AcDbPolyline
 90
2
 70
0
 10
45.267393
 20
196.354970
 30
0.0
 10
31.767393
 20
196.354970
 30
0.0
  0
LWPOLYLINE
  5
188
100
AcDbEntity
  8
box
 62
7
100
AcDbPolyline
 90
4
 70
0
 10
45.267393
 20
196.354970
 30
0.0
 10
45.267393
 20
229.082170
 30
0.0
 10
31.767393
 20
229.082170
 30
0.0
 10
31.767393
 20
261.809470
 30
0.0
  0
LWPOLYLINE
  5
189
100
AcDbEntity
  8
box
 62
7
100
AcDbPolyline
 90
2
 70
0
 10
45.267393
 20
261.809470
 30
0.0
 10
31.767393
 20
261.809470
 30
0.0
  0
LWPOLYLINE
  5
18a
100
AcDbEntity
  8
box
 62
7
100
AcDbPolyline
 90
4
 70
0
 10
45.267393
 20
261.809470
 30
0.0
 10
45.267393
 20
294.536770
 30
0.0
 10
31.767393
 20
294.536770
 30
0.0
 10
31.767393
 20
327.264070
 30
0.0
  0
LWPOLYLINE
  5
18b
100
AcDbEntity
  8
box
 62
7
100
AcDbPolyline
 90
2
 70
0
 10
45.267393
 20
327.264070
 30
0.0
 10
31.767393
 20
327.264070
 30
0.0
  0
LWPOLYLINE
  5
18c
100
AcDbEntity
  8
box
 62
7
100
AcDbPolyline
 90
4
 70
0
 10
45.267393
 20
327.264070
 30
0.0
 10
45.267393
 20
359.991270
 30
0.0
 10
31.767393
 20
359.991270
 30
0.0
 10
31.767393
 20
392.718570
 30
0.0
  0
LWPOLYLINE
  5
18d
100
AcDbEntity
  8
box
 62
7
100
AcDbPolyline
 90
2
 70
0
 10
594.266990
 20
32.718572
 30
0.0
 10
594.266990
 20
65.445872
 30
0.0
  0
LWPOLYLINE
  5
18e
100
AcDbEntity
  8
box
 62
7
100
AcDbPolyline
 90
2
 70
0
 10
607.766990
 20
65.445872
 30
0.0
 10
594.266990
 20
65.445872
 30
0.0
  0
LWPOLYLINE
  5
18f
100
AcDbEntity
  8
box
 62
7
100
AcDbPolyline
 90
4
 70
0
 10
607.766990
 20
65.445872
 30
0.0
 10
607.766990
 20
98.173172
 30
0.0
 10
594.266990
 20
98.173172
 30
0.0
 10
594.266990
 20
130.900370
 30
0.0
  0
LWPOLYLINE
  5
190
100
AcDbEntity
  8
box
 62
7
100
AcDbPolyline
 90
2
 70
0
 10
607.766990
 20
130.900370
 30
0.0
 10
594.266990
 20
130.900370
 30
0.0
  0
LWPOLYLINE
  5
191
100
AcDbEntity
  8
box
 62
7
100
AcDbPolyline
 90
4
 70
0
 10
607.766990
 20
130.900370
 30
0.0
 10
607.766990
 20
163.627670
 30
0.0
 10
594.266990
 20
163.627670
 30
0.0
 10
594.266990
 20
196.354970
 30
0.0
  0
LWPOLYLINE
  5
192
100
AcDbEntity
  8
box
 62
7
100
AcDbPolyline
 90
2
 70
0
 10
607.766990
 20
196.354970
 30
0.0
 10
594.266990
 20
196.354970
 30
0.0
  0
LWPOLYLINE
  5
193
100
AcDbEntity
  8
box
 62
7
100
AcDbPolyline
 90
4
 70
0
 10
607.766990
 20
196.354970
 30
0.0
 10
607.766990
 20
229.082170
 30
0.0
 10
594.266990
 20
229.082170
 30
0.0
 10
594.266990
 20
261.809470
 30
0.0
  0
LWPOLYLINE
  5
194
100
AcDbEntity
  8
box
 62
7
100
AcDbPolyline
 90
2
 70
0
 10
607.766990
 20
261.809470
 30
0.0
 10
594.266990
 20
261.809470
 30
0.0
  0
LWPOLYLINE
  5
195
100
AcDbEntity
  8
box
 62
7
100
AcDbPolyline
 90
4
 70
0
 10
607.766990
 20
261.809470
 30
0.0
 10
607.766990
 20
294.536770
 30
0.0
 10
594.266990
 20
294.536770
 30
0.0
 10
594.266990
 20
327.264070
 30
0.0
  0
LWPOLYLINE
  5
196
100
AcDbEntity
  8
box
 62
7
100
AcDbPolyline
 90
2
 70
0
 10
607.766990
 20
327.264070
 30
0.0
 10
594.266990
 20
327.264070
 30
0.0
  0
LWPOLYLINE
  5
197
100
AcDbEntity
  8
box
 62
7
100
AcDbPolyline
 90
4
 70
0
 10
607.766990
 20
327.264070
 30
0.0
 10
607.766990
 20
359.991270
 30
0.0
 10
594.266990
 20
359.991270
 30
0.0
 10
594.266990
 20
392.718570
 30
0.0
  0
LWPOLYLINE
  5
198
100
AcDbEntity
  8
box
 62
7
100
AcDbPolyline
 90
2
 70
0
 10
639.092470
 20
419.479220
 30
0.0
 10
671.092470
 20
419.479220
 30
0.0
  0
LWPOLYLINE
  5
199
100
AcDbEntity
  8
box
 62
7
100
AcDbPolyline
 90
2
 70
0
 10
671.092470
 20
432.979220
 30
0.0
 10
671.092470
 20
419.479220
 30
0.0
  0
LWPOLYLINE
  5
19a
100
AcDbEntity
  8
box
 62
7
100
AcDbPolyline
 90
4
 70
0
 10
671.092470
 20
432.979220
 30
0.0
 10
703.092470
 20
432.979220
 30
0.0
 10
703.092470
 20
419.479220
 30
0.0
 10
735.092470
 20
419.479220
 30
0.0
  0
LWPOLYLINE
  5
19b
100
AcDbEntity
  8
box
 62
7
100
AcDbPolyline
 90
2
 70
0
 10
735.092470
 20
432.979220
 30
0.0
 10
735.092470
 20
419.479220
 30
0.0
  0
LWPOLYLINE
  5
19c
100
AcDbEntity
  8
box
 62
7
100
AcDbPolyline
 90
4
 70
0
 10
735.092470
 20
432.979220
 30
0.0
 10
767.092470
 20
432.979220
 30
0.0
 10
767.092470
 20
419.479220
 30
0.0
 10
799.092470
 20
419.479220
 30
0.0
  0
LWPOLYLINE
  5
19d
100
AcDbEntity
  8
box
 62
7
100
AcDbPolyline
 90
2
 70
0
 10
799.092470
 20
432.979220
 30
0.0
 10
799.092470
 20
419.479220
 30
0.0
  0
LWPOLYLINE
  5
19e
100
AcDbEntity
  8
box
 62
7
100
AcDbPolyline
 90
4
 70
0
 10
799.092470
 20
432.979220
 30
0.0
 10
831.092470
 20
432.979220
 30
0.0
 10
831.092470
 20
419.479220
 30
0.0
 10
863.092470
 20
419.479220
 30
0.0
  0
LWPOLYLINE
  5
19f
100
AcDbEntity
  8
box
 62
7
100
AcDbPolyline
 90
2
 70
0
 10
863.092470
 20
432.979220
 30
0.0
 10
863.092470
 20
419.479220
 30
0.0
  0
LWPOLYLINE
  5
1a0
100
AcDbEntity
  8
box
 62
7
100
AcDbPolyline
 90
4
 70
0
 10
863.092470
 20
432.979220
 30
0.0
 10
895.092470
 20
432.979220
 30
0.0
 10
895.092470
 20
419.479220
 30
0.0
 10
913.592470
 20
419.479220
 30
0.0
  0
LWPOLYLINE
  5
1a1
100
AcDbEntity
  8
box
 62
7
100
AcDbPolyline
 90
4
 70
0
 10
639.092470
 20
779.479220
 30
0.0
 10
671.092470
 20
779.479220
 30
0.0
 10
671.092470
 20
765.979220
 30
0.0
 10
703.092470
 20
765.979220
 30
0.0
  0
LWPOLYLINE
  5
1a2
100
AcDbEntity
  8
box
 62
7
100
AcDbPolyline
 90
2
 70
0
 10
703.092470
 20
779.479220
 30
0.0
 10
703.092470
 20
765.979220
 30
0.0
  0
LWPOLYLINE
  5
1a3
100
AcDbEntity
  8
box
 62
7
100
AcDbPolyline
 90
4
 70
0
 10
703.092470
 20
779.479220
 30
0.0
 10
735.092470
 20
779.479220
 30
0.0
 10
735.092470
 20
765.979220
 30
0.0
 10
767.092470
 20
765.979220
 30
0.0
  0
LWPOLYLINE
  5
1a4
100
AcDbEntity
  8
box
 62
7
100
AcDbPolyline
 90
2
 70
0
 10
767.092470
 20
779.479220
 30
0.0
 10
767.092470
 20
765.979220
 30
0.0
  0
LWPOLYLINE
  5
1a5
100
AcDbEntity
  8
box
 62
7
100
AcDbPolyline
 90
4
 70
0
 10
767.092470
 20
779.479220
 30
0.0
 10
799.092470
 20
779.479220
 30
0.0
 10
799.092470
 20
765.979220
 30
0.0
 10
831.092470
 20
765.979220
 30
0.0
  0
LWPOLYLINE
  5
1a6
100
AcDbEntity
  8
box
 62
7
100
AcDbPolyline
 90
2
 70
0
 10
831.092470
 20
779.479220
 30
0.0
 10
831.092470
 20
765.979220
 30
0.0
  0
LWPOLYLINE
  5
1a7
100
AcDbEntity
  8
box
 62
7
100
AcDbPolyline
 90
4
 70
0
 10
831.092470
 20
779.479220
 30
0.0
 10
863.092470
 20
779.479220
 30
0.0
 10
863.092470
 20
765.979220
 30
0.0
 10
895.092470
 20
765.979220
 30
0.0
  0
LWPOLYLINE
  5
1a8
100
AcDbEntity
  8
box
 62
7
100
AcDbPolyline
 90
2
 70
0
 10
895.092470
 20
779.479220
 30
0.0
 10
895.092470
 20
765.979220
 30
0.0
  0
LWPOLYLINE
  5
1a9
100
AcDbEntity
  8
box
 62
7
100
AcDbPolyline
 90
2
 70
0
 10
895.092470
 20
779.479220
 30
0.0
 10
913.592470
 20
779.479220
 30
0.0
  0
LWPOLYLINE
  5
1aa
100
AcDbEntity
  8
box
 62
7
100
AcDbPolyline
 90
2
 70
0
 10
639.092470
 20
419.479220
 30
0.0
 10
639.092470
 20
452.207220
 30
0.0
  0
LWPOLYLINE
  5
1ab
100
AcDbEntity
  8
box
 62
7
100
AcDbPolyline
 90
2
 70
0
 10
652.592470
 20
452.207220
 30
0.0
 10
639.092470
 20
452.207220
 30
0.0
  0
LWPOLYLINE
  5
1ac
100
AcDbEntity
  8
box
 62
7
100
AcDbPolyline
 90
4
 70
0
 10
652.592470
 20
452.207220
 30
0.0
 10
652.592470
 20
484.934220
 30
0.0
 10
639.092470
 20
484.934220
 30
0.0
 10
639.092470
 20
517.661220
 30
0.0
  0
LWPOLYLINE
  5
1ad
100
AcDbEntity
  8
box
 62
7
100
AcDbPolyline
 90
2
 70
0
 10
652.592470
 20
517.661220
 30
0.0
 10
639.092470
 20
517.661220
 30
0.0
  0
LWPOLYLINE
  5
1ae
100
AcDbEntity
  8
box
 62
7
100
AcDbPolyline
 90
4
 70
0
 10
652.592470
 20
517.661220
 30
0.0
 10
652.592470
 20
550.388220
 30
0.0
 10
639.092470
 20
550.388220
 30
0.0
 10
639.092470
 20
583.116220
 30
0.0
  0
LWPOLYLINE
  5
1af
100
AcDbEntity
  8
box
 62
7
100
AcDbPolyline
 90
2
 70
0
 10
652.592470
 20
583.116220
 30
0.0
 10
639.092470
 20
583.116220
 30
0.0
  0
LWPOLYLINE
  5
1b0
100
AcDbEntity
  8
box
 62
7
100
AcDbPolyline
 90
4
 70
0
 10
652.592470
 20
583.116220
 30
0.0
 10
652.592470
 20
615.843220
 30
0.0
 10
639.092470
 20
615.843220
 30
0.0
 10
639.092470
 20
648.570220
 30
0.0
  0
LWPOLYLINE
  5
1b1
100
AcDbEntity
  8
box
 62
7
100
AcDbPolyline
 90
2
 70
0
 10
652.592470
 20
648.570220
 30
0.0
 10
639.092470
 20
648.570220
 30
0.0
  0
LWPOLYLINE
  5
1b2
100
AcDbEntity
  8
box
 62
7
100
AcDbPolyline
 90
4
 70
0
 10
652.592470
 20
648.570220
 30
0.0
 10
652.592470
 20
681.298220
 30
0.0
 10
639.092470
 20
681.298220
 30
0.0
 10
639.092470
 20
714.025220
 30
0.0
  0
LWPOLYLINE
  5
1b3
100
AcDbEntity
  8
box
 62
7
100
AcDbPolyline
 90
2
 70
0
 10
652.592470
 20
714.025220
 30
0.0
 10
639.092470
 20
714.025220
 30
0.0
  0
LWPOLYLINE
  5
1b4
100
AcDbEntity
  8
box
 62
7
100
AcDbPolyline
 90
4
 70
0
 10
652.592470
 20
714.025220
 30
0.0
 10
652.592470
 20
746.752220
 30
0.0
 10
639.092470
 20
746.752220
 30
0.0
 10
639.092470
 20
779.479220
 30
0.0
  0
LWPOLYLINE
  5
1b5
100
AcDbEntity
  8
box
 62
7
100
AcDbPolyline
 90
2
 70
0
 10
913.592470
 20
419.479220
 30
0.0
 10
913.592470
 20
452.207220
 30
0.0
  0
LWPOLYLINE
  5
1b6
100
AcDbEntity
  8
box
 62
7
100
AcDbPolyline
 90
2
 70
0
 10
927.092470
 20
452.207220
 30
0.0
 10
913.592470
 20
452.207220
 30
0.0
  0
LWPOLYLINE
  5
1b7
100
AcDbEntity
  8
box
 62
7
100
AcDbPolyline
 90
4
 70
0
 10
927.092470
 20
452.207220
 30
0.0
 10
927.092470
 20
484.934220
 30
0.0
 10
913.592470
 20
484.934220
 30
0.0
 10
913.592470
 20
517.661220
 30
0.0
  0
LWPOLYLINE
  5
1b8
100
AcDbEntity
  8
box
 62
7
100
AcDbPolyline
 90
2
 70
0
 10
927.092470
 20
517.661220
 30
0.0
 10
913.592470
 20
517.661220
 30
0.0
  0
LWPOLYLINE
  5
1b9
100
AcDbEntity
  8
box
 62
7
100
AcDbPolyline
 90
4
 70
0
 10
927.092470
 20
517.661220
 30
0.0
 10
927.092470
 20
550.388220
 30
0.0
 10
913.592470
 20
550.388220
 30
0.0
 10
913.592470
 20
583.116220
 30
0.0
  0
LWPOLYLINE
  5
1ba
100
AcDbEntity
  8
box
 62
7
100
AcDbPolyline
 90
2
 70
0
 10
927.092470
 20
583.116220
 30
0.0
 10
913.592470
 20
583.116220
 30
0.0
  0
LWPOLYLINE
  5
1bb
100
AcDbEntity
  8
box
 62
7
100
AcDbPolyline
 90
4
 70
0
 10
927.092470
 20
583.116220
 30
0.0
 10
927.092470
 20
615.843220
 30
0.0
 10
913.592470
 20
615.843220
 30
0.0
 10
913.592470
 20
648.570220
 30
0.0
  0
LWPOLYLINE
  5
1bc
100
AcDbEntity
  8
box
 62
7
100
AcDbPolyline
 90
2
 70
0
 10
927.092470
 20
648.570220
 30
0.0
 10
913.592470
 20
648.570220
 30
0.0
  0
LWPOLYLINE
  5
1bd
100
AcDbEntity
  8
box
 62
7
100
AcDbPolyline
 90
4
 70
0
 10
927.092470
 20
648.570220
 30
0.0
 10
927.092470
 20
681.298220
 30
0.0
 10
913.592470
 20
681.298220
 30
0.0
 10
913.592470
 20
714.025220
 30
0.0
  0
LWPOLYLINE
  5
1be
100
AcDbEntity
  8
box
 62
7
100
AcDbPolyline
 90
2
 70
0
 10
927.092470
 20
714.025220
 30
0.0
 10
913.592470
 20
714.025220
 30
0.0
  0
LWPOLYLINE
  5
1bf
100
AcDbEntity
  8
box
 62
7
100
AcDbPolyline
 90
4
 70
0
 10
927.092470
 20
714.025220
 30
0.0
 10
927.092470
 20
746.752220
 30
0.0
 10
913.592470
 20
746.752220
 30
0.0
 10
913.592470
 20
779.479220
 30
0.0
  0
LWPOLYLINE
  5
1c0
100
AcDbEntity
  8
box
 62
7
100
AcDbPolyline
 90
4
 70
0
 10
37.607700
 20
1391.960200
 30
0.0
 10
37.607700
 20
1373.460200
 30
0.0
 10
24.107700
 20
1373.460200
 30
0.0
 10
24.107700
 20
1341.460200
 30
0.0
  0
LWPOLYLINE
  5
1c1
100
AcDbEntity
  8
box
 62
7
100
AcDbPolyline
 90
2
 70
0
 10
37.607700
 20
1341.460200
 30
0.0
 10
24.107700
 20
1341.460200
 30
0.0
  0
LWPOLYLINE
  5
1c2
100
AcDbEntity
  8
box
 62
7
100
AcDbPolyline
 90
4
 70
0
 10
37.607700
 20
1341.460200
 30
0.0
 10
37.607700
 20
1309.460200
 30
0.0
 10
24.107700
 20
1309.460200
 30
0.0
 10
24.107700
 20
1277.460200
 30
0.0
  0
LWPOLYLINE
  5
1c3
100
AcDbEntity
  8
box
 62
7
100
AcDbPolyline
 90
2
 70
0
 10
37.607700
 20
1277.460200
 30
0.0
 10
24.107700
 20
1277.460200
 30
0.0
  0
LWPOLYLINE
  5
1c4
100
AcDbEntity
  8
box
 62
7
100
AcDbPolyline
 90
4
 70
0
 10
37.607700
 20
1277.460200
 30
0.0
 10
37.607700
 20
1245.460200
 30
0.0
 10
24.107700
 20
1245.460200
 30
0.0
 10
24.107700
 20
1213.460200
 30
0.0
  0
LWPOLYLINE
  5
1c5
100
AcDbEntity
  8
box
 62
7
100
AcDbPolyline
 90
2
 70
0
 10
37.607700
 20
1213.460200
 30
0.0
 10
24.107700
 20
1213.460200
 30
0.0
  0
LWPOLYLINE
  5
1c6
100
AcDbEntity
  8
box
 62
7
100
AcDbPolyline
 90
4
 70
0
 10
37.607700
 20
1213.460200
 30
0.0
 10
37.607700
 20
1181.460200
 30
0.0
 10
24.107700
 20
1181.460200
 30
0.0
 10
24.107700
 20
1149.460200
 30
0.0
  0
LWPOLYLINE
  5
1c7
100
AcDbEntity
  8
box
 62
7
100
AcDbPolyline
 90
2
 70
0
 10
37.607700
 20
1149.460200
 30
0.0
 10
24.107700
 20
1149.460200
 30
0.0
  0
LWPOLYLINE
  5
1c8
100
AcDbEntity
  8
box
 62
7
100
AcDbPolyline
 90
2
 70
0
 10
37.607700
 20
1149.460200
 30
0.0
 10
37.607700
 20
1130.960200
 30
0.0
  0
LWPOLYLINE
  5
1c9
100
AcDbEntity
  8
box
 62
7
100
AcDbPolyline
 90
2
 70
0
 10
586.607700
 20
1391.960200
 30
0.0
 10
586.607700
 20
1373.460200
 30
0.0
  0
LWPOLYLINE
  5
1ca
100
AcDbEntity
  8
box
 62
7
100
AcDbPolyline
 90
2
 70
0
 10
600.107700
 20
1373.460200
 30
0.0
 10
586.607700
 20
1373.460200
 30
0.0
  0
LWPOLYLINE
  5
1cb
100
AcDbEntity
  8
box
 62
7
100
AcDbPolyline
 90
4
 70
0
 10
600.107700
 20
1373.460200
 30
0.0
 10
600.107700
 20
1341.460200
 30
0.0
 10
586.607700
 20
1341.460200
 30
0.0
 10
586.607700
 20
1309.460200
 30
0.0
  0
LWPOLYLINE
  5
1cc
100
AcDbEntity
  8
box
 62
7
100
AcDbPolyline
 90
2
 70
0
 10
600.107700
 20
1309.460200
 30
0.0
 10
586.607700
 20
1309.460200
 30
0.0
  0
LWPOLYLINE
  5
1cd
100
AcDbEntity
  8
box
 62
7
100
AcDbPolyline
 90
4
 70
0
 10
600.107700
 20
1309.460200
 30
0.0
 10
600.107700
 20
1277.460200
 30
0.0
 10
586.607700
 20
1277.460200
 30
0.0
 10
586.607700
 20
1245.460200
 30
0.0
  0
LWPOLYLINE
  5
1ce
100
AcDbEntity
  8
box
 62
7
100
AcDbPolyline
 90
2
 70
0
 10
600.107700
 20
1245.460200
 30
0.0
 10
586.607700
 20
1245.460200
 30
0.0
  0
LWPOLYLINE
  5
1cf
100
AcDbEntity
  8
box
 62
7
100
AcDbPolyline
 90
4
 70
0
 10
600.107700
 20
1245.460200
 30
0.0
 10
600.107700
 20
1213.460200
 30
0.0
 10
586.607700
 20
1213.460200
 30
0.0
 10
586.607700
 20
1181.460200
 30
0.0
  0
LWPOLYLINE
  5
1d0
100
AcDbEntity
  8
box
 62
7
100
AcDbPolyline
 90
2
 70
0
 10
600.107700
 20
1181.460200
 30
0.0
 10
586.607700
 20
1181.460200
 30
0.0
  0
LWPOLYLINE
  5
1d1
100
AcDbEntity
  8
box
 62
7
100
AcDbPolyline
 90
4
 70
0
 10
600.107700
 20
1181.460200
 30
0.0
 10
600.107700
 20
1149.460200
 30
0.0
 10
586.607700
 20
1149.460200
 30
0.0
 10
586.607700
 20
1130.960200
 30
0.0
  0
LWPOLYLINE
  5
1d2
100
AcDbEntity
  8
box
 62
7
100
AcDbPolyline
 90
4
 70
0
 10
37.607700
 20
1391.960200
 30
0.0
 10
57.989700
 20
1391.960200
 30
0.0
 10
57.989700
 20
1405.460200
 30
0.0
 10
91.872700
 20
1405.460200
 30
0.0
  0
LWPOLYLINE
  5
1d3
100
AcDbEntity
  8
box
 62
7
100
AcDbPolyline
 90
2
 70
0
 10
91.872700
 20
1391.960200
 30
0.0
 10
91.872700
 20
1405.460200
 30
0.0
  0
LWPOLYLINE
  5
1d4
100
AcDbEntity
  8
box
 62
7
100
AcDbPolyline
 90
4
 70
0
 10
91.872700
 20
1391.960200
 30
0.0
 10
125.754700
 20
1391.960200
 30
0.0
 10
125.754700
 20
1405.460200
 30
0.0
 10
159.636700
 20
1405.460200
 30
0.0
  0
LWPOLYLINE
  5
1d5
100
AcDbEntity
  8
box
 62
7
100
AcDbPolyline
 90
2
 70
0
 10
159.636700
 20
1391.960200
 30
0.0
 10
159.636700
 20
1405.460200
 30
0.0
  0
LWPOLYLINE
  5
1d6
100
AcDbEntity
  8
box
 62
7
100
AcDbPolyline
 90
4
 70
0
 10
159.636700
 20
1391.960200
 30
0.0
 10
193.519700
 20
1391.960200
 30
0.0
 10
193.519700
 20
1405.460200
 30
0.0
 10
227.401700
 20
1405.460200
 30
0.0
  0
LWPOLYLINE
  5
1d7
100
AcDbEntity
  8
box
 62
7
100
AcDbPolyline
 90
2
 70
0
 10
227.401700
 20
1391.960200
 30
0.0
 10
227.401700
 20
1405.460200
 30
0.0
  0
LWPOLYLINE
  5
1d8
100
AcDbEntity
  8
box
 62
7
100
AcDbPolyline
 90
4
 70
0
 10
227.401700
 20
1391.960200
 30
0.0
 10
261.283700
 20
1391.960200
 30
0.0
 10
261.283700
 20
1405.460200
 30
0.0
 10
295.166700
 20
1405.460200
 30
0.0
  0
LWPOLYLINE
  5
1d9
100
AcDbEntity
  8
box
 62
7
100
AcDbPolyline
 90
2
 70
0
 10
295.166700
 20
1391.960200
 30
0.0
 10
295.166700
 20
1405.460200
 30
0.0
  0
LWPOLYLINE
  5
1da
100
AcDbEntity
  8
box
 62
7
100
AcDbPolyline
 90
4
 70
0
 10
295.166700
 20
1391.960200
 30
0.0
 10
329.048700
 20
1391.960200
 30
0.0
 10
329.048700
 20
1405.460200
 30
0.0
 10
362.930700
 20
1405.460200
 30
0.0
  0
LWPOLYLINE
  5
1db
100
AcDbEntity
  8
box
 62
7
100
AcDbPolyline
 90
2
 70
0
 10
362.930700
 20
1391.960200
 30
0.0
 10
362.930700
 20
1405.460200
 30
0.0
  0
LWPOLYLINE
  5
1dc
100
AcDbEntity
  8
box
 62
7
100
AcDbPolyline
 90
4
 70
0
 10
362.930700
 20
1391.960200
 30
0.0
 10
396.813700
 20
1391.960200
 30
0.0
 10
396.813700
 20
1405.460200
 30
0.0
 10
430.695700
 20
1405.460200
 30
0.0
  0
LWPOLYLINE
  5
1dd
100
AcDbEntity
  8
box
 62
7
100
AcDbPolyline
 90
2
 70
0
 10
430.695700
 20
1391.960200
 30
0.0
 10
430.695700
 20
1405.460200
 30
0.0
  0
LWPOLYLINE
  5
1de
100
AcDbEntity
  8
box
 62
7
100
AcDbPolyline
 90
4
 70
0
 10
430.695700
 20
1391.960200
 30
0.0
 10
464.577700
 20
1391.960200
 30
0.0
 10
464.577700
 20
1405.460200
 30
0.0
 10
498.460700
 20
1405.460200
 30
0.0
  0
LWPOLYLINE
  5
1df
100
AcDbEntity
  8
box
 62
7
100
AcDbPolyline
 90
2
 70
0
 10
498.460700
 20
1391.960200
 30
0.0
 10
498.460700
 20
1405.460200
 30
0.0
  0
LWPOLYLINE
  5
1e0
100
AcDbEntity
  8
box
 62
7
100
AcDbPolyline
 90
4
 70
0
 10
498.460700
 20
1391.960200
 30
0.0
 10
532.342700
 20
1391.960200
 30
0.0
 10
532.342700
 20
1405.460200
 30
0.0
 10
566.224700
 20
1405.460200
 30
0.0
  0
LWPOLYLINE
  5
1e1
100
AcDbEntity
  8
box
 62
7
100
AcDbPolyline
 90
2
 70
0
 10
566.224700
 20
1391.960200
 30
0.0
 10
566.224700
 20
1405.460200
 30
0.0
  0
LWPOLYLINE
  5
1e2
100
AcDbEntity
  8
box
 62
7
100
AcDbPolyline
 90
2
 70
0
 10
566.224700
 20
1391.960200
 30
0.0
 10
586.607700
 20
1391.960200
 30
0.0
  0
LWPOLYLINE
  5
1e3
100
AcDbEntity
  8
box
 62
7
100
AcDbPolyline
 90
2
 70
0
 10
37.607700
 20
1130.960200
 30
0.0
 10
57.989700
 20
1130.960200
 30
0.0
  0
LWPOLYLINE
  5
1e4
100
AcDbEntity
  8
box
 62
7
100
AcDbPolyline
 90
2
 70
0
 10
57.989700
 20
1117.460200
 30
0.0
 10
57.989700
 20
1130.960200
 30
0.0
  0
LWPOLYLINE
  5
1e5
100
AcDbEntity
  8
box
 62
7
100
AcDbPolyline
 90
4
 70
0
 10
57.989700
 20
1117.460200
 30
0.0
 10
91.872700
 20
1117.460200
 30
0.0
 10
91.872700
 20
1130.960200
 30
0.0
 10
125.754700
 20
1130.960200
 30
0.0
  0
LWPOLYLINE
  5
1e6
100
AcDbEntity
  8
box
 62
7
100
AcDbPolyline
 90
2
 70
0
 10
125.754700
 20
1117.460200
 30
0.0
 10
125.754700
 20
1130.960200
 30
0.0
  0
LWPOLYLINE
  5
1e7
100
AcDbEntity
  8
box
 62
7
100
AcDbPolyline
 90
4
 70
0
 10
125.754700
 20
1117.460200
 30
0.0
 10
159.636700
 20
1117.460200
 30
0.0
 10
159.636700
 20
1130.960200
 30
0.0
 10
193.519700
 20
1130.960200
 30
0.0
  0
LWPOLYLINE
  5
1e8
100
AcDbEntity
  8
box
 62
7
100
AcDbPolyline
 90
2
 70
0
 10
193.519700
 20
1117.460200
 30
0.0
 10
193.519700
 20
1130.960200
 30
0.0
  0
LWPOLYLINE
  5
1e9
100
AcDbEntity
  8
box
 62
7
100
AcDbPolyline
 90
4
 70
0
 10
193.519700
 20
1117.460200
 30
0.0
 10
227.401700
 20
1117.460200
 30
0.0
 10
227.401700
 20
1130.960200
 30
0.0
 10
261.283700
 20
1130.960200
 30
0.0
  0
LWPOLYLINE
  5
1ea
100
AcDbEntity
  8
box
 62
7
100
AcDbPolyline
 90
2
 70
0
 10
261.283700
 20
1117.460200
 30
0.0
 10
261.283700
 20
1130.960200
 30
0.0
  0
LWPOLYLINE
  5
1eb
100
AcDbEntity
  8
box
 62
7
100
AcDbPolyline
 90
4
 70
0
 10
261.283700
 20
1117.460200
 30
0.0
 10
295.166700
 20
1117.460200
 30
0.0
 10
295.166700
 20
1130.960200
 30
0.0
 10
329.048700
 20
1130.960200
 30
0.0
  0
LWPOLYLINE
  5
1ec
100
AcDbEntity
  8
box
 62
7
100
AcDbPolyline
 90
2
 70
0
 10
329.048700
 20
1117.460200
 30
0.0
 10
329.048700
 20
1130.960200
 30
0.0
  0
LWPOLYLINE
  5
1ed
100
AcDbEntity
  8
box
 62
7
100
AcDbPolyline
 90
4
 70
0
 10
329.048700
 20
1117.460200
 30
0.0
 10
362.930700
 20
1117.460200
 30
0.0
 10
362.930700
 20
1130.960200
 30
0.0
 10
396.813700
 20
1130.960200
 30
0.0
  0
LWPOLYLINE
  5
1ee
100
AcDbEntity
  8
box
 62
7
100
AcDbPolyline
 90
2
 70
0
 10
396.813700
 20
1117.460200
 30
0.0
 10
396.813700
 20
1130.960200
 30
0.0
  0
LWPOLYLINE
  5
1ef
100
AcDbEntity
  8
box
 62
7
100
AcDbPolyline
 90
4
 70
0
 10
396.813700
 20
1117.460200
 30
0.0
 10
430.695700
 20
1117.460200
 30
0.0
 10
430.695700
 20
1130.960200
 30
0.0
 10
464.577700
 20
1130.960200
 30
0.0
  0
LWPOLYLINE
  5
1f0
100
AcDbEntity
  8
box
 62
7
100
AcDbPolyline
 90
2
 70
0
 10
464.577700
 20
1117.460200
 30
0.0
 10
464.577700
 20
1130.960200
 30
0.0
  0
LWPOLYLINE
  5
1f1
100
AcDbEntity
  8
box
 62
7
100
AcDbPolyline
 90
4
 70
0
 10
464.577700
 20
1117.460200
 30
0.0
 10
498.460700
 20
1117.460200
 30
0.0
 10
498.460700
 20
1130.960200
 30
0.0
 10
532.342700
 20
1130.960200
 30
0.0
  0
LWPOLYLINE
  5
1f2
100
AcDbEntity
  8
box
 62
7
100
AcDbPolyline
 90
2
 70
0
 10
532.342700
 20
1117.460200
 30
0.0
 10
532.342700
 20
1130.960200
 30
0.0
  0
SPLINE
  5
1f3
100
AcDbEntity
  8
box
 62
7
100
AcDbSpline
 70
8
 71
3
 72
8
 73
4
 74
0
 40
0
 40
0
 40
0
 40
0
 40
1
 40
1
 40
1
 40
1
 10
552.003920
 20
1294.924200
 30
0.0
 10
552.222550
 20
1288.003200
 30
0.0
 10
552.763170
 20
1281.011700
 30
0.0
 10
548.510330
 20
1275.074200
 30
0.0
  0
SPLINE
  5
1f4
100
AcDbEntity
  8
box
 62
7
100
AcDbSpline
 70
8
 71
3
 72
8
 73
4
 74
0
 40
0
 40
0
 40
0
 40
0
 40
1
 40
1
 40
1
 40
1
 10
548.510330
 20
1275.074200
 30
0.0
 10
545.112830
 20
1267.714700
 30
0.0
 10
542.418280
 20
1259.848400
 30
0.0
 10
535.412450
 20
1255.090200
 30
0.0
  0
SPLINE
  5
1f5
100
AcDbEntity
  8
box
 62
7
100
AcDbSpline
 70
8
 71
3
 72
8
 73
4
 74
0
 40
0
 40
0
 40
0
 40
0
 40
1
 40
1
 40
1
 40
1
 10
535.412450
 20
1255.090200
 30
0.0
 10
528.565260
 20
1249.631200
 30
0.0
 10
523.663120
 20
1240.741000
 30
0.0
 10
514.244400
 20
1239.818100
 30
0.0
  0
SPLINE
  5
1f6
100
AcDbEntity
  8
box
 62
7
100
AcDbSpline
 70
8
 71
3
 72
8
 73
4
 74
0
 40
0
 40
0
 40
0
 40
0
 40
1
 40
1
 40
1
 40
1
 10
514.244400
 20
1239.818100
 30
0.0
 10
505.161820
 20
1237.881200
 30
0.0
 10
496.283530
 20
1232.678500
 30
0.0
 10
486.890600
 20
1235.715400
 30
0.0
  0
SPLINE
  5
1f7
100
AcDbEntity
  8
box
 62
7
100
AcDbSpline
 70
8
 71
3
 72
8
 73
4
 74
0
 40
0
 40
0
 40
0
 40
0
 40
1
 40
1
 40
1
 40
1
 10
486.890600
 20
1235.715400
 30
0.0
 10
476.281450
 20
1237.260400
 30
0.0
 10
465.706250
 20
1239.032600
 30
0.0
 10
455.176720
 20
1241.051000
 30
0.0
  0
SPLINE
  5
1f8
100
AcDbEntity
  8
box
 62
7
100
AcDbSpline
 70
8
 71
3
 72
8
 73
4
 74
0
 40
0
 40
0
 40
0
 40
0
 40
1
 40
1
 40
1
 40
1
 10
455.176720
 20
1241.051000
 30
0.0
 10
448.423130
 20
1224.997400
 30
0.0
 10
442.288080
 20
1208.449900
 30
0.0
 10
434.611230
 20
1192.936600
 30
0.0
  0
SPLINE
  5
1f9
100
AcDbEntity
  8
box
 62
7
100
AcDbSpline
 70
8
 71
3
 72
8
 73
4
 74
0
 40
0
 40
0
 40
0
 40
0
 40
1
 40
1
 40
1
 40
1
 10
434.611230
 20
1192.936600
 30
0.0
 10
426.931930
 20
1185.836400
 30
0.0
 10
419.861240
 20
1177.689600
 30
0.0
 10
411.800520
 20
1171.245600
 30
0.0
  0
SPLINE
  5
1fa
100
AcDbEntity
  8
box
 62
7
100
AcDbSpline
 70
8
 71
3
 72
8
 73
4
 74
0
 40
0
 40
0
 40
0
 40
0
 40
1
 40
1
 40
1
 40
1
 10
411.800520
 20
1171.245600
 30
0.0
 10
402.420820
 20
1168.895300
 30
0.0
 10
393.049590
 20
1165.187800
 30
0.0
 10
383.665000
 20
1163.674500
 30
0.0
  0
SPLINE
  5
1fb
100
AcDbEntity
  8
box
 62
7
100
AcDbSpline
 70
8
 71
3
 72
8
 73
4
 74
0
 40
0
 40
0
 40
0
 40
0
 40
1
 40
1
 40
1
 40
1
 10
383.665000
 20
1163.674500
 30
0.0
 10
375.633080
 20
1165.327300
 30
0.0
 10
367.677700
 20
1169.156300
 30
0.0
 10
359.595760
 20
1169.397300
 30
0.0
  0
SPLINE
  5
1fc
100
AcDbEntity
  8
box
 62
7
100
AcDbSpline
 70
8
 71
3
 72
8
 73
4
 74
0
 40
0
 40
0
 40
0
 40
0
 40
1
 40
1
 40
1
 40
1
 10
359.595760
 20
1169.397300
 30
0.0
 10
354.289190
 20
1167.108000
 30
0.0
 10
347.656670
 20
1167.427000
 30
0.0
 10
349.327050
 20
1174.350900
 30
0.0
  0
SPLINE
  5
1fd
100
AcDbEntity
  8
box
 62
7
100
AcDbSpline
 70
8
 71
3
 72
8
 73
4
 74
0
 40
0
 40
0
 40
0
 40
0
 40
1
 40
1
 40
1
 40
1
 10
349.327050
 20
1174.350900
 30
0.0
 10
353.594870
 20
1178.293800
 30
0.0
 10
356.209400
 20
1185.378000
 30
0.0
 10
363.093580
 20
1184.350600
 30
0.0
  0
SPLINE
  5
1fe
100
AcDbEntity
  8
box
 62
7
100
AcDbSpline
 70
8
 71
3
 72
8
 73
4
 74
0
 40
0
 40
0
 40
0
 40
0
 40
1
 40
1
 40
1
 40
1
 10
363.093580
 20
1184.350600
 30
0.0
 10
373.999650
 20
1185.774600
 30
0.0
 10
385.237190
 20
1186.486100
 30
0.0
 10
395.442430
 20
1190.902200
 30
0.0
  0
SPLINE
  5
1ff
100
AcDbEntity
  8
box
 62
7
100
AcDbSpline
 70
8
 71
3
 72
8
 73
4
 74
0
 40
0
 40
0
 40
0
 40
0
 40
1
 40
1
 40
1
 40
1
 10
395.442430
 20
1190.902200
 30
0.0
 10
397.670530
 20
1196.461700
 30
0.0
 10
400.199220
 20
1207.702500
 30
0.0
 10
390.854650
 20
1206.154100
 30
0.0
  0
SPLINE
  5
200
100
AcDbEntity
  8
box
 62
7
100
AcDbSpline
 70
8
 71
3
 72
8
 73
4
 74
0
 40
0
 40
0
 40
0
 40
0
 40
1
 40
1
 40
1
 40
1
 10
390.854650
 20
1206.154100
 30
0.0
 10
382.754900
 20
1207.589500
 30
0.0
 10
374.666370
 20
1208.688600
 30
0.0
 10
366.703310
 20
1205.933500
 30
0.0
  0
SPLINE
  5
201
100
AcDbEntity
  8
box
 62
7
100
AcDbSpline
 70
8
 71
3
 72
8
 73
4
 74
0
 40
0
 40
0
 40
0
 40
0
 40
1
 40
1
 40
1
 40
1
 10
366.703310
 20
1205.933500
 30
0.0
 10
360.172330
 20
1205.644400
 30
0.0
 10
354.970630
 20
1202.439500
 30
0.0
 10
350.277260
 20
1198.121000
 30
0.0
  0
SPLINE
  5
202
100
AcDbEntity
  8
box
 62
7
100
AcDbSpline
 70
8
 71
3
 72
8
 73
4
 74
0
 40
0
 40
0
 40
0
 40
0
 40
1
 40
1
 40
1
 40
1
 10
350.277260
 20
1198.121000
 30
0.0
 10
342.182540
 20
1193.436700
 30
0.0
 10
341.475030
 20
1182.998000
 30
0.0
 10
337.134480
 20
1175.389500
 30
0.0
  0
SPLINE
  5
203
100
AcDbEntity
  8
box
 62
7
100
AcDbSpline
 70
8
 71
3
 72
8
 73
4
 74
0
 40
0
 40
0
 40
0
 40
0
 40
1
 40
1
 40
1
 40
1
 10
337.134480
 20
1175.389500
 30
0.0
 10
336.766100
 20
1169.438900
 30
0.0
 10
328.159190
 20
1165.599200
 30
0.0
 10
329.170570
 20
1174.004000
 30
0.0
  0
SPLINE
  5
204
100
AcDbEntity
  8
box
 62
7
100
AcDbSpline
 70
8
 71
3
 72
8
 73
4
 74
0
 40
0
 40
0
 40
0
 40
0
 40
1
 40
1
 40
1
 40
1
 10
329.170570
 20
1174.004000
 30
0.0
 10
327.337920
 20
1181.912800
 30
0.0
 10
325.424910
 20
1189.818900
 30
0.0
 10
327.730280
 20
1197.850800
 30
0.0
  0
SPLINE
  5
205
100
AcDbEntity
  8
box
 62
7
100
AcDbSpline
 70
8
 71
3
 72
8
 73
4
 74
0
 40
0
 40
0
 40
0
 40
0
 40
1
 40
1
 40
1
 40
1
 10
327.730280
 20
1197.850800
 30
0.0
 10
328.251820
 20
1205.345900
 30
0.0
 10
334.829750
 20
1210.533600
 30
0.0
 10
338.170510
 20
1216.954800
 30
0.0
  0
SPLINE
  5
206
100
AcDbEntity
  8
box
 62
7
100
AcDbSpline
 70
8
 71
3
 72
8
 73
4
 74
0
 40
0
 40
0
 40
0
 40
0
 40
1
 40
1
 40
1
 40
1
 10
338.170510
 20
1216.954800
 30
0.0
 10
348.078110
 20
1223.504400
 30
0.0
 10
356.760790
 20
1232.409600
 30
0.0
 10
368.724420
 20
1235.005300
 30
0.0
  0
SPLINE
  5
207
100
AcDbEntity
  8
box
 62
7
100
AcDbSpline
 70
8
 71
3
 72
8
 73
4
 74
0
 40
0
 40
0
 40
0
 40
0
 40
1
 40
1
 40
1
 40
1
 10
368.724420
 20
1235.005300
 30
0.0
 10
377.285740
 20
1238.001100
 30
0.0
 10
385.847320
 20
1240.997000
 30
0.0
 10
394.408860
 20
1243.992600
 30
0.0
  0
SPLINE
  5
208
100
AcDbEntity
  8
box
 62
7
100
AcDbSpline
 70
8
 71
3
 72
8
 73
4
 74
0
 40
0
 40
0
 40
0
 40
0
 40
1
 40
1
 40
1
 40
1
 10
394.408860
 20
1243.992600
 30
0.0
 10
393.522600
 20
1250.124200
 30
0.0
 10
390.033080
 20
1253.772900
 30
0.0
 10
383.919670
 20
1254.918500
 30
0.0
  0
SPLINE
  5
209
100
AcDbEntity
  8
box
 62
7
100
AcDbSpline
 70
8
 71
3
 72
8
 73
4
 74
0
 40
0
 40
0
 40
0
 40
0
 40
1
 40
1
 40
1
 40
1
 10
383.919670
 20
1254.918500
 30
0.0
 10
377.653370
 20
1257.779000
 30
0.0
 10
371.354800
 20
1260.449800
 30
0.0
 10
364.342770
 20
1258.945300
 30
0.0
  0
SPLINE
  5
20a
100
AcDbEntity
  8
box
 62
7
100
AcDbSpline
 70
8
 71
3
 72
8
 73
4
 74
0
 40
0
 40
0
 40
0
 40
0
 40
1
 40
1
 40
1
 40
1
 10
364.342770
 20
1258.945300
 30
0.0
 10
358.400210
 20
1259.510700
 30
0.0
 10
353.169270
 20
1257.949200
 30
0.0
 10
348.793760
 20
1253.826900
 30
0.0
  0
SPLINE
  5
20b
100
AcDbEntity
  8
box
 62
7
100
AcDbSpline
 70
8
 71
3
 72
8
 73
4
 74
0
 40
0
 40
0
 40
0
 40
0
 40
1
 40
1
 40
1
 40
1
 10
348.793760
 20
1253.826900
 30
0.0
 10
343.131590
 20
1250.583700
 30
0.0
 10
338.208170
 20
1246.648600
 30
0.0
 10
335.740570
 20
1240.411700
 30
0.0
  0
SPLINE
  5
20c
100
AcDbEntity
  8
box
 62
7
100
AcDbSpline
 70
8
 71
3
 72
8
 73
4
 74
0
 40
0
 40
0
 40
0
 40
0
 40
1
 40
1
 40
1
 40
1
 10
335.740570
 20
1240.411700
 30
0.0
 10
328.158520
 20
1229.132500
 30
0.0
 10
326.883510
 20
1215.113400
 30
0.0
 10
322.379120
 20
1202.497400
 30
0.0
  0
SPLINE
  5
20d
100
AcDbEntity
  8
box
 62
7
100
AcDbSpline
 70
8
 71
3
 72
8
 73
4
 74
0
 40
0
 40
0
 40
0
 40
0
 40
1
 40
1
 40
1
 40
1
 10
322.379120
 20
1202.497400
 30
0.0
 10
319.186130
 20
1193.170300
 30
0.0
 10
317.597750
 20
1183.047500
 30
0.0
 10
313.427650
 20
1174.205400
 30
0.0
  0
SPLINE
  5
20e
100
AcDbEntity
  8
box
 62
7
100
AcDbSpline
 70
8
 71
3
 72
8
 73
4
 74
0
 40
0
 40
0
 40
0
 40
0
 40
1
 40
1
 40
1
 40
1
 10
313.427650
 20
1174.205400
 30
0.0
 10
308.334180
 20
1168.193500
 30
0.0
 10
305.217610
 20
1159.693400
 30
0.0
 10
296.752470
 20
1157.926000
 30
0.0
  0
SPLINE
  5
20f
100
AcDbEntity
  8
box
 62
7
100
AcDbSpline
 70
8
 71
3
 72
8
 73
4
 74
0
 40
0
 40
0
 40
0
 40
0
 40
1
 40
1
 40
1
 40
1
 10
296.752470
 20
1157.926000
 30
0.0
 10
287.149920
 20
1154.598600
 30
0.0
 10
278.356350
 20
1147.510300
 30
0.0
 10
267.744870
 20
1148.872200
 30
0.0
  0
SPLINE
  5
210
100
AcDbEntity
  8
box
 62
7
100
AcDbSpline
 70
8
 71
3
 72
8
 73
4
 74
0
 40
0
 40
0
 40
0
 40
0
 40
1
 40
1
 40
1
 40
1
 10
267.744870
 20
1148.872200
 30
0.0
 10
260.420480
 20
1149.070600
 30
0.0
 10
252.559180
 20
1147.007600
 30
0.0
 10
246.394800
 20
1152.089000
 30
0.0
  0
SPLINE
  5
211
100
AcDbEntity
  8
box
 62
7
100
AcDbSpline
 70
8
 71
3
 72
8
 73
4
 74
0
 40
0
 40
0
 40
0
 40
0
 40
1
 40
1
 40
1
 40
1
 10
246.394800
 20
1152.089000
 30
0.0
 10
240.031880
 20
1155.902200
 30
0.0
 10
232.275290
 20
1158.511500
 30
0.0
 10
226.778520
 20
1163.073300
 30
0.0
  0
SPLINE
  5
212
100
AcDbEntity
  8
box
 62
7
100
AcDbSpline
 70
8
 71
3
 72
8
 73
4
 74
0
 40
0
 40
0
 40
0
 40
0
 40
1
 40
1
 40
1
 40
1
 10
226.778520
 20
1163.073300
 30
0.0
 10
222.027770
 20
1173.510800
 30
0.0
 10
239.780260
 20
1168.741300
 30
0.0
 10
246.117660
 20
1170.770700
 30
0.0
  0
SPLINE
  5
213
100
AcDbEntity
  8
box
 62
7
100
AcDbSpline
 70
8
 71
3
 72
8
 73
4
 74
0
 40
0
 40
0
 40
0
 40
0
 40
1
 40
1
 40
1
 40
1
 10
246.117660
 20
1170.770700
 30
0.0
 10
255.071240
 20
1170.822700
 30
0.0
 10
263.045830
 20
1175.485200
 30
0.0
 10
271.491150
 20
1177.930500
 30
0.0
  0
SPLINE
  5
214
100
AcDbEntity
  8
box
 62
7
100
AcDbSpline
 70
8
 71
3
 72
8
 73
4
 74
0
 40
0
 40
0
 40
0
 40
0
 40
1
 40
1
 40
1
 40
1
 10
271.491150
 20
1177.930500
 30
0.0
 10
273.233190
 20
1183.841000
 30
0.0
 10
279.373890
 20
1189.573300
 30
0.0
 10
275.291280
 20
1195.720000
 30
0.0
  0
SPLINE
  5
215
100
AcDbEntity
  8
box
 62
7
100
AcDbSpline
 70
8
 71
3
 72
8
 73
4
 74
0
 40
0
 40
0
 40
0
 40
0
 40
1
 40
1
 40
1
 40
1
 10
275.291280
 20
1195.720000
 30
0.0
 10
274.666200
 20
1203.168600
 30
0.0
 10
266.068040
 20
1203.264400
 30
0.0
 10
260.854970
 20
1206.482000
 30
0.0
  0
SPLINE
  5
216
100
AcDbEntity
  8
box
 62
7
100
AcDbSpline
 70
8
 71
3
 72
8
 73
4
 74
0
 40
0
 40
0
 40
0
 40
0
 40
1
 40
1
 40
1
 40
1
 10
260.854970
 20
1206.482000
 30
0.0
 10
247.527700
 20
1201.051500
 30
0.0
 10
239.490540
 20
1187.544500
 30
0.0
 10
228.419410
 20
1178.996700
 30
0.0
  0
SPLINE
  5
217
100
AcDbEntity
  8
box
 62
7
100
AcDbSpline
 70
8
 71
3
 72
8
 73
4
 74
0
 40
0
 40
0
 40
0
 40
0
 40
1
 40
1
 40
1
 40
1
 10
228.419410
 20
1178.996700
 30
0.0
 10
220.513380
 20
1176.868100
 30
0.0
 10
212.778320
 20
1172.248700
 30
0.0
 10
204.760930
 20
1171.740800
 30
0.0
  0
SPLINE
  5
218
100
AcDbEntity
  8
box
 62
7
100
AcDbSpline
 70
8
 71
3
 72
8
 73
4
 74
0
 40
0
 40
0
 40
0
 40
0
 40
1
 40
1
 40
1
 40
1
 10
204.760930
 20
1171.740800
 30
0.0
 10
190.533150
 20
1173.779000
 30
0.0
 10
177.793430
 20
1180.738800
 30
0.0
 10
165.266020
 20
1187.392000
 30
0.0
  0
SPLINE
  5
219
100
AcDbEntity
  8
box
 62
7
100
AcDbSpline
 70
8
 71
3
 72
8
 73
4
 74
0
 40
0
 40
0
 40
0
 40
0
 40
1
 40
1
 40
1
 40
1
 10
165.266020
 20
1187.392000
 30
0.0
 10
158.706020
 20
1185.252200
 30
0.0
 10
150.061430
 20
1174.695400
 30
0.0
 10
145.867180
 20
1176.901500
 30
0.0
  0
SPLINE
  5
21a
100
AcDbEntity
  8
box
 62
7
100
AcDbSpline
 70
8
 71
3
 72
8
 73
4
 74
0
 40
0
 40
0
 40
0
 40
0
 40
1
 40
1
 40
1
 40
1
 10
145.867180
 20
1176.901500
 30
0.0
 10
142.350130
 20
1182.042600
 30
0.0
 10
145.172600
 20
1186.863000
 30
0.0
 10
147.738840
 20
1191.697400
 30
0.0
  0
SPLINE
  5
21b
100
AcDbEntity
  8
box
 62
7
100
AcDbSpline
 70
8
 71
3
 72
8
 73
4
 74
0
 40
0
 40
0
 40
0
 40
0
 40
1
 40
1
 40
1
 40
1
 10
147.738840
 20
1191.697400
 30
0.0
 10
149.797760
 20
1197.336600
 30
0.0
 10
152.668510
 20
1202.324300
 30
0.0
 10
158.139990
 20
1205.223900
 30
0.0
  0
SPLINE
  5
21c
100
AcDbEntity
  8
box
 62
7
100
AcDbSpline
 70
8
 71
3
 72
8
 73
4
 74
0
 40
0
 40
0
 40
0
 40
0
 40
1
 40
1
 40
1
 40
1
 10
158.139990
 20
1205.223900
 30
0.0
 10
164.989600
 20
1212.789100
 30
0.0
 10
175.938460
 20
1211.389400
 30
0.0
 10
185.200250
 20
1211.990800
 30
0.0
  0
SPLINE
  5
21d
100
AcDbEntity
  8
box
 62
7
100
AcDbSpline
 70
8
 71
3
 72
8
 73
4
 74
0
 40
0
 40
0
 40
0
 40
0
 40
1
 40
1
 40
1
 40
1
 10
185.200250
 20
1211.990800
 30
0.0
 10
193.705470
 20
1213.799700
 30
0.0
 10
212.327940
 20
1206.575700
 30
0.0
 10
215.509720
 20
1216.555400
 30
0.0
  0
SPLINE
  5
21e
100
AcDbEntity
  8
box
 62
7
100
AcDbSpline
 70
8
 71
3
 72
8
 73
4
 74
0
 40
0
 40
0
 40
0
 40
0
 40
1
 40
1
 40
1
 40
1
 10
215.509720
 20
1216.555400
 30
0.0
 10
215.791910
 20
1222.372900
 30
0.0
 10
209.824050
 20
1226.290200
 30
0.0
 10
207.449520
 20
1231.300200
 30
0.0
  0
SPLINE
  5
21f
100
AcDbEntity
  8
box
 62
7
100
AcDbSpline
 70
8
 71
3
 72
8
 73
4
 74
0
 40
0
 40
0
 40
0
 40
0
 40
1
 40
1
 40
1
 40
1
 10
207.449520
 20
1231.300200
 30
0.0
 10
199.566870
 20
1234.347600
 30
0.0
 10
192.422090
 20
1240.965400
 30
0.0
 10
183.498280
 20
1238.970100
 30
0.0
  0
SPLINE
  5
220
100
AcDbEntity
  8
box
 62
7
100
AcDbSpline
 70
8
 71
3
 72
8
 73
4
 74
0
 40
0
 40
0
 40
0
 40
0
 40
1
 40
1
 40
1
 40
1
 10
183.498280
 20
1238.970100
 30
0.0
 10
176.331210
 20
1241.083900
 30
0.0
 10
162.663870
 20
1231.755700
 30
0.0
 10
161.836290
 20
1243.225400
 30
0.0
  0
SPLINE
  5
221
100
AcDbEntity
  8
box
 62
7
100
AcDbSpline
 70
8
 71
3
 72
8
 73
4
 74
0
 40
0
 40
0
 40
0
 40
0
 40
1
 40
1
 40
1
 40
1
 10
161.836290
 20
1243.225400
 30
0.0
 10
168.439820
 20
1249.343700
 30
0.0
 10
173.856700
 20
1257.261900
 30
0.0
 10
181.210680
 20
1262.241300
 30
0.0
  0
SPLINE
  5
222
100
AcDbEntity
  8
box
 62
7
100
AcDbSpline
 70
8
 71
3
 72
8
 73
4
 74
0
 40
0
 40
0
 40
0
 40
0
 40
1
 40
1
 40
1
 40
1
 10
181.210680
 20
1262.241300
 30
0.0
 10
188.098310
 20
1264.311800
 30
0.0
 10
195.102180
 20
1268.478000
 30
0.0
 10
201.920060
 20
1269.295100
 30
0.0
  0
SPLINE
  5
223
100
AcDbEntity
  8
box
 62
7
100
AcDbSpline
 70
8
 71
3
 72
8
 73
4
 74
0
 40
0
 40
0
 40
0
 40
0
 40
1
 40
1
 40
1
 40
1
 10
201.920060
 20
1269.295100
 30
0.0
 10
214.304770
 20
1263.451500
 30
0.0
 10
226.196680
 20
1256.031300
 30
0.0
 10
238.889490
 20
1251.173300
 30
0.0
  0
SPLINE
  5
224
100
AcDbEntity
  8
box
 62
7
100
AcDbSpline
 70
8
 71
3
 72
8
 73
4
 74
0
 40
0
 40
0
 40
0
 40
0
 40
1
 40
1
 40
1
 40
1
 10
238.889490
 20
1251.173300
 30
0.0
 10
247.225440
 20
1250.454600
 30
0.0
 10
257.865270
 20
1247.004400
 30
0.0
 10
264.730780
 20
1252.402100
 30
0.0
  0
SPLINE
  5
225
100
AcDbEntity
  8
box
 62
7
100
AcDbSpline
 70
8
 71
3
 72
8
 73
4
 74
0
 40
0
 40
0
 40
0
 40
0
 40
1
 40
1
 40
1
 40
1
 10
264.730780
 20
1252.402100
 30
0.0
 10
269.208500
 20
1258.199500
 30
0.0
 10
263.893740
 20
1262.813100
 30
0.0
 10
260.706860
 20
1267.684000
 30
0.0
  0
SPLINE
  5
226
100
AcDbEntity
  8
box
 62
7
100
AcDbSpline
 70
8
 71
3
 72
8
 73
4
 74
0
 40
0
 40
0
 40
0
 40
0
 40
1
 40
1
 40
1
 40
1
 10
260.706860
 20
1267.684000
 30
0.0
 10
254.974330
 20
1274.848700
 30
0.0
 10
251.055360
 20
1282.930600
 30
0.0
 10
248.598250
 20
1291.751900
 30
0.0
  0
SPLINE
  5
227
100
AcDbEntity
  8
box
 62
7
100
AcDbSpline
 70
8
 71
3
 72
8
 73
4
 74
0
 40
0
 40
0
 40
0
 40
0
 40
1
 40
1
 40
1
 40
1
 10
248.598250
 20
1291.751900
 30
0.0
 10
246.746250
 20
1297.760900
 30
0.0
 10
248.862500
 20
1304.330100
 30
0.0
 10
248.683350
 20
1310.575000
 30
0.0
  0
SPLINE
  5
228
100
AcDbEntity
  8
box
 62
7
100
AcDbSpline
 70
8
 71
3
 72
8
 73
4
 74
0
 40
0
 40
0
 40
0
 40
0
 40
1
 40
1
 40
1
 40
1
 10
248.683350
 20
1310.575000
 30
0.0
 10
254.202160
 20
1314.700500
 30
0.0
 10
257.687050
 20
1308.910700
 30
0.0
 10
261.672610
 20
1305.559700
 30
0.0
  0
SPLINE
  5
229
100
AcDbEntity
  8
box
 62
7
100
AcDbSpline
 70
8
 71
3
 72
8
 73
4
 74
0
 40
0
 40
0
 40
0
 40
0
 40
1
 40
1
 40
1
 40
1
 10
261.672610
 20
1305.559700
 30
0.0
 10
267.394050
 20
1300.554700
 30
0.0
 10
272.418340
 20
1294.303800
 30
0.0
 10
280.490300
 20
1293.498300
 30
0.0
  0
SPLINE
  5
22a
100
AcDbEntity
  8
box
 62
7
100
AcDbSpline
 70
8
 71
3
 72
8
 73
4
 74
0
 40
0
 40
0
 40
0
 40
0
 40
1
 40
1
 40
1
 40
1
 10
280.490300
 20
1293.498300
 30
0.0
 10
288.443710
 20
1290.681000
 30
0.0
 10
296.491730
 20
1288.589700
 30
0.0
 10
304.978720
 20
1289.864700
 30
0.0
  0
SPLINE
  5
22b
100
AcDbEntity
  8
box
 62
7
100
AcDbSpline
 70
8
 71
3
 72
8
 73
4
 74
0
 40
0
 40
0
 40
0
 40
0
 40
1
 40
1
 40
1
 40
1
 10
304.978720
 20
1289.864700
 30
0.0
 10
311.357260
 20
1290.541800
 30
0.0
 10
318.808150
 20
1288.307200
 30
0.0
 10
323.257100
 20
1294.221800
 30
0.0
  0
SPLINE
  5
22c
100
AcDbEntity
  8
box
 62
7
100
AcDbSpline
 70
8
 71
3
 72
8
 73
4
 74
0
 40
0
 40
0
 40
0
 40
0
 40
1
 40
1
 40
1
 40
1
 10
323.257100
 20
1294.221800
 30
0.0
 10
330.554690
 20
1296.910700
 30
0.0
 10
326.459060
 20
1302.872200
 30
0.0
 10
324.680550
 20
1308.168100
 30
0.0
  0
SPLINE
  5
22d
100
AcDbEntity
  8
box
 62
7
100
AcDbSpline
 70
8
 71
3
 72
8
 73
4
 74
0
 40
0
 40
0
 40
0
 40
0
 40
1
 40
1
 40
1
 40
1
 10
324.680550
 20
1308.168100
 30
0.0
 10
316.868600
 20
1309.290800
 30
0.0
 10
308.873400
 20
1314.994200
 30
0.0
 10
301.285260
 20
1310.539300
 30
0.0
  0
SPLINE
  5
22e
100
AcDbEntity
  8
box
 62
7
100
AcDbSpline
 70
8
 71
3
 72
8
 73
4
 74
0
 40
0
 40
0
 40
0
 40
0
 40
1
 40
1
 40
1
 40
1
 10
301.285260
 20
1310.539300
 30
0.0
 10
297.169860
 20
1310.436500
 30
0.0
 10
289.608820
 20
1303.179000
 30
0.0
 10
288.526820
 20
1309.375700
 30
0.0
  0
SPLINE
  5
22f
100
AcDbEntity
  8
box
 62
7
100
AcDbSpline
 70
8
 71
3
 72
8
 73
4
 74
0
 40
0
 40
0
 40
0
 40
0
 40
1
 40
1
 40
1
 40
1
 10
288.526820
 20
1309.375700
 30
0.0
 10
285.963540
 20
1314.653100
 30
0.0
 10
293.269120
 20
1318.545300
 30
0.0
 10
295.188390
 20
1323.193700
 30
0.0
  0
SPLINE
  5
230
100
AcDbEntity
  8
box
 62
7
100
AcDbSpline
 70
8
 71
3
 72
8
 73
4
 74
0
 40
0
 40
0
 40
0
 40
0
 40
1
 40
1
 40
1
 40
1
 10
295.188390
 20
1323.193700
 30
0.0
 10
298.988540
 20
1329.470900
 30
0.0
 10
307.683900
 20
1329.584200
 30
0.0
 10
313.698260
 20
1333.073700
 30
0.0
  0
SPLINE
  5
231
100
AcDbEntity
  8
box
 62
7
100
AcDbSpline
 70
8
 71
3
 72
8
 73
4
 74
0
 40
0
 40
0
 40
0
 40
0
 40
1
 40
1
 40
1
 40
1
 10
313.698260
 20
1333.073700
 30
0.0
 10
320.913470
 20
1336.259900
 30
0.0
 10
328.134320
 20
1339.573500
 30
0.0
 10
336.228110
 20
1338.381600
 30
0.0
  0
SPLINE
  5
232
100
AcDbEntity
  8
box
 62
7
100
AcDbSpline
 70
8
 71
3
 72
8
 73
4
 74
0
 40
0
 40
0
 40
0
 40
0
 40
1
 40
1
 40
1
 40
1
 10
336.228110
 20
1338.381600
 30
0.0
 10
346.459130
 20
1337.178400
 30
0.0
 10
357.480250
 20
1336.031500
 30
0.0
 10
366.744490
 20
1331.418200
 30
0.0
  0
SPLINE
  5
233
100
AcDbEntity
  8
box
 62
7
100
AcDbSpline
 70
8
 71
3
 72
8
 73
4
 74
0
 40
0
 40
0
 40
0
 40
0
 40
1
 40
1
 40
1
 40
1
 10
366.744490
 20
1331.418200
 30
0.0
 10
384.310810
 20
1320.129400
 30
0.0
 10
401.729690
 20
1306.856000
 30
0.0
 10
422.300370
 20
1302.168200
 30
0.0
  0
SPLINE
  5
234
100
AcDbEntity
  8
box
 62
7
100
AcDbSpline
 70
8
 71
3
 72
8
 73
4
 74
0
 40
0
 40
0
 40
0
 40
0
 40
1
 40
1
 40
1
 40
1
 10
422.300370
 20
1302.168200
 30
0.0
 10
434.890250
 20
1316.740600
 30
0.0
 10
441.346070
 20
1336.508500
 30
0.0
 10
456.136270
 20
1349.180200
 30
0.0
  0
SPLINE
  5
235
100
AcDbEntity
  8
box
 62
7
100
AcDbSpline
 70
8
 71
3
 72
8
 73
4
 74
0
 40
0
 40
0
 40
0
 40
0
 40
1
 40
1
 40
1
 40
1
 10
456.136270
 20
1349.180200
 30
0.0
 10
466.094380
 20
1352.819700
 30
0.0
 10
475.108220
 20
1360.311900
 30
0.0
 10
486.160710
 20
1359.486400
 30
0.0
  0
SPLINE
  5
236
100
AcDbEntity
  8
box
 62
7
100
AcDbSpline
 70
8
 71
3
 72
8
 73
4
 74
0
 40
0
 40
0
 40
0
 40
0
 40
1
 40
1
 40
1
 40
1
 10
486.160710
 20
1359.486400
 30
0.0
 10
494.343380
 20
1359.641000
 30
0.0
 10
502.867130
 20
1361.926000
 30
0.0
 10
510.287900
 20
1357.325200
 30
0.0
  0
SPLINE
  5
237
100
AcDbEntity
  8
box
 62
7
100
AcDbSpline
 70
8
 71
3
 72
8
 73
4
 74
0
 40
0
 40
0
 40
0
 40
0
 40
1
 40
1
 40
1
 40
1
 10
510.287900
 20
1357.325200
 30
0.0
 10
517.871210
 20
1354.043900
 30
0.0
 10
526.691050
 20
1352.629500
 30
0.0
 10
531.597380
 20
1345.305100
 30
0.0
  0
SPLINE
  5
238
100
AcDbEntity
  8
box
 62
7
100
AcDbSpline
 70
8
 71
3
 72
8
 73
4
 74
0
 40
0
 40
0
 40
0
 40
0
 40
1
 40
1
 40
1
 40
1
 10
531.597380
 20
1345.305100
 30
0.0
 10
537.018060
 20
1339.372500
 30
0.0
 10
544.223170
 20
1334.540700
 30
0.0
 10
545.428150
 20
1326.006700
 30
0.0
  0
SPLINE
  5
239
100
AcDbEntity
  8
box
 62
7
100
AcDbSpline
 70
8
 71
3
 72
8
 73
4
 74
0
 40
0
 40
0
 40
0
 40
0
 40
1
 40
1
 40
1
 40
1
 10
545.428150
 20
1326.006700
 30
0.0
 10
548.445470
 20
1316.464600
 30
0.0
 10
553.460740
 20
1307.262100
 30
0.0
 10
551.981370
 20
1296.954400
 30
0.0
  0
SPLINE
  5
23a
100
AcDbEntity
  8
box
 62
7
100
AcDbSpline
 70
8
 71
3
 72
8
 73
4
 74
0
 40
0
 40
0
 40
0
 40
0
 40
1
 40
1
 40
1
 40
1
 10
551.981370
 20
1296.954400
 30
0.0
 10
551.985370
 20
1296.281600
 30
0.0
 10
551.984370
 20
1295.596400
 30
0.0
 10
551.991370
 20
1294.925700
 30
0.0
  0
LWPOLYLINE
  5
23b
100
AcDbEntity
  8
box
 62
7
100
AcDbPolyline
 90
4
 70
0
 10
532.342700
 20
1117.460200
 30
0.0
 10
566.224700
 20
1117.460200
 30
0.0
 10
566.224700
 20
1130.960200
 30
0.0
 10
586.607700
 20
1130.960200
 30
0.0
  0
SPLINE
  5
23c
100
AcDbEntity
  8
box
 62
7
100
AcDbSpline
 70
8
 71
3
 72
8
 73
4
 74
0
 40
0
 40
0
 40
0
 40
0
 40
1
 40
1
 40
1
 40
1
 10
529.796180
 20
1338.751400
 30
0.0
 10
525.833890
 20
1343.946500
 30
0.0
 10
520.806980
 20
1347.550000
 30
0.0
 10
514.428480
 20
1349.133800
 30
0.0
  0
SPLINE
  5
23d
100
AcDbEntity
  8
box
 62
7
100
AcDbSpline
 70
8
 71
3
 72
8
 73
4
 74
0
 40
0
 40
0
 40
0
 40
0
 40
1
 40
1
 40
1
 40
1
 10
514.428480
 20
1349.133800
 30
0.0
 10
507.240470
 20
1351.825200
 30
0.0
 10
500.262400
 20
1356.003000
 30
0.0
 10
492.370250
 20
1353.724100
 30
0.0
  0
SPLINE
  5
23e
100
AcDbEntity
  8
box
 62
7
100
AcDbSpline
 70
8
 71
3
 72
8
 73
4
 74
0
 40
0
 40
0
 40
0
 40
0
 40
1
 40
1
 40
1
 40
1
 10
492.370250
 20
1353.724100
 30
0.0
 10
482.091470
 20
1352.430100
 30
0.0
 10
470.979050
 20
1350.510500
 30
0.0
 10
462.108920
 20
1345.142700
 30
0.0
  0
SPLINE
  5
23f
100
AcDbEntity
  8
box
 62
7
100
AcDbSpline
 70
8
 71
3
 72
8
 73
4
 74
0
 40
0
 40
0
 40
0
 40
0
 40
1
 40
1
 40
1
 40
1
 10
462.108920
 20
1345.142700
 30
0.0
 10
455.196370
 20
1338.638100
 30
0.0
 10
447.791210
 20
1332.517400
 30
0.0
 10
444.104150
 20
1323.497500
 30
0.0
  0
SPLINE
  5
240
100
AcDbEntity
  8
box
 62
7
100
AcDbSpline
 70
8
 71
3
 72
8
 73
4
 74
0
 40
0
 40
0
 40
0
 40
0
 40
1
 40
1
 40
1
 40
1
 10
444.104150
 20
1323.497500
 30
0.0
 10
439.331550
 20
1315.947900
 30
0.0
 10
435.704260
 20
1307.025600
 30
0.0
 10
430.224450
 20
1300.324000
 30
0.0
  0
SPLINE
  5
241
100
AcDbEntity
  8
box
 62
7
100
AcDbSpline
 70
8
 71
3
 72
8
 73
4
 74
0
 40
0
 40
0
 40
0
 40
0
 40
1
 40
1
 40
1
 40
1
 10
430.224450
 20
1300.324000
 30
0.0
 10
424.128490
 20
1299.293000
 30
0.0
 10
417.782250
 20
1293.110700
 30
0.0
 10
411.943270
 20
1297.359800
 30
0.0
  0
SPLINE
  5
242
100
AcDbEntity
  8
box
 62
7
100
AcDbSpline
 70
8
 71
3
 72
8
 73
4
 74
0
 40
0
 40
0
 40
0
 40
0
 40
1
 40
1
 40
1
 40
1
 10
411.943270
 20
1297.359800
 30
0.0
 10
388.799920
 20
1306.928200
 30
0.0
 10
369.556340
 20
1325.149700
 30
0.0
 10
345.244040
 20
1331.747100
 30
0.0
  0
SPLINE
  5
243
100
AcDbEntity
  8
box
 62
7
100
AcDbSpline
 70
8
 71
3
 72
8
 73
4
 74
0
 40
0
 40
0
 40
0
 40
0
 40
1
 40
1
 40
1
 40
1
 10
345.244040
 20
1331.747100
 30
0.0
 10
337.374340
 20
1332.090300
 30
0.0
 10
329.291180
 20
1334.085800
 30
0.0
 10
321.979060
 20
1330.111400
 30
0.0
  0
SPLINE
  5
244
100
AcDbEntity
  8
box
 62
7
100
AcDbSpline
 70
8
 71
3
 72
8
 73
4
 74
0
 40
0
 40
0
 40
0
 40
0
 40
1
 40
1
 40
1
 40
1
 10
321.979060
 20
1330.111400
 30
0.0
 10
315.952160
 20
1327.248900
 30
0.0
 10
307.999280
 20
1327.246600
 30
0.0
 10
303.344470
 20
1322.346600
 30
0.0
  0
SPLINE
  5
245
100
AcDbEntity
  8
box
 62
7
100
AcDbSpline
 70
8
 71
3
 72
8
 73
4
 74
0
 40
0
 40
0
 40
0
 40
0
 40
1
 40
1
 40
1
 40
1
 10
303.344470
 20
1322.346600
 30
0.0
 10
296.139270
 20
1316.365700
 30
0.0
 10
301.312400
 20
1316.633600
 30
0.0
 10
308.030590
 20
1317.681100
 30
0.0
  0
SPLINE
  5
246
100
AcDbEntity
  8
box
 62
7
100
AcDbSpline
 70
8
 71
3
 72
8
 73
4
 74
0
 40
0
 40
0
 40
0
 40
0
 40
1
 40
1
 40
1
 40
1
 10
308.030590
 20
1317.681100
 30
0.0
 10
313.351240
 20
1318.302500
 30
0.0
 10
318.731940
 20
1319.179400
 30
0.0
 10
322.936500
 20
1315.048000
 30
0.0
  0
SPLINE
  5
247
100
AcDbEntity
  8
box
 62
7
100
AcDbSpline
 70
8
 71
3
 72
8
 73
4
 74
0
 40
0
 40
0
 40
0
 40
0
 40
1
 40
1
 40
1
 40
1
 10
322.936500
 20
1315.048000
 30
0.0
 10
327.665570
 20
1312.069800
 30
0.0
 10
333.844090
 20
1310.279400
 30
0.0
 10
334.294100
 20
1303.796000
 30
0.0
  0
SPLINE
  5
248
100
AcDbEntity
  8
box
 62
7
100
AcDbSpline
 70
8
 71
3
 72
8
 73
4
 74
0
 40
0
 40
0
 40
0
 40
0
 40
1
 40
1
 40
1
 40
1
 10
334.294100
 20
1303.796000
 30
0.0
 10
336.988640
 20
1299.257000
 30
0.0
 10
333.091820
 20
1292.406400
 30
0.0
 10
329.416430
 20
1290.049600
 30
0.0
  0
SPLINE
  5
249
100
AcDbEntity
  8
box
 62
7
100
AcDbSpline
 70
8
 71
3
 72
8
 73
4
 74
0
 40
0
 40
0
 40
0
 40
0
 40
1
 40
1
 40
1
 40
1
 10
329.416430
 20
1290.049600
 30
0.0
 10
320.189950
 20
1287.937300
 30
0.0
 10
311.112840
 20
1283.805100
 30
0.0
 10
301.793950
 20
1282.943100
 30
0.0
  0
SPLINE
  5
24a
100
AcDbEntity
  8
box
 62
7
100
AcDbSpline
 70
8
 71
3
 72
8
 73
4
 74
0
 40
0
 40
0
 40
0
 40
0
 40
1
 40
1
 40
1
 40
1
 10
301.793950
 20
1282.943100
 30
0.0
 10
291.883120
 20
1284.718200
 30
0.0
 10
281.169680
 20
1283.884900
 30
0.0
 10
272.558840
 20
1289.885900
 30
0.0
  0
SPLINE
  5
24b
100
AcDbEntity
  8
box
 62
7
100
AcDbSpline
 70
8
 71
3
 72
8
 73
4
 74
0
 40
0
 40
0
 40
0
 40
0
 40
1
 40
1
 40
1
 40
1
 10
272.558840
 20
1289.885900
 30
0.0
 10
266.274390
 20
1289.690300
 30
0.0
 10
253.911700
 20
1308.165200
 30
0.0
 10
254.242650
 20
1300.053700
 30
0.0
  0
SPLINE
  5
24c
100
AcDbEntity
  8
box
 62
7
100
AcDbSpline
 70
8
 71
3
 72
8
 73
4
 74
0
 40
0
 40
0
 40
0
 40
0
 40
1
 40
1
 40
1
 40
1
 10
254.242650
 20
1300.053700
 30
0.0
 10
254.727750
 20
1293.418600
 30
0.0
 10
254.003820
 20
1286.367200
 30
0.0
 10
259.267700
 20
1281.379600
 30
0.0
  0
SPLINE
  5
24d
100
AcDbEntity
  8
box
 62
7
100
AcDbSpline
 70
8
 71
3
 72
8
 73
4
 74
0
 40
0
 40
0
 40
0
 40
0
 40
1
 40
1
 40
1
 40
1
 10
259.267700
 20
1281.379600
 30
0.0
 10
265.577780
 20
1272.625500
 30
0.0
 10
270.629750
 20
1262.993900
 30
0.0
 10
273.807050
 20
1252.670500
 30
0.0
  0
SPLINE
  5
24e
100
AcDbEntity
  8
box
 62
7
100
AcDbSpline
 70
8
 71
3
 72
8
 73
4
 74
0
 40
0
 40
0
 40
0
 40
0
 40
1
 40
1
 40
1
 40
1
 10
273.807050
 20
1252.670500
 30
0.0
 10
267.989790
 20
1244.763900
 30
0.0
 10
258.079300
 20
1240.718600
 30
0.0
 10
248.539850
 20
1243.232100
 30
0.0
  0
SPLINE
  5
24f
100
AcDbEntity
  8
box
 62
7
100
AcDbSpline
 70
8
 71
3
 72
8
 73
4
 74
0
 40
0
 40
0
 40
0
 40
0
 40
1
 40
1
 40
1
 40
1
 10
248.539850
 20
1243.232100
 30
0.0
 10
240.961580
 20
1243.129300
 30
0.0
 10
233.988580
 20
1245.168700
 30
0.0
 10
227.571490
 20
1249.180100
 30
0.0
  0
SPLINE
  5
250
100
AcDbEntity
  8
box
 62
7
100
AcDbSpline
 70
8
 71
3
 72
8
 73
4
 74
0
 40
0
 40
0
 40
0
 40
0
 40
1
 40
1
 40
1
 40
1
 10
227.571490
 20
1249.180100
 30
0.0
 10
218.104500
 20
1253.878800
 30
0.0
 10
208.637520
 20
1258.577500
 30
0.0
 10
199.170530
 20
1263.276400
 30
0.0
  0
SPLINE
  5
251
100
AcDbEntity
  8
box
 62
7
100
AcDbSpline
 70
8
 71
3
 72
8
 73
4
 74
0
 40
0
 40
0
 40
0
 40
0
 40
1
 40
1
 40
1
 40
1
 10
199.170530
 20
1263.276400
 30
0.0
 10
191.993570
 20
1260.608900
 30
0.0
 10
184.113980
 20
1259.081700
 30
0.0
 10
179.314690
 20
1252.558400
 30
0.0
  0
SPLINE
  5
252
100
AcDbEntity
  8
box
 62
7
100
AcDbSpline
 70
8
 71
3
 72
8
 73
4
 74
0
 40
0
 40
0
 40
0
 40
0
 40
1
 40
1
 40
1
 40
1
 10
179.314690
 20
1252.558400
 30
0.0
 10
176.127250
 20
1249.122100
 30
0.0
 10
167.171580
 20
1243.299200
 30
0.0
 10
177.125620
 20
1245.300600
 30
0.0
  0
SPLINE
  5
253
100
AcDbEntity
  8
box
 62
7
100
AcDbSpline
 70
8
 71
3
 72
8
 73
4
 74
0
 40
0
 40
0
 40
0
 40
0
 40
1
 40
1
 40
1
 40
1
 10
177.125620
 20
1245.300600
 30
0.0
 10
187.253410
 20
1245.513400
 30
0.0
 10
198.598850
 20
1244.550900
 30
0.0
 10
207.246370
 20
1239.223500
 30
0.0
  0
SPLINE
  5
254
100
AcDbEntity
  8
box
 62
7
100
AcDbSpline
 70
8
 71
3
 72
8
 73
4
 74
0
 40
0
 40
0
 40
0
 40
0
 40
1
 40
1
 40
1
 40
1
 10
207.246370
 20
1239.223500
 30
0.0
 10
212.566290
 20
1233.681900
 30
0.0
 10
219.156610
 20
1228.933400
 30
0.0
 10
220.396700
 20
1220.844100
 30
0.0
  0
SPLINE
  5
255
100
AcDbEntity
  8
box
 62
7
100
AcDbSpline
 70
8
 71
3
 72
8
 73
4
 74
0
 40
0
 40
0
 40
0
 40
0
 40
1
 40
1
 40
1
 40
1
 10
220.396700
 20
1220.844100
 30
0.0
 10
223.672010
 20
1215.985300
 30
0.0
 10
221.889310
 20
1208.093100
 30
0.0
 10
215.815050
 20
1206.858800
 30
0.0
  0
SPLINE
  5
256
100
AcDbEntity
  8
box
 62
7
100
AcDbSpline
 70
8
 71
3
 72
8
 73
4
 74
0
 40
0
 40
0
 40
0
 40
0
 40
1
 40
1
 40
1
 40
1
 10
215.815050
 20
1206.858800
 30
0.0
 10
206.666600
 20
1202.853600
 30
0.0
 10
196.422260
 20
1206.225000
 30
0.0
 10
186.743700
 20
1205.785900
 30
0.0
  0
SPLINE
  5
257
100
AcDbEntity
  8
box
 62
7
100
AcDbSpline
 70
8
 71
3
 72
8
 73
4
 74
0
 40
0
 40
0
 40
0
 40
0
 40
1
 40
1
 40
1
 40
1
 10
186.743700
 20
1205.785900
 30
0.0
 10
179.692600
 20
1206.384600
 30
0.0
 10
172.671750
 20
1206.778200
 30
0.0
 10
166.221000
 20
1203.337000
 30
0.0
  0
SPLINE
  5
258
100
AcDbEntity
  8
box
 62
7
100
AcDbSpline
 70
8
 71
3
 72
8
 73
4
 74
0
 40
0
 40
0
 40
0
 40
0
 40
1
 40
1
 40
1
 40
1
 10
166.221000
 20
1203.337000
 30
0.0
 10
159.763360
 20
1202.606800
 30
0.0
 10
157.822560
 20
1195.835900
 30
0.0
 10
154.044830
 20
1191.521500
 30
0.0
  0
SPLINE
  5
259
100
AcDbEntity
  8
box
 62
7
100
AcDbSpline
 70
8
 71
3
 72
8
 73
4
 74
0
 40
0
 40
0
 40
0
 40
0
 40
1
 40
1
 40
1
 40
1
 10
154.044830
 20
1191.521500
 30
0.0
 10
162.145380
 20
1190.998400
 30
0.0
 10
170.945390
 20
1193.562400
 30
0.0
 10
177.986910
 20
1188.369100
 30
0.0
  0
SPLINE
  5
25a
100
AcDbEntity
  8
box
 62
7
100
AcDbSpline
 70
8
 71
3
 72
8
 73
4
 74
0
 40
0
 40
0
 40
0
 40
0
 40
1
 40
1
 40
1
 40
1
 10
177.986910
 20
1188.369100
 30
0.0
 10
185.773370
 20
1185.248200
 30
0.0
 10
193.090590
 20
1179.714100
 30
0.0
 10
201.180010
 20
1178.149600
 30
0.0
  0
SPLINE
  5
25b
100
AcDbEntity
  8
box
 62
7
100
AcDbSpline
 70
8
 71
3
 72
8
 73
4
 74
0
 40
0
 40
0
 40
0
 40
0
 40
1
 40
1
 40
1
 40
1
 10
201.180010
 20
1178.149600
 30
0.0
 10
208.598850
 20
1178.633100
 30
0.0
 10
216.377790
 20
1178.113600
 30
0.0
 10
222.324890
 20
1183.401600
 30
0.0
  0
SPLINE
  5
25c
100
AcDbEntity
  8
box
 62
7
100
AcDbSpline
 70
8
 71
3
 72
8
 73
4
 74
0
 40
0
 40
0
 40
0
 40
0
 40
1
 40
1
 40
1
 40
1
 10
222.324890
 20
1183.401600
 30
0.0
 10
234.117410
 20
1191.261000
 30
0.0
 10
243.299950
 20
1203.088400
 30
0.0
 10
254.295490
 20
1211.442000
 30
0.0
  0
SPLINE
  5
25d
100
AcDbEntity
  8
box
 62
7
100
AcDbSpline
 70
8
 71
3
 72
8
 73
4
 74
0
 40
0
 40
0
 40
0
 40
0
 40
1
 40
1
 40
1
 40
1
 10
254.295490
 20
1211.442000
 30
0.0
 10
259.900350
 20
1211.921600
 30
0.0
 10
265.735130
 20
1213.555700
 30
0.0
 10
270.415910
 20
1209.402800
 30
0.0
  0
SPLINE
  5
25e
100
AcDbEntity
  8
box
 62
7
100
AcDbSpline
 70
8
 71
3
 72
8
 73
4
 74
0
 40
0
 40
0
 40
0
 40
0
 40
1
 40
1
 40
1
 40
1
 10
270.415910
 20
1209.402800
 30
0.0
 10
277.654430
 20
1207.405200
 30
0.0
 10
279.409050
 20
1199.712100
 30
0.0
 10
283.181700
 20
1194.114500
 30
0.0
  0
SPLINE
  5
25f
100
AcDbEntity
  8
box
 62
7
100
AcDbSpline
 70
8
 71
3
 72
8
 73
4
 74
0
 40
0
 40
0
 40
0
 40
0
 40
1
 40
1
 40
1
 40
1
 10
283.181700
 20
1194.114500
 30
0.0
 10
281.958870
 20
1189.107200
 30
0.0
 10
282.575090
 20
1182.993000
 30
0.0
 10
280.311120
 20
1178.612700
 30
0.0
  0
SPLINE
  5
260
100
AcDbEntity
  8
box
 62
7
100
AcDbSpline
 70
8
 71
3
 72
8
 73
4
 74
0
 40
0
 40
0
 40
0
 40
0
 40
1
 40
1
 40
1
 40
1
 10
280.311120
 20
1178.612700
 30
0.0
 10
273.235180
 20
1173.944000
 30
0.0
 10
267.160370
 20
1166.959900
 30
0.0
 10
258.094920
 20
1166.894500
 30
0.0
  0
SPLINE
  5
261
100
AcDbEntity
  8
box
 62
7
100
AcDbSpline
 70
8
 71
3
 72
8
 73
4
 74
0
 40
0
 40
0
 40
0
 40
0
 40
1
 40
1
 40
1
 40
1
 10
258.094920
 20
1166.894500
 30
0.0
 10
251.507320
 20
1165.639400
 30
0.0
 10
244.919410
 20
1164.384400
 30
0.0
 10
238.332090
 20
1163.129500
 30
0.0
  0
SPLINE
  5
262
100
AcDbEntity
  8
box
 62
7
100
AcDbSpline
 70
8
 71
3
 72
8
 73
4
 74
0
 40
0
 40
0
 40
0
 40
0
 40
1
 40
1
 40
1
 40
1
 10
238.332090
 20
1163.129500
 30
0.0
 10
251.438670
 20
1154.263000
 30
0.0
 10
267.587690
 20
1154.231400
 30
0.0
 10
282.639200
 20
1156.831900
 30
0.0
  0
SPLINE
  5
263
100
AcDbEntity
  8
box
 62
7
100
AcDbSpline
 70
8
 71
3
 72
8
 73
4
 74
0
 40
0
 40
0
 40
0
 40
0
 40
1
 40
1
 40
1
 40
1
 10
282.639200
 20
1156.831900
 30
0.0
 10
289.802830
 20
1158.976000
 30
0.0
 10
295.313110
 20
1165.411200
 30
0.0
 10
301.831830
 20
1169.229300
 30
0.0
  0
SPLINE
  5
264
100
AcDbEntity
  8
box
 62
7
100
AcDbSpline
 70
8
 71
3
 72
8
 73
4
 74
0
 40
0
 40
0
 40
0
 40
0
 40
1
 40
1
 40
1
 40
1
 10
301.831830
 20
1169.229300
 30
0.0
 10
307.182570
 20
1174.353500
 30
0.0
 10
308.442920
 20
1183.005700
 30
0.0
 10
311.716910
 20
1189.564300
 30
0.0
  0
SPLINE
  5
265
100
AcDbEntity
  8
box
 62
7
100
AcDbSpline
 70
8
 71
3
 72
8
 73
4
 74
0
 40
0
 40
0
 40
0
 40
0
 40
1
 40
1
 40
1
 40
1
 10
311.716910
 20
1189.564300
 30
0.0
 10
318.321180
 20
1210.245600
 30
0.0
 10
323.000020
 20
1232.318000
 30
0.0
 10
334.112410
 20
1251.035600
 30
0.0
  0
SPLINE
  5
266
100
AcDbEntity
  8
box
 62
7
100
AcDbSpline
 70
8
 71
3
 72
8
 73
4
 74
0
 40
0
 40
0
 40
0
 40
0
 40
1
 40
1
 40
1
 40
1
 10
334.112410
 20
1251.035600
 30
0.0
 10
340.684690
 20
1255.311800
 30
0.0
 10
346.793500
 20
1260.911000
 30
0.0
 10
353.652100
 20
1264.369100
 30
0.0
  0
SPLINE
  5
267
100
AcDbEntity
  8
box
 62
7
100
AcDbSpline
 70
8
 71
3
 72
8
 73
4
 74
0
 40
0
 40
0
 40
0
 40
0
 40
1
 40
1
 40
1
 40
1
 10
353.652100
 20
1264.369100
 30
0.0
 10
361.680500
 20
1264.446100
 30
0.0
 10
370.028780
 20
1265.931100
 30
0.0
 10
377.870040
 20
1265.181000
 30
0.0
  0
SPLINE
  5
268
100
AcDbEntity
  8
box
 62
7
100
AcDbSpline
 70
8
 71
3
 72
8
 73
4
 74
0
 40
0
 40
0
 40
0
 40
0
 40
1
 40
1
 40
1
 40
1
 10
377.870040
 20
1265.181000
 30
0.0
 10
384.401860
 20
1261.127200
 30
0.0
 10
392.327150
 20
1258.256700
 30
0.0
 10
398.009170
 20
1253.481800
 30
0.0
  0
SPLINE
  5
269
100
AcDbEntity
  8
box
 62
7
100
AcDbSpline
 70
8
 71
3
 72
8
 73
4
 74
0
 40
0
 40
0
 40
0
 40
0
 40
1
 40
1
 40
1
 40
1
 10
398.009170
 20
1253.481800
 30
0.0
 10
399.141450
 20
1248.304700
 30
0.0
 10
405.150560
 20
1241.362700
 30
0.0
 10
397.106570
 20
1239.506900
 30
0.0
  0
SPLINE
  5
26a
100
AcDbEntity
  8
box
 62
7
100
AcDbSpline
 70
8
 71
3
 72
8
 73
4
 74
0
 40
0
 40
0
 40
0
 40
0
 40
1
 40
1
 40
1
 40
1
 10
397.106570
 20
1239.506900
 30
0.0
 10
384.572930
 20
1232.379100
 30
0.0
 10
369.694520
 20
1230.125900
 30
0.0
 10
356.979090
 20
1223.832200
 30
0.0
  0
SPLINE
  5
26b
100
AcDbEntity
  8
box
 62
7
100
AcDbSpline
 70
8
 71
3
 72
8
 73
4
 74
0
 40
0
 40
0
 40
0
 40
0
 40
1
 40
1
 40
1
 40
1
 10
356.979090
 20
1223.832200
 30
0.0
 10
350.712490
 20
1218.127700
 30
0.0
 10
343.379630
 20
1213.179200
 30
0.0
 10
337.749320
 20
1207.023800
 30
0.0
  0
SPLINE
  5
26c
100
AcDbEntity
  8
box
 62
7
100
AcDbSpline
 70
8
 71
3
 72
8
 73
4
 74
0
 40
0
 40
0
 40
0
 40
0
 40
1
 40
1
 40
1
 40
1
 10
337.749320
 20
1207.023800
 30
0.0
 10
336.010660
 20
1202.737100
 30
0.0
 10
329.072650
 20
1185.585400
 30
0.0
 10
335.175870
 20
1189.996000
 30
0.0
  0
SPLINE
  5
26d
100
AcDbEntity
  8
box
 62
7
100
AcDbSpline
 70
8
 71
3
 72
8
 73
4
 74
0
 40
0
 40
0
 40
0
 40
0
 40
1
 40
1
 40
1
 40
1
 10
335.175870
 20
1189.996000
 30
0.0
 10
341.363520
 20
1196.062600
 30
0.0
 10
345.178210
 20
1205.588500
 30
0.0
 10
354.560570
 20
1206.997600
 30
0.0
  0
SPLINE
  5
26e
100
AcDbEntity
  8
box
 62
7
100
AcDbSpline
 70
8
 71
3
 72
8
 73
4
 74
0
 40
0
 40
0
 40
0
 40
0
 40
1
 40
1
 40
1
 40
1
 10
354.560570
 20
1206.997600
 30
0.0
 10
364.069540
 20
1210.447900
 30
0.0
 10
373.493270
 20
1214.319000
 30
0.0
 10
383.808340
 20
1213.810400
 30
0.0
  0
SPLINE
  5
26f
100
AcDbEntity
  8
box
 62
7
100
AcDbSpline
 70
8
 71
3
 72
8
 73
4
 74
0
 40
0
 40
0
 40
0
 40
0
 40
1
 40
1
 40
1
 40
1
 10
383.808340
 20
1213.810400
 30
0.0
 10
389.629820
 20
1215.029500
 30
0.0
 10
394.763780
 20
1211.342500
 30
0.0
 10
400.207560
 20
1209.866400
 30
0.0
  0
SPLINE
  5
270
100
AcDbEntity
  8
box
 62
7
100
AcDbSpline
 70
8
 71
3
 72
8
 73
4
 74
0
 40
0
 40
0
 40
0
 40
0
 40
1
 40
1
 40
1
 40
1
 10
400.207560
 20
1209.866400
 30
0.0
 10
400.922470
 20
1204.581900
 30
0.0
 10
406.596640
 20
1198.758900
 30
0.0
 10
403.501340
 20
1193.888400
 30
0.0
  0
SPLINE
  5
271
100
AcDbEntity
  8
box
 62
7
100
AcDbSpline
 70
8
 71
3
 72
8
 73
4
 74
0
 40
0
 40
0
 40
0
 40
0
 40
1
 40
1
 40
1
 40
1
 10
403.501340
 20
1193.888400
 30
0.0
 10
400.432310
 20
1189.550300
 30
0.0
 10
398.907220
 20
1183.053000
 30
0.0
 10
392.413520
 20
1183.505000
 30
0.0
  0
SPLINE
  5
272
100
AcDbEntity
  8
box
 62
7
100
AcDbSpline
 70
8
 71
3
 72
8
 73
4
 74
0
 40
0
 40
0
 40
0
 40
0
 40
1
 40
1
 40
1
 40
1
 10
392.413520
 20
1183.505000
 30
0.0
 10
381.392540
 20
1180.942500
 30
0.0
 10
370.319860
 20
1178.587200
 30
0.0
 10
359.147490
 20
1176.783000
 30
0.0
  0
SPLINE
  5
273
100
AcDbEntity
  8
box
 62
7
100
AcDbSpline
 70
8
 71
3
 72
8
 73
4
 74
0
 40
0
 40
0
 40
0
 40
0
 40
1
 40
1
 40
1
 40
1
 10
359.147490
 20
1176.783000
 30
0.0
 10
368.962790
 20
1174.833400
 30
0.0
 10
378.684190
 20
1170.893200
 30
0.0
 10
388.556580
 20
1170.159900
 30
0.0
  0
SPLINE
  5
274
100
AcDbEntity
  8
box
 62
7
100
AcDbSpline
 70
8
 71
3
 72
8
 73
4
 74
0
 40
0
 40
0
 40
0
 40
0
 40
1
 40
1
 40
1
 40
1
 10
388.556580
 20
1170.159900
 30
0.0
 10
395.254000
 20
1171.266500
 30
0.0
 10
402.518860
 20
1171.061500
 30
0.0
 10
407.249760
 20
1176.712500
 30
0.0
  0
SPLINE
  5
275
100
AcDbEntity
  8
box
 62
7
100
AcDbSpline
 70
8
 71
3
 72
8
 73
4
 74
0
 40
0
 40
0
 40
0
 40
0
 40
1
 40
1
 40
1
 40
1
 10
407.249760
 20
1176.712500
 30
0.0
 10
415.011370
 20
1183.141300
 30
0.0
 10
424.231910
 20
1188.232300
 30
0.0
 10
428.679260
 20
1197.701100
 30
0.0
  0
SPLINE
  5
276
100
AcDbEntity
  8
box
 62
7
100
AcDbSpline
 70
8
 71
3
 72
8
 73
4
 74
0
 40
0
 40
0
 40
0
 40
0
 40
1
 40
1
 40
1
 40
1
 10
428.679260
 20
1197.701100
 30
0.0
 10
433.849550
 20
1204.560800
 30
0.0
 10
437.703000
 20
1212.050600
 30
0.0
 10
439.673880
 20
1220.442000
 30
0.0
  0
SPLINE
  5
277
100
AcDbEntity
  8
box
 62
7
100
AcDbSpline
 70
8
 71
3
 72
8
 73
4
 74
0
 40
0
 40
0
 40
0
 40
0
 40
1
 40
1
 40
1
 40
1
 10
439.673880
 20
1220.442000
 30
0.0
 10
443.903300
 20
1228.054000
 30
0.0
 10
443.156680
 20
1241.919000
 30
0.0
 10
453.383460
 20
1243.891900
 30
0.0
  0
SPLINE
  5
278
100
AcDbEntity
  8
box
 62
7
100
AcDbSpline
 70
8
 71
3
 72
8
 73
4
 74
0
 40
0
 40
0
 40
0
 40
0
 40
1
 40
1
 40
1
 40
1
 10
453.383460
 20
1243.891900
 30
0.0
 10
462.098870
 20
1248.452900
 30
0.0
 10
471.731110
 20
1243.712300
 30
0.0
 10
480.936110
 20
1243.305700
 30
0.0
  0
SPLINE
  5
279
100
AcDbEntity
  8
box
 62
7
100
AcDbSpline
 70
8
 71
3
 72
8
 73
4
 74
0
 40
0
 40
0
 40
0
 40
0
 40
1
 40
1
 40
1
 40
1
 10
480.936110
 20
1243.305700
 30
0.0
 10
490.117240
 20
1241.979700
 30
0.0
 10
499.317180
 20
1239.781800
 30
0.0
 10
508.404400
 20
1242.800000
 30
0.0
  0
SPLINE
  5
27a
100
AcDbEntity
  8
box
 62
7
100
AcDbSpline
 70
8
 71
3
 72
8
 73
4
 74
0
 40
0
 40
0
 40
0
 40
0
 40
1
 40
1
 40
1
 40
1
 10
508.404400
 20
1242.800000
 30
0.0
 10
516.682630
 20
1243.540700
 30
0.0
 10
521.424250
 20
1251.803500
 30
0.0
 10
528.048120
 20
1256.062900
 30
0.0
  0
SPLINE
  5
27b
100
AcDbEntity
  8
box
 62
7
100
AcDbSpline
 70
8
 71
3
 72
8
 73
4
 74
0
 40
0
 40
0
 40
0
 40
0
 40
1
 40
1
 40
1
 40
1
 10
528.048120
 20
1256.062900
 30
0.0
 10
535.835790
 20
1261.574900
 30
0.0
 10
538.791960
 20
1271.238400
 30
0.0
 10
544.195650
 20
1278.798900
 30
0.0
  0
SPLINE
  5
27c
100
AcDbEntity
  8
box
 62
7
100
AcDbSpline
 70
8
 71
3
 72
8
 73
4
 74
0
 40
0
 40
0
 40
0
 40
0
 40
1
 40
1
 40
1
 40
1
 10
544.195650
 20
1278.798900
 30
0.0
 10
544.500580
 20
1287.422900
 30
0.0
 10
547.017000
 20
1296.312800
 30
0.0
 10
545.989040
 20
1304.776500
 30
0.0
  0
SPLINE
  5
27d
100
AcDbEntity
  8
box
 62
7
100
AcDbSpline
 70
8
 71
3
 72
8
 73
4
 74
0
 40
0
 40
0
 40
0
 40
0
 40
1
 40
1
 40
1
 40
1
 10
545.989040
 20
1304.776500
 30
0.0
 10
542.164950
 20
1314.076500
 30
0.0
 10
540.144520
 20
1324.484100
 30
0.0
 10
535.208450
 20
1333.101300
 30
0.0
  0
SPLINE
  5
27e
100
AcDbEntity
  8
box
 62
7
100
AcDbSpline
 70
8
 71
3
 72
8
 73
4
 74
0
 40
0
 40
0
 40
0
 40
0
 40
1
 40
1
 40
1
 40
1
 10
535.208450
 20
1333.101300
 30
0.0
 10
533.405490
 20
1334.985700
 30
0.0
 10
531.595660
 20
1336.882900
 30
0.0
 10
529.796940
 20
1338.759700
 30
0.0
  0
LWPOLYLINE
  5
27f
100
AcDbEntity
  8
box
 62
7
100
AcDbPolyline
 90
2
 70
0
 10
551.991370
 20
1294.925700
 30
0.0
 10
552.003920
 20
1294.924200
 30
0.0
  0
LWPOLYLINE
  5
280
100
AcDbEntity
  8
box
 62
7
100
AcDbPolyline
 90
2
 70
0
 10
529.796940
 20
1338.759700
 30
0.0
 10
529.796180
 20
1338.751400
 30
0.0
  0
LWPOLYLINE
  5
281
100
AcDbEntity
  8
box
 62
7
100
AcDbPolyline
 90
4
 70
0
 10
36.945844
 20
1079.769800
 30
0.0
 10
36.945844
 20
1061.269800
 30
0.0
 10
23.445844
 20
1061.269800
 30
0.0
 10
23.445844
 20
1029.269800
 30
0.0
  0
LWPOLYLINE
  5
282
100
AcDbEntity
  8
box
 62
7
100
AcDbPolyline
 90
2
 70
0
 10
36.945844
 20
1029.269800
 30
0.0
 10
23.445844
 20
1029.269800
 30
0.0
  0
LWPOLYLINE
  5
283
100
AcDbEntity
  8
box
 62
7
100
AcDbPolyline
 90
4
 70
0
 10
36.945844
 20
1029.269800
 30
0.0
 10
36.945844
 20
997.269840
 30
0.0
 10
23.445844
 20
997.269840
 30
0.0
 10
23.445844
 20
965.269840
 30
0.0
  0
LWPOLYLINE
  5
284
100
AcDbEntity
  8
box
 62
7
100
AcDbPolyline
 90
2
 70
0
 10
36.945844
 20
965.269840
 30
0.0
 10
23.445844
 20
965.269840
 30
0.0
  0
LWPOLYLINE
  5
285
100
AcDbEntity
  8
box
 62
7
100
AcDbPolyline
 90
4
 70
0
 10
36.945844
 20
965.269840
 30
0.0
 10
36.945844
 20
933.269840
 30
0.0
 10
23.445844
 20
933.269840
 30
0.0
 10
23.445844
 20
901.269840
 30
0.0
  0
LWPOLYLINE
  5
286
100
AcDbEntity
  8
box
 62
7
100
AcDbPolyline
 90
2
 70
0
 10
36.945844
 20
901.269840
 30
0.0
 10
23.445844
 20
901.269840
 30
0.0
  0
LWPOLYLINE
  5
287
100
AcDbEntity
  8
box
 62
7
100
AcDbPolyline
 90
4
 70
0
 10
36.945844
 20
901.269840
 30
0.0
 10
36.945844
 20
869.269840
 30
0.0
 10
23.445844
 20
869.269840
 30
0.0
 10
23.445844
 20
837.269840
 30
0.0
  0
LWPOLYLINE
  5
288
100
AcDbEntity
  8
box
 62
7
100
AcDbPolyline
 90
2
 70
0
 10
36.945844
 20
837.269840
 30
0.0
 10
23.445844
 20
837.269840
 30
0.0
  0
LWPOLYLINE
  5
289
100
AcDbEntity
  8
box
 62
7
100
AcDbPolyline
 90
2
 70
0
 10
36.945844
 20
837.269840
 30
0.0
 10
36.945844
 20
818.769840
 30
0.0
  0
LWPOLYLINE
  5
28a
100
AcDbEntity
  8
box
 62
7
100
AcDbPolyline
 90
2
 70
0
 10
585.945840
 20
1079.769800
 30
0.0
 10
585.945840
 20
1061.269800
 30
0.0
  0
LWPOLYLINE
  5
28b
100
AcDbEntity
  8
box
 62
7
100
AcDbPolyline
 90
2
 70
0
 10
599.445840
 20
1061.269800
 30
0.0
 10
585.945840
 20
1061.269800
 30
0.0
  0
LWPOLYLINE
  5
28c
100
AcDbEntity
  8
box
 62
7
100
AcDbPolyline
 90
4
 70
0
 10
599.445840
 20
1061.269800
 30
0.0
 10
599.445840
 20
1029.269800
 30
0.0
 10
585.945840
 20
1029.269800
 30
0.0
 10
585.945840
 20
997.269840
 30
0.0
  0
LWPOLYLINE
  5
28d
100
AcDbEntity
  8
box
 62
7
100
AcDbPolyline
 90
2
 70
0
 10
599.445840
 20
997.269840
 30
0.0
 10
585.945840
 20
997.269840
 30
0.0
  0
LWPOLYLINE
  5
28e
100
AcDbEntity
  8
box
 62
7
100
AcDbPolyline
 90
4
 70
0
 10
599.445840
 20
997.269840
 30
0.0
 10
599.445840
 20
965.269840
 30
0.0
 10
585.945840
 20
965.269840
 30
0.0
 10
585.945840
 20
933.269840
 30
0.0
  0
LWPOLYLINE
  5
28f
100
AcDbEntity
  8
box
 62
7
100
AcDbPolyline
 90
2
 70
0
 10
599.445840
 20
933.269840
 30
0.0
 10
585.945840
 20
933.269840
 30
0.0
  0
LWPOLYLINE
  5
290
100
AcDbEntity
  8
box
 62
7
100
AcDbPolyline
 90
4
 70
0
 10
599.445840
 20
933.269840
 30
0.0
 10
599.445840
 20
901.269840
 30
0.0
 10
585.945840
 20
901.269840
 30
0.0
 10
585.945840
 20
869.269840
 30
0.0
  0
LWPOLYLINE
  5
291
100
AcDbEntity
  8
box
 62
7
100
AcDbPolyline
 90
2
 70
0
 10
599.445840
 20
869.269840
 30
0.0
 10
585.945840
 20
869.269840
 30
0.0
  0
LWPOLYLINE
  5
292
100
AcDbEntity
  8
box
 62
7
100
AcDbPolyline
 90
4
 70
0
 10
599.445840
 20
869.269840
 30
0.0
 10
599.445840
 20
837.269840
 30
0.0
 10
585.945840
 20
837.269840
 30
0.0
 10
585.945840
 20
818.769840
 30
0.0
  0
LWPOLYLINE
  5
293
100
AcDbEntity
  8
box
 62
7
100
AcDbPolyline
 90
4
 70
0
 10
36.945844
 20
1079.769800
 30
0.0
 10
57.327844
 20
1079.769800
 30
0.0
 10
57.327844
 20
1093.269800
 30
0.0
 10
91.210844
 20
1093.269800
 30
0.0
  0
LWPOLYLINE
  5
294
100
AcDbEntity
  8
box
 62
7
100
AcDbPolyline
 90
2
 70
0
 10
91.210844
 20
1079.769800
 30
0.0
 10
91.210844
 20
1093.269800
 30
0.0
  0
LWPOLYLINE
  5
295
100
AcDbEntity
  8
box
 62
7
100
AcDbPolyline
 90
4
 70
0
 10
91.210844
 20
1079.769800
 30
0.0
 10
125.092840
 20
1079.769800
 30
0.0
 10
125.092840
 20
1093.269800
 30
0.0
 10
158.974840
 20
1093.269800
 30
0.0
  0
LWPOLYLINE
  5
296
100
AcDbEntity
  8
box
 62
7
100
AcDbPolyline
 90
2
 70
0
 10
158.974840
 20
1079.769800
 30
0.0
 10
158.974840
 20
1093.269800
 30
0.0
  0
LWPOLYLINE
  5
297
100
AcDbEntity
  8
box
 62
7
100
AcDbPolyline
 90
4
 70
0
 10
158.974840
 20
1079.769800
 30
0.0
 10
192.857840
 20
1079.769800
 30
0.0
 10
192.857840
 20
1093.269800
 30
0.0
 10
226.739840
 20
1093.269800
 30
0.0
  0
LWPOLYLINE
  5
298
100
AcDbEntity
  8
box
 62
7
100
AcDbPolyline
 90
2
 70
0
 10
226.739840
 20
1079.769800
 30
0.0
 10
226.739840
 20
1093.269800
 30
0.0
  0
LWPOLYLINE
  5
299
100
AcDbEntity
  8
box
 62
7
100
AcDbPolyline
 90
4
 70
0
 10
226.739840
 20
1079.769800
 30
0.0
 10
260.621840
 20
1079.769800
 30
0.0
 10
260.621840
 20
1093.269800
 30
0.0
 10
294.504840
 20
1093.269800
 30
0.0
  0
LWPOLYLINE
  5
29a
100
AcDbEntity
  8
box
 62
7
100
AcDbPolyline
 90
2
 70
0
 10
294.504840
 20
1079.769800
 30
0.0
 10
294.504840
 20
1093.269800
 30
0.0
  0
LWPOLYLINE
  5
29b
100
AcDbEntity
  8
box
 62
7
100
AcDbPolyline
 90
4
 70
0
 10
294.504840
 20
1079.769800
 30
0.0
 10
328.386840
 20
1079.769800
 30
0.0
 10
328.386840
 20
1093.269800
 30
0.0
 10
362.268840
 20
1093.269800
 30
0.0
  0
LWPOLYLINE
  5
29c
100
AcDbEntity
  8
box
 62
7
100
AcDbPolyline
 90
2
 70
0
 10
362.268840
 20
1079.769800
 30
0.0
 10
362.268840
 20
1093.269800
 30
0.0
  0
LWPOLYLINE
  5
29d
100
AcDbEntity
  8
box
 62
7
100
AcDbPolyline
 90
4
 70
0
 10
362.268840
 20
1079.769800
 30
0.0
 10
396.151840
 20
1079.769800
 30
0.0
 10
396.151840
 20
1093.269800
 30
0.0
 10
430.033840
 20
1093.269800
 30
0.0
  0
LWPOLYLINE
  5
29e
100
AcDbEntity
  8
box
 62
7
100
AcDbPolyline
 90
2
 70
0
 10
430.033840
 20
1079.769800
 30
0.0
 10
430.033840
 20
1093.269800
 30
0.0
  0
LWPOLYLINE
  5
29f
100
AcDbEntity
  8
box
 62
7
100
AcDbPolyline
 90
4
 70
0
 10
430.033840
 20
1079.769800
 30
0.0
 10
463.915840
 20
1079.769800
 30
0.0
 10
463.915840
 20
1093.269800
 30
0.0
 10
497.798840
 20
1093.269800
 30
0.0
  0
LWPOLYLINE
  5
2a0
100
AcDbEntity
  8
box
 62
7
100
AcDbPolyline
 90
2
 70
0
 10
497.798840
 20
1079.769800
 30
0.0
 10
497.798840
 20
1093.269800
 30
0.0
  0
LWPOLYLINE
  5
2a1
100
AcDbEntity
  8
box
 62
7
100
AcDbPolyline
 90
4
 70
0
 10
497.798840
 20
1079.769800
 30
0.0
 10
531.680840
 20
1079.769800
 30
0.0
 10
531.680840
 20
1093.269800
 30
0.0
 10
565.562840
 20
1093.269800
 30
0.0
  0
LWPOLYLINE
  5
2a2
100
AcDbEntity
  8
box
 62
7
100
AcDbPolyline
 90
2
 70
0
 10
565.562840
 20
1079.769800
 30
0.0
 10
565.562840
 20
1093.269800
 30
0.0
  0
LWPOLYLINE
  5
2a3
100
AcDbEntity
  8
box
 62
7
100
AcDbPolyline
 90
2
 70
0
 10
565.562840
 20
1079.769800
 30
0.0
 10
585.945840
 20
1079.769800
 30
0.0
  0
LWPOLYLINE
  5
2a4
100
AcDbEntity
  8
box
 62
7
100
AcDbPolyline
 90
2
 70
0
 10
36.945844
 20
818.769840
 30
0.0
 10
57.327844
 20
818.769840
 30
0.0
  0
LWPOLYLINE
  5
2a5
100
AcDbEntity
  8
box
 62
7
100
AcDbPolyline
 90
2
 70
0
 10
57.327844
 20
805.269840
 30
0.0
 10
57.327844
 20
818.769840
 30
0.0
  0
LWPOLYLINE
  5
2a6
100
AcDbEntity
  8
box
 62
7
100
AcDbPolyline
 90
4
 70
0
 10
57.327844
 20
805.269840
 30
0.0
 10
91.210844
 20
805.269840
 30
0.0
 10
91.210844
 20
818.769840
 30
0.0
 10
125.092840
 20
818.769840
 30
0.0
  0
LWPOLYLINE
  5
2a7
100
AcDbEntity
  8
box
 62
7
100
AcDbPolyline
 90
2
 70
0
 10
125.092840
 20
805.269840
 30
0.0
 10
125.092840
 20
818.769840
 30
0.0
  0
LWPOLYLINE
  5
2a8
100
AcDbEntity
  8
box
 62
7
100
AcDbPolyline
 90
4
 70
0
 10
125.092840
 20
805.269840
 30
0.0
 10
158.974840
 20
805.269840
 30
0.0
 10
158.974840
 20
818.769840
 30
0.0
 10
192.857840
 20
818.769840
 30
0.0
  0
LWPOLYLINE
  5
2a9
100
AcDbEntity
  8
box
 62
7
100
AcDbPolyline
 90
2
 70
0
 10
192.857840
 20
805.269840
 30
0.0
 10
192.857840
 20
818.769840
 30
0.0
  0
LWPOLYLINE
  5
2aa
100
AcDbEntity
  8
box
 62
7
100
AcDbPolyline
 90
4
 70
0
 10
192.857840
 20
805.269840
 30
0.0
 10
226.739840
 20
805.269840
 30
0.0
 10
226.739840
 20
818.769840
 30
0.0
 10
260.621840
 20
818.769840
 30
0.0
  0
LWPOLYLINE
  5
2ab
100
AcDbEntity
  8
box
 62
7
100
AcDbPolyline
 90
2
 70
0
 10
260.621840
 20
805.269840
 30
0.0
 10
260.621840
 20
818.769840
 30
0.0
  0
LWPOLYLINE
  5
2ac
100
AcDbEntity
  8
box
 62
7
100
AcDbPolyline
 90
4
 70
0
 10
260.621840
 20
805.269840
 30
0.0
 10
294.504840
 20
805.269840
 30
0.0
 10
294.504840
 20
818.769840
 30
0.0
 10
328.386840
 20
818.769840
 30
0.0
  0
LWPOLYLINE
  5
2ad
100
AcDbEntity
  8
box
 62
7
100
AcDbPolyline
 90
2
 70
0
 10
328.386840
 20
805.269840
 30
0.0
 10
328.386840
 20
818.769840
 30
0.0
  0
LWPOLYLINE
  5
2ae
100
AcDbEntity
  8
box
 62
7
100
AcDbPolyline
 90
4
 70
0
 10
328.386840
 20
805.269840
 30
0.0
 10
362.268840
 20
805.269840
 30
0.0
 10
362.268840
 20
818.769840
 30
0.0
 10
396.151840
 20
818.769840
 30
0.0
  0
LWPOLYLINE
  5
2af
100
AcDbEntity
  8
box
 62
7
100
AcDbPolyline
 90
2
 70
0
 10
396.151840
 20
805.269840
 30
0.0
 10
396.151840
 20
818.769840
 30
0.0
  0
LWPOLYLINE
  5
2b0
100
AcDbEntity
  8
box
 62
7
100
AcDbPolyline
 90
4
 70
0
 10
396.151840
 20
805.269840
 30
0.0
 10
430.033840
 20
805.269840
 30
0.0
 10
430.033840
 20
818.769840
 30
0.0
 10
463.915840
 20
818.769840
 30
0.0
  0
LWPOLYLINE
  5
2b1
100
AcDbEntity
  8
box
 62
7
100
AcDbPolyline
 90
2
 70
0
 10
463.915840
 20
805.269840
 30
0.0
 10
463.915840
 20
818.769840
 30
0.0
  0
LWPOLYLINE
  5
2b2
100
AcDbEntity
  8
box
 62
7
100
AcDbPolyline
 90
4
 70
0
 10
463.915840
 20
805.269840
 30
0.0
 10
497.798840
 20
805.269840
 30
0.0
 10
497.798840
 20
818.769840
 30
0.0
 10
531.680840
 20
818.769840
 30
0.0
  0
LWPOLYLINE
  5
2b3
100
AcDbEntity
  8
box
 62
7
100
AcDbPolyline
 90
2
 70
0
 10
531.680840
 20
805.269840
 30
0.0
 10
531.680840
 20
818.769840
 30
0.0
  0
SPLINE
  5
2b4
100
AcDbEntity
  8
box
 62
7
100
AcDbSpline
 70
8
 71
3
 72
8
 73
4
 74
0
 40
0
 40
0
 40
0
 40
0
 40
1
 40
1
 40
1
 40
1
 10
551.342060
 20
982.733840
 30
0.0
 10
551.560690
 20
975.812840
 30
0.0
 10
552.101310
 20
968.821340
 30
0.0
 10
547.848470
 20
962.883840
 30
0.0
  0
SPLINE
  5
2b5
100
AcDbEntity
  8
box
 62
7
100
AcDbSpline
 70
8
 71
3
 72
8
 73
4
 74
0
 40
0
 40
0
 40
0
 40
0
 40
1
 40
1
 40
1
 40
1
 10
547.848470
 20
962.883840
 30
0.0
 10
544.450970
 20
955.524340
 30
0.0
 10
541.756420
 20
947.658040
 30
0.0
 10
534.750590
 20
942.899840
 30
0.0
  0
SPLINE
  5
2b6
100
AcDbEntity
  8
box
 62
7
100
AcDbSpline
 70
8
 71
3
 72
8
 73
4
 74
0
 40
0
 40
0
 40
0
 40
0
 40
1
 40
1
 40
1
 40
1
 10
534.750590
 20
942.899840
 30
0.0
 10
527.903400
 20
937.440840
 30
0.0
 10
523.001260
 20
928.550640
 30
0.0
 10
513.582540
 20
927.627740
 30
0.0
  0
SPLINE
  5
2b7
100
AcDbEntity
  8
box
 62
7
100
AcDbSpline
 70
8
 71
3
 72
8
 73
4
 74
0
 40
0
 40
0
 40
0
 40
0
 40
1
 40
1
 40
1
 40
1
 10
513.582540
 20
927.627740
 30
0.0
 10
504.499960
 20
925.690840
 30
0.0
 10
495.621670
 20
920.488140
 30
0.0
 10
486.228740
 20
923.525040
 30
0.0
  0
SPLINE
  5
2b8
100
AcDbEntity
  8
box
 62
7
100
AcDbSpline
 70
8
 71
3
 72
8
 73
4
 74
0
 40
0
 40
0
 40
0
 40
0
 40
1
 40
1
 40
1
 40
1
 10
486.228740
 20
923.525040
 30
0.0
 10
475.619590
 20
925.070040
 30
0.0
 10
465.044390
 20
926.842240
 30
0.0
 10
454.514860
 20
928.860640
 30
0.0
  0
SPLINE
  5
2b9
100
AcDbEntity
  8
box
 62
7
100
AcDbSpline
 70
8
 71
3
 72
8
 73
4
 74
0
 40
0
 40
0
 40
0
 40
0
 40
1
 40
1
 40
1
 40
1
 10
454.514860
 20
928.860640
 30
0.0
 10
447.761270
 20
912.807040
 30
0.0
 10
441.626220
 20
896.259540
 30
0.0
 10
433.949370
 20
880.746240
 30
0.0
  0
SPLINE
  5
2ba
100
AcDbEntity
  8
box
 62
7
100
AcDbSpline
 70
8
 71
3
 72
8
 73
4
 74
0
 40
0
 40
0
 40
0
 40
0
 40
1
 40
1
 40
1
 40
1
 10
433.949370
 20
880.746240
 30
0.0
 10
426.270070
 20
873.646040
 30
0.0
 10
419.199380
 20
865.499240
 30
0.0
 10
411.138660
 20
859.055240
 30
0.0
  0
SPLINE
  5
2bb
100
AcDbEntity
  8
box
 62
7
100
AcDbSpline
 70
8
 71
3
 72
8
 73
4
 74
0
 40
0
 40
0
 40
0
 40
0
 40
1
 40
1
 40
1
 40
1
 10
411.138660
 20
859.055240
 30
0.0
 10
401.758960
 20
856.704940
 30
0.0
 10
392.387730
 20
852.997440
 30
0.0
 10
383.003140
 20
851.484140
 30
0.0
  0
SPLINE
  5
2bc
100
AcDbEntity
  8
box
 62
7
100
AcDbSpline
 70
8
 71
3
 72
8
 73
4
 74
0
 40
0
 40
0
 40
0
 40
0
 40
1
 40
1
 40
1
 40
1
 10
383.003140
 20
851.484140
 30
0.0
 10
374.971220
 20
853.136940
 30
0.0
 10
367.015840
 20
856.965940
 30
0.0
 10
358.933900
 20
857.206940
 30
0.0
  0
SPLINE
  5
2bd
100
AcDbEntity
  8
box
 62
7
100
AcDbSpline
 70
8
 71
3
 72
8
 73
4
 74
0
 40
0
 40
0
 40
0
 40
0
 40
1
 40
1
 40
1
 40
1
 10
358.933900
 20
857.206940
 30
0.0
 10
353.627330
 20
854.917640
 30
0.0
 10
346.994810
 20
855.236640
 30
0.0
 10
348.665190
 20
862.160540
 30
0.0
  0
SPLINE
  5
2be
100
AcDbEntity
  8
box
 62
7
100
AcDbSpline
 70
8
 71
3
 72
8
 73
4
 74
0
 40
0
 40
0
 40
0
 40
0
 40
1
 40
1
 40
1
 40
1
 10
348.665190
 20
862.160540
 30
0.0
 10
352.933010
 20
866.103440
 30
0.0
 10
355.547540
 20
873.187640
 30
0.0
 10
362.431720
 20
872.160240
 30
0.0
  0
SPLINE
  5
2bf
100
AcDbEntity
  8
box
 62
7
100
AcDbSpline
 70
8
 71
3
 72
8
 73
4
 74
0
 40
0
 40
0
 40
0
 40
0
 40
1
 40
1
 40
1
 40
1
 10
362.431720
 20
872.160240
 30
0.0
 10
373.337790
 20
873.584240
 30
0.0
 10
384.575330
 20
874.295740
 30
0.0
 10
394.780570
 20
878.711840
 30
0.0
  0
SPLINE
  5
2c0
100
AcDbEntity
  8
box
 62
7
100
AcDbSpline
 70
8
 71
3
 72
8
 73
4
 74
0
 40
0
 40
0
 40
0
 40
0
 40
1
 40
1
 40
1
 40
1
 10
394.780570
 20
878.711840
 30
0.0
 10
397.008670
 20
884.271340
 30
0.0
 10
399.537360
 20
895.512140
 30
0.0
 10
390.192790
 20
893.963740
 30
0.0
  0
SPLINE
  5
2c1
100
AcDbEntity
  8
box
 62
7
100
AcDbSpline
 70
8
 71
3
 72
8
 73
4
 74
0
 40
0
 40
0
 40
0
 40
0
 40
1
 40
1
 40
1
 40
1
 10
390.192790
 20
893.963740
 30
0.0
 10
382.093040
 20
895.399140
 30
0.0
 10
374.004510
 20
896.498240
 30
0.0
 10
366.041450
 20
893.743140
 30
0.0
  0
SPLINE
  5
2c2
100
AcDbEntity
  8
box
 62
7
100
AcDbSpline
 70
8
 71
3
 72
8
 73
4
 74
0
 40
0
 40
0
 40
0
 40
0
 40
1
 40
1
 40
1
 40
1
 10
366.041450
 20
893.743140
 30
0.0
 10
359.510470
 20
893.454040
 30
0.0
 10
354.308770
 20
890.249140
 30
0.0
 10
349.615400
 20
885.930640
 30
0.0
  0
SPLINE
  5
2c3
100
AcDbEntity
  8
box
 62
7
100
AcDbSpline
 70
8
 71
3
 72
8
 73
4
 74
0
 40
0
 40
0
 40
0
 40
0
 40
1
 40
1
 40
1
 40
1
 10
349.615400
 20
885.930640
 30
0.0
 10
341.520680
 20
881.246340
 30
0.0
 10
340.813170
 20
870.807640
 30
0.0
 10
336.472620
 20
863.199140
 30
0.0
  0
SPLINE
  5
2c4
100
AcDbEntity
  8
box
 62
7
100
AcDbSpline
 70
8
 71
3
 72
8
 73
4
 74
0
 40
0
 40
0
 40
0
 40
0
 40
1
 40
1
 40
1
 40
1
 10
336.472620
 20
863.199140
 30
0.0
 10
336.104240
 20
857.248540
 30
0.0
 10
327.497330
 20
853.408840
 30
0.0
 10
328.508710
 20
861.813640
 30
0.0
  0
SPLINE
  5
2c5
100
AcDbEntity
  8
box
 62
7
100
AcDbSpline
 70
8
 71
3
 72
8
 73
4
 74
0
 40
0
 40
0
 40
0
 40
0
 40
1
 40
1
 40
1
 40
1
 10
328.508710
 20
861.813640
 30
0.0
 10
326.676060
 20
869.722440
 30
0.0
 10
324.763050
 20
877.628540
 30
0.0
 10
327.068420
 20
885.660440
 30
0.0
  0
SPLINE
  5
2c6
100
AcDbEntity
  8
box
 62
7
100
AcDbSpline
 70
8
 71
3
 72
8
 73
4
 74
0
 40
0
 40
0
 40
0
 40
0
 40
1
 40
1
 40
1
 40
1
 10
327.068420
 20
885.660440
 30
0.0
 10
327.589960
 20
893.155540
 30
0.0
 10
334.167890
 20
898.343240
 30
0.0
 10
337.508650
 20
904.764440
 30
0.0
  0
SPLINE
  5
2c7
100
AcDbEntity
  8
box
 62
7
100
AcDbSpline
 70
8
 71
3
 72
8
 73
4
 74
0
 40
0
 40
0
 40
0
 40
0
 40
1
 40
1
 40
1
 40
1
 10
337.508650
 20
904.764440
 30
0.0
 10
347.416250
 20
911.314040
 30
0.0
 10
356.098930
 20
920.219240
 30
0.0
 10
368.062560
 20
922.814940
 30
0.0
  0
SPLINE
  5
2c8
100
AcDbEntity
  8
box
 62
7
100
AcDbSpline
 70
8
 71
3
 72
8
 73
4
 74
0
 40
0
 40
0
 40
0
 40
0
 40
1
 40
1
 40
1
 40
1
 10
368.062560
 20
922.814940
 30
0.0
 10
376.623880
 20
925.810740
 30
0.0
 10
385.185460
 20
928.806640
 30
0.0
 10
393.747000
 20
931.802240
 30
0.0
  0
SPLINE
  5
2c9
100
AcDbEntity
  8
box
 62
7
100
AcDbSpline
 70
8
 71
3
 72
8
 73
4
 74
0
 40
0
 40
0
 40
0
 40
0
 40
1
 40
1
 40
1
 40
1
 10
393.747000
 20
931.802240
 30
0.0
 10
392.860740
 20
937.933840
 30
0.0
 10
389.371220
 20
941.582540
 30
0.0
 10
383.257810
 20
942.728140
 30
0.0
  0
SPLINE
  5
2ca
100
AcDbEntity
  8
box
 62
7
100
AcDbSpline
 70
8
 71
3
 72
8
 73
4
 74
0
 40
0
 40
0
 40
0
 40
0
 40
1
 40
1
 40
1
 40
1
 10
383.257810
 20
942.728140
 30
0.0
 10
376.991510
 20
945.588640
 30
0.0
 10
370.692940
 20
948.259440
 30
0.0
 10
363.680910
 20
946.754940
 30
0.0
  0
SPLINE
  5
2cb
100
AcDbEntity
  8
box
 62
7
100
AcDbSpline
 70
8
 71
3
 72
8
 73
4
 74
0
 40
0
 40
0
 40
0
 40
0
 40
1
 40
1
 40
1
 40
1
 10
363.680910
 20
946.754940
 30
0.0
 10
357.738350
 20
947.320340
 30
0.0
 10
352.507410
 20
945.758840
 30
0.0
 10
348.131900
 20
941.636540
 30
0.0
  0
SPLINE
  5
2cc
100
AcDbEntity
  8
box
 62
7
100
AcDbSpline
 70
8
 71
3
 72
8
 73
4
 74
0
 40
0
 40
0
 40
0
 40
0
 40
1
 40
1
 40
1
 40
1
 10
348.131900
 20
941.636540
 30
0.0
 10
342.469730
 20
938.393340
 30
0.0
 10
337.546310
 20
934.458240
 30
0.0
 10
335.078710
 20
928.221340
 30
0.0
  0
SPLINE
  5
2cd
100
AcDbEntity
  8
box
 62
7
100
AcDbSpline
 70
8
 71
3
 72
8
 73
4
 74
0
 40
0
 40
0
 40
0
 40
0
 40
1
 40
1
 40
1
 40
1
 10
335.078710
 20
928.221340
 30
0.0
 10
327.496660
 20
916.942140
 30
0.0
 10
326.221650
 20
902.923040
 30
0.0
 10
321.717260
 20
890.307040
 30
0.0
  0
SPLINE
  5
2ce
100
AcDbEntity
  8
box
 62
7
100
AcDbSpline
 70
8
 71
3
 72
8
 73
4
 74
0
 40
0
 40
0
 40
0
 40
0
 40
1
 40
1
 40
1
 40
1
 10
321.717260
 20
890.307040
 30
0.0
 10
318.524270
 20
880.979940
 30
0.0
 10
316.935890
 20
870.857140
 30
0.0
 10
312.765790
 20
862.015040
 30
0.0
  0
SPLINE
  5
2cf
100
AcDbEntity
  8
box
 62
7
100
AcDbSpline
 70
8
 71
3
 72
8
 73
4
 74
0
 40
0
 40
0
 40
0
 40
0
 40
1
 40
1
 40
1
 40
1
 10
312.765790
 20
862.015040
 30
0.0
 10
307.672320
 20
856.003140
 30
0.0
 10
304.555750
 20
847.503040
 30
0.0
 10
296.090610
 20
845.735640
 30
0.0
  0
SPLINE
  5
2d0
100
AcDbEntity
  8
box
 62
7
100
AcDbSpline
 70
8
 71
3
 72
8
 73
4
 74
0
 40
0
 40
0
 40
0
 40
0
 40
1
 40
1
 40
1
 40
1
 10
296.090610
 20
845.735640
 30
0.0
 10
286.488060
 20
842.408240
 30
0.0
 10
277.694490
 20
835.319940
 30
0.0
 10
267.083010
 20
836.681840
 30
0.0
  0
SPLINE
  5
2d1
100
AcDbEntity
  8
box
 62
7
100
AcDbSpline
 70
8
 71
3
 72
8
 73
4
 74
0
 40
0
 40
0
 40
0
 40
0
 40
1
 40
1
 40
1
 40
1
 10
267.083010
 20
836.681840
 30
0.0
 10
259.758620
 20
836.880240
 30
0.0
 10
251.897320
 20
834.817240
 30
0.0
 10
245.732940
 20
839.898640
 30
0.0
  0
SPLINE
  5
2d2
100
AcDbEntity
  8
box
 62
7
100
AcDbSpline
 70
8
 71
3
 72
8
 73
4
 74
0
 40
0
 40
0
 40
0
 40
0
 40
1
 40
1
 40
1
 40
1
 10
245.732940
 20
839.898640
 30
0.0
 10
239.370020
 20
843.711840
 30
0.0
 10
231.613430
 20
846.321140
 30
0.0
 10
226.116660
 20
850.882940
 30
0.0
  0
SPLINE
  5
2d3
100
AcDbEntity
  8
box
 62
7
100
AcDbSpline
 70
8
 71
3
 72
8
 73
4
 74
0
 40
0
 40
0
 40
0
 40
0
 40
1
 40
1
 40
1
 40
1
 10
226.116660
 20
850.882940
 30
0.0
 10
221.365910
 20
861.320440
 30
0.0
 10
239.118400
 20
856.550940
 30
0.0
 10
245.455800
 20
858.580340
 30
0.0
  0
SPLINE
  5
2d4
100
AcDbEntity
  8
box
 62
7
100
AcDbSpline
 70
8
 71
3
 72
8
 73
4
 74
0
 40
0
 40
0
 40
0
 40
0
 40
1
 40
1
 40
1
 40
1
 10
245.455800
 20
858.580340
 30
0.0
 10
254.409380
 20
858.632340
 30
0.0
 10
262.383970
 20
863.294840
 30
0.0
 10
270.829290
 20
865.740140
 30
0.0
  0
SPLINE
  5
2d5
100
AcDbEntity
  8
box
 62
7
100
AcDbSpline
 70
8
 71
3
 72
8
 73
4
 74
0
 40
0
 40
0
 40
0
 40
0
 40
1
 40
1
 40
1
 40
1
 10
270.829290
 20
865.740140
 30
0.0
 10
272.571330
 20
871.650640
 30
0.0
 10
278.712030
 20
877.382940
 30
0.0
 10
274.629420
 20
883.529640
 30
0.0
  0
SPLINE
  5
2d6
100
AcDbEntity
  8
box
 62
7
100
AcDbSpline
 70
8
 71
3
 72
8
 73
4
 74
0
 40
0
 40
0
 40
0
 40
0
 40
1
 40
1
 40
1
 40
1
 10
274.629420
 20
883.529640
 30
0.0
 10
274.004340
 20
890.978240
 30
0.0
 10
265.406180
 20
891.074040
 30
0.0
 10
260.193110
 20
894.291640
 30
0.0
  0
SPLINE
  5
2d7
100
AcDbEntity
  8
box
 62
7
100
AcDbSpline
 70
8
 71
3
 72
8
 73
4
 74
0
 40
0
 40
0
 40
0
 40
0
 40
1
 40
1
 40
1
 40
1
 10
260.193110
 20
894.291640
 30
0.0
 10
246.865840
 20
888.861140
 30
0.0
 10
238.828680
 20
875.354140
 30
0.0
 10
227.757550
 20
866.806340
 30
0.0
  0
SPLINE
  5
2d8
100
AcDbEntity
  8
box
 62
7
100
AcDbSpline
 70
8
 71
3
 72
8
 73
4
 74
0
 40
0
 40
0
 40
0
 40
0
 40
1
 40
1
 40
1
 40
1
 10
227.757550
 20
866.806340
 30
0.0
 10
219.851520
 20
864.677740
 30
0.0
 10
212.116460
 20
860.058340
 30
0.0
 10
204.099070
 20
859.550440
 30
0.0
  0
SPLINE
  5
2d9
100
AcDbEntity
  8
box
 62
7
100
AcDbSpline
 70
8
 71
3
 72
8
 73
4
 74
0
 40
0
 40
0
 40
0
 40
0
 40
1
 40
1
 40
1
 40
1
 10
204.099070
 20
859.550440
 30
0.0
 10
189.871290
 20
861.588640
 30
0.0
 10
177.131570
 20
868.548440
 30
0.0
 10
164.604160
 20
875.201640
 30
0.0
  0
SPLINE
  5
2da
100
AcDbEntity
  8
box
 62
7
100
AcDbSpline
 70
8
 71
3
 72
8
 73
4
 74
0
 40
0
 40
0
 40
0
 40
0
 40
1
 40
1
 40
1
 40
1
 10
164.604160
 20
875.201640
 30
0.0
 10
158.044160
 20
873.061840
 30
0.0
 10
149.399570
 20
862.505040
 30
0.0
 10
145.205320
 20
864.711140
 30
0.0
  0
SPLINE
  5
2db
100
AcDbEntity
  8
box
 62
7
100
AcDbSpline
 70
8
 71
3
 72
8
 73
4
 74
0
 40
0
 40
0
 40
0
 40
0
 40
1
 40
1
 40
1
 40
1
 10
145.205320
 20
864.711140
 30
0.0
 10
141.688270
 20
869.852240
 30
0.0
 10
144.510740
 20
874.672640
 30
0.0
 10
147.076980
 20
879.507040
 30
0.0
  0
SPLINE
  5
2dc
100
AcDbEntity
  8
box
 62
7
100
AcDbSpline
 70
8
 71
3
 72
8
 73
4
 74
0
 40
0
 40
0
 40
0
 40
0
 40
1
 40
1
 40
1
 40
1
 10
147.076980
 20
879.507040
 30
0.0
 10
149.135900
 20
885.146240
 30
0.0
 10
152.006650
 20
890.133940
 30
0.0
 10
157.478130
 20
893.033540
 30
0.0
  0
SPLINE
  5
2dd
100
AcDbEntity
  8
box
 62
7
100
AcDbSpline
 70
8
 71
3
 72
8
 73
4
 74
0
 40
0
 40
0
 40
0
 40
0
 40
1
 40
1
 40
1
 40
1
 10
157.478130
 20
893.033540
 30
0.0
 10
164.327740
 20
900.598740
 30
0.0
 10
175.276600
 20
899.199040
 30
0.0
 10
184.538390
 20
899.800440
 30
0.0
  0
SPLINE
  5
2de
100
AcDbEntity
  8
box
 62
7
100
AcDbSpline
 70
8
 71
3
 72
8
 73
4
 74
0
 40
0
 40
0
 40
0
 40
0
 40
1
 40
1
 40
1
 40
1
 10
184.538390
 20
899.800440
 30
0.0
 10
193.043610
 20
901.609340
 30
0.0
 10
211.666080
 20
894.385340
 30
0.0
 10
214.847860
 20
904.365040
 30
0.0
  0
SPLINE
  5
2df
100
AcDbEntity
  8
box
 62
7
100
AcDbSpline
 70
8
 71
3
 72
8
 73
4
 74
0
 40
0
 40
0
 40
0
 40
0
 40
1
 40
1
 40
1
 40
1
 10
214.847860
 20
904.365040
 30
0.0
 10
215.130050
 20
910.182540
 30
0.0
 10
209.162190
 20
914.099840
 30
0.0
 10
206.787660
 20
919.109840
 30
0.0
  0
SPLINE
  5
2e0
100
AcDbEntity
  8
box
 62
7
100
AcDbSpline
 70
8
 71
3
 72
8
 73
4
 74
0
 40
0
 40
0
 40
0
 40
0
 40
1
 40
1
 40
1
 40
1
 10
206.787660
 20
919.109840
 30
0.0
 10
198.905010
 20
922.157240
 30
0.0
 10
191.760230
 20
928.775040
 30
0.0
 10
182.836420
 20
926.779740
 30
0.0
  0
SPLINE
  5
2e1
100
AcDbEntity
  8
box
 62
7
100
AcDbSpline
 70
8
 71
3
 72
8
 73
4
 74
0
 40
0
 40
0
 40
0
 40
0
 40
1
 40
1
 40
1
 40
1
 10
182.836420
 20
926.779740
 30
0.0
 10
175.669350
 20
928.893540
 30
0.0
 10
162.002010
 20
919.565340
 30
0.0
 10
161.174430
 20
931.035040
 30
0.0
  0
SPLINE
  5
2e2
100
AcDbEntity
  8
box
 62
7
100
AcDbSpline
 70
8
 71
3
 72
8
 73
4
 74
0
 40
0
 40
0
 40
0
 40
0
 40
1
 40
1
 40
1
 40
1
 10
161.174430
 20
931.035040
 30
0.0
 10
167.777960
 20
937.153340
 30
0.0
 10
173.194840
 20
945.071540
 30
0.0
 10
180.548820
 20
950.050940
 30
0.0
  0
SPLINE
  5
2e3
100
AcDbEntity
  8
box
 62
7
100
AcDbSpline
 70
8
 71
3
 72
8
 73
4
 74
0
 40
0
 40
0
 40
0
 40
0
 40
1
 40
1
 40
1
 40
1
 10
180.548820
 20
950.050940
 30
0.0
 10
187.436450
 20
952.121440
 30
0.0
 10
194.440320
 20
956.287640
 30
0.0
 10
201.258200
 20
957.104740
 30
0.0
  0
SPLINE
  5
2e4
100
AcDbEntity
  8
box
 62
7
100
AcDbSpline
 70
8
 71
3
 72
8
 73
4
 74
0
 40
0
 40
0
 40
0
 40
0
 40
1
 40
1
 40
1
 40
1
 10
201.258200
 20
957.104740
 30
0.0
 10
213.642910
 20
951.261140
 30
0.0
 10
225.534820
 20
943.840940
 30
0.0
 10
238.227630
 20
938.982940
 30
0.0
  0
SPLINE
  5
2e5
100
AcDbEntity
  8
box
 62
7
100
AcDbSpline
 70
8
 71
3
 72
8
 73
4
 74
0
 40
0
 40
0
 40
0
 40
0
 40
1
 40
1
 40
1
 40
1
 10
238.227630
 20
938.982940
 30
0.0
 10
246.563580
 20
938.264240
 30
0.0
 10
257.203410
 20
934.814040
 30
0.0
 10
264.068920
 20
940.211740
 30
0.0
  0
SPLINE
  5
2e6
100
AcDbEntity
  8
box
 62
7
100
AcDbSpline
 70
8
 71
3
 72
8
 73
4
 74
0
 40
0
 40
0
 40
0
 40
0
 40
1
 40
1
 40
1
 40
1
 10
264.068920
 20
940.211740
 30
0.0
 10
268.546640
 20
946.009140
 30
0.0
 10
263.231880
 20
950.622740
 30
0.0
 10
260.045000
 20
955.493640
 30
0.0
  0
SPLINE
  5
2e7
100
AcDbEntity
  8
box
 62
7
100
AcDbSpline
 70
8
 71
3
 72
8
 73
4
 74
0
 40
0
 40
0
 40
0
 40
0
 40
1
 40
1
 40
1
 40
1
 10
260.045000
 20
955.493640
 30
0.0
 10
254.312470
 20
962.658340
 30
0.0
 10
250.393500
 20
970.740240
 30
0.0
 10
247.936390
 20
979.561540
 30
0.0
  0
SPLINE
  5
2e8
100
AcDbEntity
  8
box
 62
7
100
AcDbSpline
 70
8
 71
3
 72
8
 73
4
 74
0
 40
0
 40
0
 40
0
 40
0
 40
1
 40
1
 40
1
 40
1
 10
247.936390
 20
979.561540
 30
0.0
 10
246.084390
 20
985.570540
 30
0.0
 10
248.200640
 20
992.139740
 30
0.0
 10
248.021490
 20
998.384640
 30
0.0
  0
SPLINE
  5
2e9
100
AcDbEntity
  8
box
 62
7
100
AcDbSpline
 70
8
 71
3
 72
8
 73
4
 74
0
 40
0
 40
0
 40
0
 40
0
 40
1
 40
1
 40
1
 40
1
 10
248.021490
 20
998.384640
 30
0.0
 10
253.540300
 20
1002.510100
 30
0.0
 10
257.025190
 20
996.720340
 30
0.0
 10
261.010750
 20
993.369340
 30
0.0
  0
SPLINE
  5
2ea
100
AcDbEntity
  8
box
 62
7
100
AcDbSpline
 70
8
 71
3
 72
8
 73
4
 74
0
 40
0
 40
0
 40
0
 40
0
 40
1
 40
1
 40
1
 40
1
 10
261.010750
 20
993.369340
 30
0.0
 10
266.732190
 20
988.364340
 30
0.0
 10
271.756480
 20
982.113440
 30
0.0
 10
279.828440
 20
981.307940
 30
0.0
  0
SPLINE
  5
2eb
100
AcDbEntity
  8
box
 62
7
100
AcDbSpline
 70
8
 71
3
 72
8
 73
4
 74
0
 40
0
 40
0
 40
0
 40
0
 40
1
 40
1
 40
1
 40
1
 10
279.828440
 20
981.307940
 30
0.0
 10
287.781850
 20
978.490640
 30
0.0
 10
295.829870
 20
976.399340
 30
0.0
 10
304.316860
 20
977.674340
 30
0.0
  0
SPLINE
  5
2ec
100
AcDbEntity
  8
box
 62
7
100
AcDbSpline
 70
8
 71
3
 72
8
 73
4
 74
0
 40
0
 40
0
 40
0
 40
0
 40
1
 40
1
 40
1
 40
1
 10
304.316860
 20
977.674340
 30
0.0
 10
310.695400
 20
978.351440
 30
0.0
 10
318.146290
 20
976.116840
 30
0.0
 10
322.595240
 20
982.031440
 30
0.0
  0
SPLINE
  5
2ed
100
AcDbEntity
  8
box
 62
7
100
AcDbSpline
 70
8
 71
3
 72
8
 73
4
 74
0
 40
0
 40
0
 40
0
 40
0
 40
1
 40
1
 40
1
 40
1
 10
322.595240
 20
982.031440
 30
0.0
 10
329.892830
 20
984.720340
 30
0.0
 10
325.797200
 20
990.681840
 30
0.0
 10
324.018690
 20
995.977740
 30
0.0
  0
SPLINE
  5
2ee
100
AcDbEntity
  8
box
 62
7
100
AcDbSpline
 70
8
 71
3
 72
8
 73
4
 74
0
 40
0
 40
0
 40
0
 40
0
 40
1
 40
1
 40
1
 40
1
 10
324.018690
 20
995.977740
 30
0.0
 10
316.206740
 20
997.100440
 30
0.0
 10
308.211540
 20
1002.803800
 30
0.0
 10
300.623400
 20
998.348940
 30
0.0
  0
SPLINE
  5
2ef
100
AcDbEntity
  8
box
 62
7
100
AcDbSpline
 70
8
 71
3
 72
8
 73
4
 74
0
 40
0
 40
0
 40
0
 40
0
 40
1
 40
1
 40
1
 40
1
 10
300.623400
 20
998.348940
 30
0.0
 10
296.508000
 20
998.246140
 30
0.0
 10
288.946960
 20
990.988640
 30
0.0
 10
287.864960
 20
997.185340
 30
0.0
  0
SPLINE
  5
2f0
100
AcDbEntity
  8
box
 62
7
100
AcDbSpline
 70
8
 71
3
 72
8
 73
4
 74
0
 40
0
 40
0
 40
0
 40
0
 40
1
 40
1
 40
1
 40
1
 10
287.864960
 20
997.185340
 30
0.0
 10
285.301680
 20
1002.462700
 30
0.0
 10
292.607260
 20
1006.354900
 30
0.0
 10
294.526530
 20
1011.003300
 30
0.0
  0
SPLINE
  5
2f1
100
AcDbEntity
  8
box
 62
7
100
AcDbSpline
 70
8
 71
3
 72
8
 73
4
 74
0
 40
0
 40
0
 40
0
 40
0
 40
1
 40
1
 40
1
 40
1
 10
294.526530
 20
1011.003300
 30
0.0
 10
298.326680
 20
1017.280500
 30
0.0
 10
307.022040
 20
1017.393800
 30
0.0
 10
313.036400
 20
1020.883300
 30
0.0
  0
SPLINE
  5
2f2
100
AcDbEntity
  8
box
 62
7
100
AcDbSpline
 70
8
 71
3
 72
8
 73
4
 74
0
 40
0
 40
0
 40
0
 40
0
 40
1
 40
1
 40
1
 40
1
 10
313.036400
 20
1020.883300
 30
0.0
 10
320.251610
 20
1024.069500
 30
0.0
 10
327.472460
 20
1027.383100
 30
0.0
 10
335.566250
 20
1026.191200
 30
0.0
  0
SPLINE
  5
2f3
100
AcDbEntity
  8
box
 62
7
100
AcDbSpline
 70
8
 71
3
 72
8
 73
4
 74
0
 40
0
 40
0
 40
0
 40
0
 40
1
 40
1
 40
1
 40
1
 10
335.566250
 20
1026.191200
 30
0.0
 10
345.797270
 20
1024.988000
 30
0.0
 10
356.818390
 20
1023.841100
 30
0.0
 10
366.082630
 20
1019.227800
 30
0.0
  0
SPLINE
  5
2f4
100
AcDbEntity
  8
box
 62
7
100
AcDbSpline
 70
8
 71
3
 72
8
 73
4
 74
0
 40
0
 40
0
 40
0
 40
0
 40
1
 40
1
 40
1
 40
1
 10
366.082630
 20
1019.227800
 30
0.0
 10
383.648950
 20
1007.939000
 30
0.0
 10
401.067830
 20
994.665640
 30
0.0
 10
421.638510
 20
989.977840
 30
0.0
  0
SPLINE
  5
2f5
100
AcDbEntity
  8
box
 62
7
100
AcDbSpline
 70
8
 71
3
 72
8
 73
4
 74
0
 40
0
 40
0
 40
0
 40
0
 40
1
 40
1
 40
1
 40
1
 10
421.638510
 20
989.977840
 30
0.0
 10
434.228390
 20
1004.550200
 30
0.0
 10
440.684210
 20
1024.318100
 30
0.0
 10
455.474410
 20
1036.989800
 30
0.0
  0
SPLINE
  5
2f6
100
AcDbEntity
  8
box
 62
7
100
AcDbSpline
 70
8
 71
3
 72
8
 73
4
 74
0
 40
0
 40
0
 40
0
 40
0
 40
1
 40
1
 40
1
 40
1
 10
455.474410
 20
1036.989800
 30
0.0
 10
465.432520
 20
1040.629300
 30
0.0
 10
474.446360
 20
1048.121500
 30
0.0
 10
485.498850
 20
1047.296000
 30
0.0
  0
SPLINE
  5
2f7
100
AcDbEntity
  8
box
 62
7
100
AcDbSpline
 70
8
 71
3
 72
8
 73
4
 74
0
 40
0
 40
0
 40
0
 40
0
 40
1
 40
1
 40
1
 40
1
 10
485.498850
 20
1047.296000
 30
0.0
 10
493.681520
 20
1047.450600
 30
0.0
 10
502.205270
 20
1049.735600
 30
0.0
 10
509.626040
 20
1045.134800
 30
0.0
  0
SPLINE
  5
2f8
100
AcDbEntity
  8
box
 62
7
100
AcDbSpline
 70
8
 71
3
 72
8
 73
4
 74
0
 40
0
 40
0
 40
0
 40
0
 40
1
 40
1
 40
1
 40
1
 10
509.626040
 20
1045.134800
 30
0.0
 10
517.209350
 20
1041.853500
 30
0.0
 10
526.029190
 20
1040.439100
 30
0.0
 10
530.935520
 20
1033.114700
 30
0.0
  0
SPLINE
  5
2f9
100
AcDbEntity
  8
box
 62
7
100
AcDbSpline
 70
8
 71
3
 72
8
 73
4
 74
0
 40
0
 40
0
 40
0
 40
0
 40
1
 40
1
 40
1
 40
1
 10
530.935520
 20
1033.114700
 30
0.0
 10
536.356200
 20
1027.182100
 30
0.0
 10
543.561310
 20
1022.350300
 30
0.0
 10
544.766290
 20
1013.816300
 30
0.0
  0
SPLINE
  5
2fa
100
AcDbEntity
  8
box
 62
7
100
AcDbSpline
 70
8
 71
3
 72
8
 73
4
 74
0
 40
0
 40
0
 40
0
 40
0
 40
1
 40
1
 40
1
 40
1
 10
544.766290
 20
1013.816300
 30
0.0
 10
547.783610
 20
1004.274200
 30
0.0
 10
552.798880
 20
995.071740
 30
0.0
 10
551.319510
 20
984.764040
 30
0.0
  0
SPLINE
  5
2fb
100
AcDbEntity
  8
box
 62
7
100
AcDbSpline
 70
8
 71
3
 72
8
 73
4
 74
0
 40
0
 40
0
 40
0
 40
0
 40
1
 40
1
 40
1
 40
1
 10
551.319510
 20
984.764040
 30
0.0
 10
551.323510
 20
984.091240
 30
0.0
 10
551.322510
 20
983.406040
 30
0.0
 10
551.329510
 20
982.735340
 30
0.0
  0
LWPOLYLINE
  5
2fc
100
AcDbEntity
  8
box
 62
7
100
AcDbPolyline
 90
4
 70
0
 10
531.680840
 20
805.269840
 30
0.0
 10
565.562840
 20
805.269840
 30
0.0
 10
565.562840
 20
818.769840
 30
0.0
 10
585.945840
 20
818.769840
 30
0.0
  0
SPLINE
  5
2fd
100
AcDbEntity
  8
box
 62
7
100
AcDbSpline
 70
8
 71
3
 72
8
 73
4
 74
0
 40
0
 40
0
 40
0
 40
0
 40
1
 40
1
 40
1
 40
1
 10
529.134320
 20
1026.561000
 30
0.0
 10
525.172030
 20
1031.756100
 30
0.0
 10
520.145120
 20
1035.359600
 30
0.0
 10
513.766620
 20
1036.943400
 30
0.0
  0
SPLINE
  5
2fe
100
AcDbEntity
  8
box
 62
7
100
AcDbSpline
 70
8
 71
3
 72
8
 73
4
 74
0
 40
0
 40
0
 40
0
 40
0
 40
1
 40
1
 40
1
 40
1
 10
513.766620
 20
1036.943400
 30
0.0
 10
506.578610
 20
1039.634800
 30
0.0
 10
499.600540
 20
1043.812600
 30
0.0
 10
491.708390
 20
1041.533700
 30
0.0
  0
SPLINE
  5
2ff
100
AcDbEntity
  8
box
 62
7
100
AcDbSpline
 70
8
 71
3
 72
8
 73
4
 74
0
 40
0
 40
0
 40
0
 40
0
 40
1
 40
1
 40
1
 40
1
 10
491.708390
 20
1041.533700
 30
0.0
 10
481.429610
 20
1040.239700
 30
0.0
 10
470.317190
 20
1038.320100
 30
0.0
 10
461.447060
 20
1032.952300
 30
0.0
  0
SPLINE
  5
300
100
AcDbEntity
  8
box
 62
7
100
AcDbSpline
 70
8
 71
3
 72
8
 73
4
 74
0
 40
0
 40
0
 40
0
 40
0
 40
1
 40
1
 40
1
 40
1
 10
461.447060
 20
1032.952300
 30
0.0
 10
454.534510
 20
1026.447700
 30
0.0
 10
447.129350
 20
1020.327000
 30
0.0
 10
443.442290
 20
1011.307100
 30
0.0
  0
SPLINE
  5
301
100
AcDbEntity
  8
box
 62
7
100
AcDbSpline
 70
8
 71
3
 72
8
 73
4
 74
0
 40
0
 40
0
 40
0
 40
0
 40
1
 40
1
 40
1
 40
1
 10
443.442290
 20
1011.307100
 30
0.0
 10
438.669690
 20
1003.757500
 30
0.0
 10
435.042400
 20
994.835240
 30
0.0
 10
429.562590
 20
988.133640
 30
0.0
  0
SPLINE
  5
302
100
AcDbEntity
  8
box
 62
7
100
AcDbSpline
 70
8
 71
3
 72
8
 73
4
 74
0
 40
0
 40
0
 40
0
 40
0
 40
1
 40
1
 40
1
 40
1
 10
429.562590
 20
988.133640
 30
0.0
 10
423.466630
 20
987.102640
 30
0.0
 10
417.120390
 20
980.920340
 30
0.0
 10
411.281410
 20
985.169440
 30
0.0
  0
SPLINE
  5
303
100
AcDbEntity
  8
box
 62
7
100
AcDbSpline
 70
8
 71
3
 72
8
 73
4
 74
0
 40
0
 40
0
 40
0
 40
0
 40
1
 40
1
 40
1
 40
1
 10
411.281410
 20
985.169440
 30
0.0
 10
388.138060
 20
994.737840
 30
0.0
 10
368.894480
 20
1012.959300
 30
0.0
 10
344.582180
 20
1019.556700
 30
0.0
  0
SPLINE
  5
304
100
AcDbEntity
  8
box
 62
7
100
AcDbSpline
 70
8
 71
3
 72
8
 73
4
 74
0
 40
0
 40
0
 40
0
 40
0
 40
1
 40
1
 40
1
 40
1
 10
344.582180
 20
1019.556700
 30
0.0
 10
336.712480
 20
1019.899900
 30
0.0
 10
328.629320
 20
1021.895400
 30
0.0
 10
321.317200
 20
1017.921000
 30
0.0
  0
SPLINE
  5
305
100
AcDbEntity
  8
box
 62
7
100
AcDbSpline
 70
8
 71
3
 72
8
 73
4
 74
0
 40
0
 40
0
 40
0
 40
0
 40
1
 40
1
 40
1
 40
1
 10
321.317200
 20
1017.921000
 30
0.0
 10
315.290300
 20
1015.058500
 30
0.0
 10
307.337420
 20
1015.056200
 30
0.0
 10
302.682610
 20
1010.156200
 30
0.0
  0
SPLINE
  5
306
100
AcDbEntity
  8
box
 62
7
100
AcDbSpline
 70
8
 71
3
 72
8
 73
4
 74
0
 40
0
 40
0
 40
0
 40
0
 40
1
 40
1
 40
1
 40
1
 10
302.682610
 20
1010.156200
 30
0.0
 10
295.477410
 20
1004.175300
 30
0.0
 10
300.650540
 20
1004.443200
 30
0.0
 10
307.368730
 20
1005.490700
 30
0.0
  0
SPLINE
  5
307
100
AcDbEntity
  8
box
 62
7
100
AcDbSpline
 70
8
 71
3
 72
8
 73
4
 74
0
 40
0
 40
0
 40
0
 40
0
 40
1
 40
1
 40
1
 40
1
 10
307.368730
 20
1005.490700
 30
0.0
 10
312.689380
 20
1006.112100
 30
0.0
 10
318.070080
 20
1006.989000
 30
0.0
 10
322.274640
 20
1002.857600
 30
0.0
  0
SPLINE
  5
308
100
AcDbEntity
  8
box
 62
7
100
AcDbSpline
 70
8
 71
3
 72
8
 73
4
 74
0
 40
0
 40
0
 40
0
 40
0
 40
1
 40
1
 40
1
 40
1
 10
322.274640
 20
1002.857600
 30
0.0
 10
327.003710
 20
999.879440
 30
0.0
 10
333.182230
 20
998.089040
 30
0.0
 10
333.632240
 20
991.605640
 30
0.0
  0
SPLINE
  5
309
100
AcDbEntity
  8
box
 62
7
100
AcDbSpline
 70
8
 71
3
 72
8
 73
4
 74
0
 40
0
 40
0
 40
0
 40
0
 40
1
 40
1
 40
1
 40
1
 10
333.632240
 20
991.605640
 30
0.0
 10
336.326780
 20
987.066640
 30
0.0
 10
332.429960
 20
980.216040
 30
0.0
 10
328.754570
 20
977.859240
 30
0.0
  0
SPLINE
  5
30a
100
AcDbEntity
  8
box
 62
7
100
AcDbSpline
 70
8
 71
3
 72
8
 73
4
 74
0
 40
0
 40
0
 40
0
 40
0
 40
1
 40
1
 40
1
 40
1
 10
328.754570
 20
977.859240
 30
0.0
 10
319.528090
 20
975.746940
 30
0.0
 10
310.450980
 20
971.614740
 30
0.0
 10
301.132090
 20
970.752740
 30
0.0
  0
SPLINE
  5
30b
100
AcDbEntity
  8
box
 62
7
100
AcDbSpline
 70
8
 71
3
 72
8
 73
4
 74
0
 40
0
 40
0
 40
0
 40
0
 40
1
 40
1
 40
1
 40
1
 10
301.132090
 20
970.752740
 30
0.0
 10
291.221260
 20
972.527840
 30
0.0
 10
280.507820
 20
971.694540
 30
0.0
 10
271.896980
 20
977.695540
 30
0.0
  0
SPLINE
  5
30c
100
AcDbEntity
  8
box
 62
7
100
AcDbSpline
 70
8
 71
3
 72
8
 73
4
 74
0
 40
0
 40
0
 40
0
 40
0
 40
1
 40
1
 40
1
 40
1
 10
271.896980
 20
977.695540
 30
0.0
 10
265.612530
 20
977.499940
 30
0.0
 10
253.249840
 20
995.974840
 30
0.0
 10
253.580790
 20
987.863340
 30
0.0
  0
SPLINE
  5
30d
100
AcDbEntity
  8
box
 62
7
100
AcDbSpline
 70
8
 71
3
 72
8
 73
4
 74
0
 40
0
 40
0
 40
0
 40
0
 40
1
 40
1
 40
1
 40
1
 10
253.580790
 20
987.863340
 30
0.0
 10
254.065890
 20
981.228240
 30
0.0
 10
253.341960
 20
974.176840
 30
0.0
 10
258.605840
 20
969.189240
 30
0.0
  0
SPLINE
  5
30e
100
AcDbEntity
  8
box
 62
7
100
AcDbSpline
 70
8
 71
3
 72
8
 73
4
 74
0
 40
0
 40
0
 40
0
 40
0
 40
1
 40
1
 40
1
 40
1
 10
258.605840
 20
969.189240
 30
0.0
 10
264.915920
 20
960.435140
 30
0.0
 10
269.967890
 20
950.803540
 30
0.0
 10
273.145190
 20
940.480140
 30
0.0
  0
SPLINE
  5
30f
100
AcDbEntity
  8
box
 62
7
100
AcDbSpline
 70
8
 71
3
 72
8
 73
4
 74
0
 40
0
 40
0
 40
0
 40
0
 40
1
 40
1
 40
1
 40
1
 10
273.145190
 20
940.480140
 30
0.0
 10
267.327930
 20
932.573540
 30
0.0
 10
257.417440
 20
928.528240
 30
0.0
 10
247.877990
 20
931.041740
 30
0.0
  0
SPLINE
  5
310
100
AcDbEntity
  8
box
 62
7
100
AcDbSpline
 70
8
 71
3
 72
8
 73
4
 74
0
 40
0
 40
0
 40
0
 40
0
 40
1
 40
1
 40
1
 40
1
 10
247.877990
 20
931.041740
 30
0.0
 10
240.299720
 20
930.938940
 30
0.0
 10
233.326720
 20
932.978340
 30
0.0
 10
226.909630
 20
936.989740
 30
0.0
  0
SPLINE
  5
311
100
AcDbEntity
  8
box
 62
7
100
AcDbSpline
 70
8
 71
3
 72
8
 73
4
 74
0
 40
0
 40
0
 40
0
 40
0
 40
1
 40
1
 40
1
 40
1
 10
226.909630
 20
936.989740
 30
0.0
 10
217.442640
 20
941.688440
 30
0.0
 10
207.975660
 20
946.387140
 30
0.0
 10
198.508670
 20
951.086040
 30
0.0
  0
SPLINE
  5
312
100
AcDbEntity
  8
box
 62
7
100
AcDbSpline
 70
8
 71
3
 72
8
 73
4
 74
0
 40
0
 40
0
 40
0
 40
0
 40
1
 40
1
 40
1
 40
1
 10
198.508670
 20
951.086040
 30
0.0
 10
191.331710
 20
948.418540
 30
0.0
 10
183.452120
 20
946.891340
 30
0.0
 10
178.652830
 20
940.368040
 30
0.0
  0
SPLINE
  5
313
100
AcDbEntity
  8
box
 62
7
100
AcDbSpline
 70
8
 71
3
 72
8
 73
4
 74
0
 40
0
 40
0
 40
0
 40
0
 40
1
 40
1
 40
1
 40
1
 10
178.652830
 20
940.368040
 30
0.0
 10
175.465390
 20
936.931740
 30
0.0
 10
166.509720
 20
931.108840
 30
0.0
 10
176.463760
 20
933.110240
 30
0.0
  0
SPLINE
  5
314
100
AcDbEntity
  8
box
 62
7
100
AcDbSpline
 70
8
 71
3
 72
8
 73
4
 74
0
 40
0
 40
0
 40
0
 40
0
 40
1
 40
1
 40
1
 40
1
 10
176.463760
 20
933.110240
 30
0.0
 10
186.591550
 20
933.323040
 30
0.0
 10
197.936990
 20
932.360540
 30
0.0
 10
206.584510
 20
927.033140
 30
0.0
  0
SPLINE
  5
315
100
AcDbEntity
  8
box
 62
7
100
AcDbSpline
 70
8
 71
3
 72
8
 73
4
 74
0
 40
0
 40
0
 40
0
 40
0
 40
1
 40
1
 40
1
 40
1
 10
206.584510
 20
927.033140
 30
0.0
 10
211.904430
 20
921.491540
 30
0.0
 10
218.494750
 20
916.743040
 30
0.0
 10
219.734840
 20
908.653740
 30
0.0
  0
SPLINE
  5
316
100
AcDbEntity
  8
box
 62
7
100
AcDbSpline
 70
8
 71
3
 72
8
 73
4
 74
0
 40
0
 40
0
 40
0
 40
0
 40
1
 40
1
 40
1
 40
1
 10
219.734840
 20
908.653740
 30
0.0
 10
223.010150
 20
903.794940
 30
0.0
 10
221.227450
 20
895.902740
 30
0.0
 10
215.153190
 20
894.668440
 30
0.0
  0
SPLINE
  5
317
100
AcDbEntity
  8
box
 62
7
100
AcDbSpline
 70
8
 71
3
 72
8
 73
4
 74
0
 40
0
 40
0
 40
0
 40
0
 40
1
 40
1
 40
1
 40
1
 10
215.153190
 20
894.668440
 30
0.0
 10
206.004740
 20
890.663240
 30
0.0
 10
195.760400
 20
894.034640
 30
0.0
 10
186.081840
 20
893.595540
 30
0.0
  0
SPLINE
  5
318
100
AcDbEntity
  8
box
 62
7
100
AcDbSpline
 70
8
 71
3
 72
8
 73
4
 74
0
 40
0
 40
0
 40
0
 40
0
 40
1
 40
1
 40
1
 40
1
 10
186.081840
 20
893.595540
 30
0.0
 10
179.030740
 20
894.194240
 30
0.0
 10
172.009890
 20
894.587840
 30
0.0
 10
165.559140
 20
891.146640
 30
0.0
  0
SPLINE
  5
319
100
AcDbEntity
  8
box
 62
7
100
AcDbSpline
 70
8
 71
3
 72
8
 73
4
 74
0
 40
0
 40
0
 40
0
 40
0
 40
1
 40
1
 40
1
 40
1
 10
165.559140
 20
891.146640
 30
0.0
 10
159.101500
 20
890.416440
 30
0.0
 10
157.160700
 20
883.645540
 30
0.0
 10
153.382970
 20
879.331140
 30
0.0
  0
SPLINE
  5
31a
100
AcDbEntity
  8
box
 62
7
100
AcDbSpline
 70
8
 71
3
 72
8
 73
4
 74
0
 40
0
 40
0
 40
0
 40
0
 40
1
 40
1
 40
1
 40
1
 10
153.382970
 20
879.331140
 30
0.0
 10
161.483520
 20
878.808040
 30
0.0
 10
170.283530
 20
881.372040
 30
0.0
 10
177.325050
 20
876.178740
 30
0.0
  0
SPLINE
  5
31b
100
AcDbEntity
  8
box
 62
7
100
AcDbSpline
 70
8
 71
3
 72
8
 73
4
 74
0
 40
0
 40
0
 40
0
 40
0
 40
1
 40
1
 40
1
 40
1
 10
177.325050
 20
876.178740
 30
0.0
 10
185.111510
 20
873.057840
 30
0.0
 10
192.428730
 20
867.523740
 30
0.0
 10
200.518150
 20
865.959240
 30
0.0
  0
SPLINE
  5
31c
100
AcDbEntity
  8
box
 62
7
100
AcDbSpline
 70
8
 71
3
 72
8
 73
4
 74
0
 40
0
 40
0
 40
0
 40
0
 40
1
 40
1
 40
1
 40
1
 10
200.518150
 20
865.959240
 30
0.0
 10
207.936990
 20
866.442740
 30
0.0
 10
215.715930
 20
865.923240
 30
0.0
 10
221.663030
 20
871.211240
 30
0.0
  0
SPLINE
  5
31d
100
AcDbEntity
  8
box
 62
7
100
AcDbSpline
 70
8
 71
3
 72
8
 73
4
 74
0
 40
0
 40
0
 40
0
 40
0
 40
1
 40
1
 40
1
 40
1
 10
221.663030
 20
871.211240
 30
0.0
 10
233.455550
 20
879.070640
 30
0.0
 10
242.638090
 20
890.898040
 30
0.0
 10
253.633630
 20
899.251640
 30
0.0
  0
SPLINE
  5
31e
100
AcDbEntity
  8
box
 62
7
100
AcDbSpline
 70
8
 71
3
 72
8
 73
4
 74
0
 40
0
 40
0
 40
0
 40
0
 40
1
 40
1
 40
1
 40
1
 10
253.633630
 20
899.251640
 30
0.0
 10
259.238490
 20
899.731240
 30
0.0
 10
265.073270
 20
901.365340
 30
0.0
 10
269.754050
 20
897.212440
 30
0.0
  0
SPLINE
  5
31f
100
AcDbEntity
  8
box
 62
7
100
AcDbSpline
 70
8
 71
3
 72
8
 73
4
 74
0
 40
0
 40
0
 40
0
 40
0
 40
1
 40
1
 40
1
 40
1
 10
269.754050
 20
897.212440
 30
0.0
 10
276.992570
 20
895.214840
 30
0.0
 10
278.747190
 20
887.521740
 30
0.0
 10
282.519840
 20
881.924140
 30
0.0
  0
SPLINE
  5
320
100
AcDbEntity
  8
box
 62
7
100
AcDbSpline
 70
8
 71
3
 72
8
 73
4
 74
0
 40
0
 40
0
 40
0
 40
0
 40
1
 40
1
 40
1
 40
1
 10
282.519840
 20
881.924140
 30
0.0
 10
281.297010
 20
876.916840
 30
0.0
 10
281.913230
 20
870.802640
 30
0.0
 10
279.649260
 20
866.422340
 30
0.0
  0
SPLINE
  5
321
100
AcDbEntity
  8
box
 62
7
100
AcDbSpline
 70
8
 71
3
 72
8
 73
4
 74
0
 40
0
 40
0
 40
0
 40
0
 40
1
 40
1
 40
1
 40
1
 10
279.649260
 20
866.422340
 30
0.0
 10
272.573320
 20
861.753640
 30
0.0
 10
266.498510
 20
854.769540
 30
0.0
 10
257.433060
 20
854.704140
 30
0.0
  0
SPLINE
  5
322
100
AcDbEntity
  8
box
 62
7
100
AcDbSpline
 70
8
 71
3
 72
8
 73
4
 74
0
 40
0
 40
0
 40
0
 40
0
 40
1
 40
1
 40
1
 40
1
 10
257.433060
 20
854.704140
 30
0.0
 10
250.845460
 20
853.449040
 30
0.0
 10
244.257550
 20
852.194040
 30
0.0
 10
237.670230
 20
850.939140
 30
0.0
  0
SPLINE
  5
323
100
AcDbEntity
  8
box
 62
7
100
AcDbSpline
 70
8
 71
3
 72
8
 73
4
 74
0
 40
0
 40
0
 40
0
 40
0
 40
1
 40
1
 40
1
 40
1
 10
237.670230
 20
850.939140
 30
0.0
 10
250.776810
 20
842.072640
 30
0.0
 10
266.925830
 20
842.041040
 30
0.0
 10
281.977340
 20
844.641540
 30
0.0
  0
SPLINE
  5
324
100
AcDbEntity
  8
box
 62
7
100
AcDbSpline
 70
8
 71
3
 72
8
 73
4
 74
0
 40
0
 40
0
 40
0
 40
0
 40
1
 40
1
 40
1
 40
1
 10
281.977340
 20
844.641540
 30
0.0
 10
289.140970
 20
846.785640
 30
0.0
 10
294.651250
 20
853.220840
 30
0.0
 10
301.169970
 20
857.038940
 30
0.0
  0
SPLINE
  5
325
100
AcDbEntity
  8
box
 62
7
100
AcDbSpline
 70
8
 71
3
 72
8
 73
4
 74
0
 40
0
 40
0
 40
0
 40
0
 40
1
 40
1
 40
1
 40
1
 10
301.169970
 20
857.038940
 30
0.0
 10
306.520710
 20
862.163140
 30
0.0
 10
307.781060
 20
870.815340
 30
0.0
 10
311.055050
 20
877.373940
 30
0.0
  0
SPLINE
  5
326
100
AcDbEntity
  8
box
 62
7
100
AcDbSpline
 70
8
 71
3
 72
8
 73
4
 74
0
 40
0
 40
0
 40
0
 40
0
 40
1
 40
1
 40
1
 40
1
 10
311.055050
 20
877.373940
 30
0.0
 10
317.659320
 20
898.055240
 30
0.0
 10
322.338160
 20
920.127640
 30
0.0
 10
333.450550
 20
938.845240
 30
0.0
  0
SPLINE
  5
327
100
AcDbEntity
  8
box
 62
7
100
AcDbSpline
 70
8
 71
3
 72
8
 73
4
 74
0
 40
0
 40
0
 40
0
 40
0
 40
1
 40
1
 40
1
 40
1
 10
333.450550
 20
938.845240
 30
0.0
 10
340.022830
 20
943.121440
 30
0.0
 10
346.131640
 20
948.720640
 30
0.0
 10
352.990240
 20
952.178740
 30
0.0
  0
SPLINE
  5
328
100
AcDbEntity
  8
box
 62
7
100
AcDbSpline
 70
8
 71
3
 72
8
 73
4
 74
0
 40
0
 40
0
 40
0
 40
0
 40
1
 40
1
 40
1
 40
1
 10
352.990240
 20
952.178740
 30
0.0
 10
361.018640
 20
952.255740
 30
0.0
 10
369.366920
 20
953.740740
 30
0.0
 10
377.208180
 20
952.990640
 30
0.0
  0
SPLINE
  5
329
100
AcDbEntity
  8
box
 62
7
100
AcDbSpline
 70
8
 71
3
 72
8
 73
4
 74
0
 40
0
 40
0
 40
0
 40
0
 40
1
 40
1
 40
1
 40
1
 10
377.208180
 20
952.990640
 30
0.0
 10
383.740000
 20
948.936840
 30
0.0
 10
391.665290
 20
946.066340
 30
0.0
 10
397.347310
 20
941.291440
 30
0.0
  0
SPLINE
  5
32a
100
AcDbEntity
  8
box
 62
7
100
AcDbSpline
 70
8
 71
3
 72
8
 73
4
 74
0
 40
0
 40
0
 40
0
 40
0
 40
1
 40
1
 40
1
 40
1
 10
397.347310
 20
941.291440
 30
0.0
 10
398.479590
 20
936.114340
 30
0.0
 10
404.488700
 20
929.172340
 30
0.0
 10
396.444710
 20
927.316540
 30
0.0
  0
SPLINE
  5
32b
100
AcDbEntity
  8
box
 62
7
100
AcDbSpline
 70
8
 71
3
 72
8
 73
4
 74
0
 40
0
 40
0
 40
0
 40
0
 40
1
 40
1
 40
1
 40
1
 10
396.444710
 20
927.316540
 30
0.0
 10
383.911070
 20
920.188740
 30
0.0
 10
369.032660
 20
917.935540
 30
0.0
 10
356.317230
 20
911.641840
 30
0.0
  0
SPLINE
  5
32c
100
AcDbEntity
  8
box
 62
7
100
AcDbSpline
 70
8
 71
3
 72
8
 73
4
 74
0
 40
0
 40
0
 40
0
 40
0
 40
1
 40
1
 40
1
 40
1
 10
356.317230
 20
911.641840
 30
0.0
 10
350.050630
 20
905.937340
 30
0.0
 10
342.717770
 20
900.988840
 30
0.0
 10
337.087460
 20
894.833440
 30
0.0
  0
SPLINE
  5
32d
100
AcDbEntity
  8
box
 62
7
100
AcDbSpline
 70
8
 71
3
 72
8
 73
4
 74
0
 40
0
 40
0
 40
0
 40
0
 40
1
 40
1
 40
1
 40
1
 10
337.087460
 20
894.833440
 30
0.0
 10
335.348800
 20
890.546740
 30
0.0
 10
328.410790
 20
873.395040
 30
0.0
 10
334.514010
 20
877.805640
 30
0.0
  0
SPLINE
  5
32e
100
AcDbEntity
  8
box
 62
7
100
AcDbSpline
 70
8
 71
3
 72
8
 73
4
 74
0
 40
0
 40
0
 40
0
 40
0
 40
1
 40
1
 40
1
 40
1
 10
334.514010
 20
877.805640
 30
0.0
 10
340.701660
 20
883.872240
 30
0.0
 10
344.516350
 20
893.398140
 30
0.0
 10
353.898710
 20
894.807240
 30
0.0
  0
SPLINE
  5
32f
100
AcDbEntity
  8
box
 62
7
100
AcDbSpline
 70
8
 71
3
 72
8
 73
4
 74
0
 40
0
 40
0
 40
0
 40
0
 40
1
 40
1
 40
1
 40
1
 10
353.898710
 20
894.807240
 30
0.0
 10
363.407680
 20
898.257540
 30
0.0
 10
372.831410
 20
902.128640
 30
0.0
 10
383.146480
 20
901.620040
 30
0.0
  0
SPLINE
  5
330
100
AcDbEntity
  8
box
 62
7
100
AcDbSpline
 70
8
 71
3
 72
8
 73
4
 74
0
 40
0
 40
0
 40
0
 40
0
 40
1
 40
1
 40
1
 40
1
 10
383.146480
 20
901.620040
 30
0.0
 10
388.967960
 20
902.839140
 30
0.0
 10
394.101920
 20
899.152140
 30
0.0
 10
399.545700
 20
897.676040
 30
0.0
  0
SPLINE
  5
331
100
AcDbEntity
  8
box
 62
7
100
AcDbSpline
 70
8
 71
3
 72
8
 73
4
 74
0
 40
0
 40
0
 40
0
 40
0
 40
1
 40
1
 40
1
 40
1
 10
399.545700
 20
897.676040
 30
0.0
 10
400.260610
 20
892.391540
 30
0.0
 10
405.934780
 20
886.568540
 30
0.0
 10
402.839480
 20
881.698040
 30
0.0
  0
SPLINE
  5
332
100
AcDbEntity
  8
box
 62
7
100
AcDbSpline
 70
8
 71
3
 72
8
 73
4
 74
0
 40
0
 40
0
 40
0
 40
0
 40
1
 40
1
 40
1
 40
1
 10
402.839480
 20
881.698040
 30
0.0
 10
399.770450
 20
877.359940
 30
0.0
 10
398.245360
 20
870.862640
 30
0.0
 10
391.751660
 20
871.314640
 30
0.0
  0
SPLINE
  5
333
100
AcDbEntity
  8
box
 62
7
100
AcDbSpline
 70
8
 71
3
 72
8
 73
4
 74
0
 40
0
 40
0
 40
0
 40
0
 40
1
 40
1
 40
1
 40
1
 10
391.751660
 20
871.314640
 30
0.0
 10
380.730680
 20
868.752140
 30
0.0
 10
369.658000
 20
866.396840
 30
0.0
 10
358.485630
 20
864.592640
 30
0.0
  0
SPLINE
  5
334
100
AcDbEntity
  8
box
 62
7
100
AcDbSpline
 70
8
 71
3
 72
8
 73
4
 74
0
 40
0
 40
0
 40
0
 40
0
 40
1
 40
1
 40
1
 40
1
 10
358.485630
 20
864.592640
 30
0.0
 10
368.300930
 20
862.643040
 30
0.0
 10
378.022330
 20
858.702840
 30
0.0
 10
387.894720
 20
857.969540
 30
0.0
  0
SPLINE
  5
335
100
AcDbEntity
  8
box
 62
7
100
AcDbSpline
 70
8
 71
3
 72
8
 73
4
 74
0
 40
0
 40
0
 40
0
 40
0
 40
1
 40
1
 40
1
 40
1
 10
387.894720
 20
857.969540
 30
0.0
 10
394.592140
 20
859.076140
 30
0.0
 10
401.857000
 20
858.871140
 30
0.0
 10
406.587900
 20
864.522140
 30
0.0
  0
SPLINE
  5
336
100
AcDbEntity
  8
box
 62
7
100
AcDbSpline
 70
8
 71
3
 72
8
 73
4
 74
0
 40
0
 40
0
 40
0
 40
0
 40
1
 40
1
 40
1
 40
1
 10
406.587900
 20
864.522140
 30
0.0
 10
414.349510
 20
870.950940
 30
0.0
 10
423.570050
 20
876.041940
 30
0.0
 10
428.017400
 20
885.510740
 30
0.0
  0
SPLINE
  5
337
100
AcDbEntity
  8
box
 62
7
100
AcDbSpline
 70
8
 71
3
 72
8
 73
4
 74
0
 40
0
 40
0
 40
0
 40
0
 40
1
 40
1
 40
1
 40
1
 10
428.017400
 20
885.510740
 30
0.0
 10
433.187690
 20
892.370440
 30
0.0
 10
437.041140
 20
899.860240
 30
0.0
 10
439.012020
 20
908.251640
 30
0.0
  0
SPLINE
  5
338
100
AcDbEntity
  8
box
 62
7
100
AcDbSpline
 70
8
 71
3
 72
8
 73
4
 74
0
 40
0
 40
0
 40
0
 40
0
 40
1
 40
1
 40
1
 40
1
 10
439.012020
 20
908.251640
 30
0.0
 10
443.241440
 20
915.863640
 30
0.0
 10
442.494820
 20
929.728640
 30
0.0
 10
452.721600
 20
931.701540
 30
0.0
  0
SPLINE
  5
339
100
AcDbEntity
  8
box
 62
7
100
AcDbSpline
 70
8
 71
3
 72
8
 73
4
 74
0
 40
0
 40
0
 40
0
 40
0
 40
1
 40
1
 40
1
 40
1
 10
452.721600
 20
931.701540
 30
0.0
 10
461.437010
 20
936.262540
 30
0.0
 10
471.069250
 20
931.521940
 30
0.0
 10
480.274250
 20
931.115340
 30
0.0
  0
SPLINE
  5
33a
100
AcDbEntity
  8
box
 62
7
100
AcDbSpline
 70
8
 71
3
 72
8
 73
4
 74
0
 40
0
 40
0
 40
0
 40
0
 40
1
 40
1
 40
1
 40
1
 10
480.274250
 20
931.115340
 30
0.0
 10
489.455380
 20
929.789340
 30
0.0
 10
498.655320
 20
927.591440
 30
0.0
 10
507.742540
 20
930.609640
 30
0.0
  0
SPLINE
  5
33b
100
AcDbEntity
  8
box
 62
7
100
AcDbSpline
 70
8
 71
3
 72
8
 73
4
 74
0
 40
0
 40
0
 40
0
 40
0
 40
1
 40
1
 40
1
 40
1
 10
507.742540
 20
930.609640
 30
0.0
 10
516.020770
 20
931.350340
 30
0.0
 10
520.762390
 20
939.613140
 30
0.0
 10
527.386260
 20
943.872540
 30
0.0
  0
SPLINE
  5
33c
100
AcDbEntity
  8
box
 62
7
100
AcDbSpline
 70
8
 71
3
 72
8
 73
4
 74
0
 40
0
 40
0
 40
0
 40
0
 40
1
 40
1
 40
1
 40
1
 10
527.386260
 20
943.872540
 30
0.0
 10
535.173930
 20
949.384540
 30
0.0
 10
538.130100
 20
959.048040
 30
0.0
 10
543.533790
 20
966.608540
 30
0.0
  0
SPLINE
  5
33d
100
AcDbEntity
  8
box
 62
7
100
AcDbSpline
 70
8
 71
3
 72
8
 73
4
 74
0
 40
0
 40
0
 40
0
 40
0
 40
1
 40
1
 40
1
 40
1
 10
543.533790
 20
966.608540
 30
0.0
 10
543.838720
 20
975.232540
 30
0.0
 10
546.355140
 20
984.122440
 30
0.0
 10
545.327180
 20
992.586140
 30
0.0
  0
SPLINE
  5
33e
100
AcDbEntity
  8
box
 62
7
100
AcDbSpline
 70
8
 71
3
 72
8
 73
4
 74
0
 40
0
 40
0
 40
0
 40
0
 40
1
 40
1
 40
1
 40
1
 10
545.327180
 20
992.586140
 30
0.0
 10
541.503090
 20
1001.886100
 30
0.0
 10
539.482660
 20
1012.293700
 30
0.0
 10
534.546590
 20
1020.910900
 30
0.0
  0
SPLINE
  5
33f
100
AcDbEntity
  8
box
 62
7
100
AcDbSpline
 70
8
 71
3
 72
8
 73
4
 74
0
 40
0
 40
0
 40
0
 40
0
 40
1
 40
1
 40
1
 40
1
 10
534.546590
 20
1020.910900
 30
0.0
 10
532.743630
 20
1022.795300
 30
0.0
 10
530.933800
 20
1024.692500
 30
0.0
 10
529.135080
 20
1026.569300
 30
0.0
  0
LWPOLYLINE
  5
340
100
AcDbEntity
  8
box
 62
7
100
AcDbPolyline
 90
2
 70
0
 10
551.329510
 20
982.735340
 30
0.0
 10
551.342060
 20
982.733840
 30
0.0
  0
LWPOLYLINE
  5
341
100
AcDbEntity
  8
box
 62
7
100
AcDbPolyline
 90
2
 70
0
 10
529.135080
 20
1026.569300
 30
0.0
 10
529.134320
 20
1026.561000
 30
0.0
  0
ENDSEC
  0
SECTION
  2
OBJECTS
  0
DICTIONARY
  5
C
330
0
100
AcDbDictionary
  3
ACAD_GROUP
350
D
  3
ACAD_MLINESTYLE
350
17
  0
DICTIONARY
  5
D
330
C
100
AcDbDictionary
  0
DICTIONARY
  5
1A
330
C
100
AcDbDictionary
  0
DICTIONARY
  5
17
330
C
100
AcDbDictionary
  3
STANDARD
350
18
  0
DICTIONARY
  5
19
330
C
100
AcDbDictionary
  0
ENDSEC
  0
EOF
