%
M48
M72
T01C0.02362
T02C0.03150
T03C0.03200
T04C0.03543
T05C0.03937
T06C0.04000
T07C0.04724
T08C0.07480
%
T01
X46800Y26800
X51800Y36800
X51800Y56800
X51800Y151800
X56800Y161800
X31800Y176800
X96800Y176800
X171800Y176800
X181800Y136800
X191800Y126800
X171800Y111800
X191800Y81800
T02
X46879Y175501
X42154Y178650
X46879Y181800
X42154Y184950
X46879Y188099
T03
X83050Y176800
X83050Y166800
X96800Y161800
X96800Y151800
X96800Y141800
X96800Y131800
X96800Y121800
X96800Y111800
X96800Y101800
X96800Y91800
X96800Y81800
X96800Y71800
X96800Y61800
X96800Y51800
X96800Y41800
X96800Y31800
X91800Y16800
X76800Y31800
X76800Y41800
X61800Y56800
X36800Y56800
X26800Y56800
X16800Y56800
X36800Y16800
X61800Y16800
X126800Y31800
X126800Y41800
X126800Y51800
X126800Y61800
X126800Y71800
X126800Y81800
X126800Y91800
X126800Y101800
X126800Y111800
X126800Y121800
X126800Y131800
X126800Y141800
X126800Y151800
X126800Y161800
X141800Y156800
X146800Y166800
X131800Y176800
X116800Y186800
X111800Y194300
X106800Y186800
X131800Y196800
X146800Y196800
X146800Y186800
X186800Y166800
X141800Y146800
X141800Y81800
X161800Y81800
X156800Y16800
X146800Y16800
X131800Y16800
T04
X71800Y66957
X71800Y76800
X71800Y86643
T05
X67676Y191800
X75550Y191800
X83424Y191800
T06
X16800Y141800
X16800Y131800
X16800Y121800
X16800Y111800
X16800Y101800
X16800Y91800
X16800Y81800
X16800Y71800
X16800Y41800
X16800Y31800
X16800Y21800
X166800Y196800
X176800Y196800
X186800Y196800
X204300Y191800
X204300Y181800
X204300Y171800
X204300Y161800
X204300Y151800
X204300Y141800
X204300Y131800
X204300Y121800
X204300Y111800
X204300Y101800
X204300Y91800
X204300Y81800
X204300Y71800
T07
X59802Y191800
X91298Y191800
T08
X26800Y196170
X26800Y167430
M30
