G75*
%MOIN*%
%OFA0B0*%
%FSLAX25Y25*%
%IPPOS*%
%LPD*%
%AMOC8*
5,1,8,0,0,1.08239X$1,22.5*
%
%ADD10C,0.00000*%
%ADD11OC8,0.05200*%
%ADD12C,0.05200*%
%ADD13C,0.05200*%
%ADD14C,0.07400*%
%ADD15C,0.05937*%
%ADD16C,0.07087*%
%ADD17C,0.06600*%
%ADD18C,0.05150*%
%ADD19C,0.11220*%
%ADD20C,0.01600*%
%ADD21C,0.03562*%
D10*
X0011800Y0006800D02*
X0011800Y0203650D01*
X0208650Y0203650D01*
X0208650Y0006800D01*
X0011800Y0006800D01*
D11*
X0036800Y0016800D03*
X0061800Y0016800D03*
X0076800Y0031800D03*
X0076800Y0041800D03*
X0061800Y0056800D03*
X0036800Y0056800D03*
X0026800Y0056800D03*
X0016800Y0056800D03*
X0091800Y0016800D03*
X0131800Y0016800D03*
X0146800Y0016800D03*
X0156800Y0016800D03*
X0161800Y0081800D03*
X0141800Y0146800D03*
X0141800Y0156800D03*
X0146800Y0166800D03*
X0131800Y0176800D03*
X0116800Y0186800D03*
X0111800Y0194300D03*
X0106800Y0186800D03*
X0083050Y0176800D03*
X0083050Y0166800D03*
X0146800Y0186800D03*
X0146800Y0196800D03*
X0186800Y0166800D03*
D12*
X0131800Y0196800D03*
X0141800Y0081800D03*
D13*
X0129400Y0081800D02*
X0124200Y0081800D01*
X0124200Y0091800D02*
X0129400Y0091800D01*
X0129400Y0101800D02*
X0124200Y0101800D01*
X0124200Y0111800D02*
X0129400Y0111800D01*
X0129400Y0121800D02*
X0124200Y0121800D01*
X0124200Y0131800D02*
X0129400Y0131800D01*
X0129400Y0141800D02*
X0124200Y0141800D01*
X0124200Y0151800D02*
X0129400Y0151800D01*
X0129400Y0161800D02*
X0124200Y0161800D01*
X0099400Y0161800D02*
X0094200Y0161800D01*
X0094200Y0151800D02*
X0099400Y0151800D01*
X0099400Y0141800D02*
X0094200Y0141800D01*
X0094200Y0131800D02*
X0099400Y0131800D01*
X0099400Y0121800D02*
X0094200Y0121800D01*
X0094200Y0111800D02*
X0099400Y0111800D01*
X0099400Y0101800D02*
X0094200Y0101800D01*
X0094200Y0091800D02*
X0099400Y0091800D01*
X0099400Y0081800D02*
X0094200Y0081800D01*
X0094200Y0071800D02*
X0099400Y0071800D01*
X0099400Y0061800D02*
X0094200Y0061800D01*
X0094200Y0051800D02*
X0099400Y0051800D01*
X0099400Y0041800D02*
X0094200Y0041800D01*
X0094200Y0031800D02*
X0099400Y0031800D01*
X0124200Y0031800D02*
X0129400Y0031800D01*
X0129400Y0041800D02*
X0124200Y0041800D01*
X0124200Y0051800D02*
X0129400Y0051800D01*
X0129400Y0061800D02*
X0124200Y0061800D01*
X0124200Y0071800D02*
X0129400Y0071800D01*
D14*
X0204300Y0071800D03*
X0204300Y0081800D03*
X0204300Y0091800D03*
X0204300Y0101800D03*
X0204300Y0111800D03*
X0204300Y0121800D03*
X0204300Y0131800D03*
X0204300Y0141800D03*
X0204300Y0151800D03*
X0204300Y0161800D03*
X0204300Y0171800D03*
X0204300Y0181800D03*
X0204300Y0191800D03*
X0186800Y0196800D03*
X0176800Y0196800D03*
X0166800Y0196800D03*
X0016800Y0141800D03*
X0016800Y0131800D03*
X0016800Y0121800D03*
X0016800Y0111800D03*
X0016800Y0101800D03*
X0016800Y0091800D03*
X0016800Y0081800D03*
X0016800Y0071800D03*
X0016800Y0041800D03*
X0016800Y0031800D03*
X0016800Y0021800D03*
D15*
X0067676Y0191800D03*
X0075550Y0191800D03*
X0083424Y0191800D03*
D16*
X0091298Y0191800D03*
X0059802Y0191800D03*
D17*
X0071800Y0086643D03*
X0071800Y0076800D03*
X0071800Y0066957D03*
D18*
X0046879Y0175501D03*
X0042154Y0178650D03*
X0046879Y0181800D03*
X0042154Y0184950D03*
X0046879Y0188099D03*
D19*
X0026800Y0196170D03*
X0026800Y0167430D03*
D20*
X0031800Y0176800D02*
X0031800Y0181800D01*
X0036800Y0186800D01*
X0040304Y0186800D01*
X0042154Y0184950D01*
X0046879Y0188099D02*
X0050501Y0188099D01*
X0056800Y0181800D01*
X0071800Y0181800D01*
X0076800Y0186800D01*
X0076800Y0190550D01*
X0075550Y0191800D01*
X0083050Y0191800D02*
X0083050Y0186800D01*
X0088050Y0181800D01*
X0091800Y0181800D01*
X0096800Y0176800D01*
X0091800Y0181800D02*
X0104300Y0194300D01*
X0111800Y0194300D01*
X0116800Y0186800D02*
X0126800Y0191800D01*
X0131800Y0196800D01*
X0141800Y0186800D01*
X0146800Y0186800D01*
X0151800Y0181800D01*
X0166800Y0181800D01*
X0171800Y0176800D01*
X0166800Y0181800D02*
X0204300Y0181800D01*
X0186800Y0166800D02*
X0186800Y0161800D01*
X0176800Y0151800D01*
X0136800Y0151800D01*
X0131800Y0146800D01*
X0116800Y0146800D01*
X0096800Y0161800D01*
X0096800Y0151800D02*
X0066800Y0151800D01*
X0056800Y0141800D01*
X0016800Y0141800D01*
X0016800Y0131800D02*
X0061800Y0131800D01*
X0071800Y0141800D01*
X0096800Y0141800D01*
X0096800Y0131800D02*
X0106800Y0131800D01*
X0111800Y0136800D01*
X0181800Y0136800D01*
X0191800Y0126800D02*
X0111800Y0126800D01*
X0106800Y0121800D01*
X0096800Y0121800D01*
X0096800Y0111800D02*
X0071800Y0111800D01*
X0061800Y0121800D01*
X0016800Y0121800D01*
X0016800Y0111800D02*
X0056800Y0111800D01*
X0066800Y0101800D01*
X0096800Y0101800D01*
X0111800Y0106800D02*
X0116800Y0111800D01*
X0126800Y0111800D01*
X0171800Y0111800D01*
X0171800Y0101800D02*
X0171800Y0071800D01*
X0161800Y0061800D01*
X0126800Y0061800D01*
X0126800Y0051800D02*
X0161800Y0051800D01*
X0176800Y0066800D01*
X0176800Y0096800D01*
X0181800Y0101800D01*
X0204300Y0101800D01*
X0204300Y0091800D02*
X0186800Y0091800D01*
X0181800Y0086800D01*
X0181800Y0061800D01*
X0161800Y0041800D01*
X0126800Y0041800D01*
X0126800Y0031800D02*
X0161800Y0031800D01*
X0186800Y0056800D01*
X0186800Y0076800D01*
X0191800Y0081800D01*
X0204300Y0081800D01*
X0204300Y0111800D02*
X0181800Y0111800D01*
X0171800Y0101800D01*
X0141800Y0081800D02*
X0126800Y0081800D01*
X0111800Y0106800D02*
X0111800Y0046800D01*
X0106800Y0041800D01*
X0111800Y0036800D01*
X0111800Y0026800D01*
X0116800Y0021800D01*
X0151800Y0021800D01*
X0156800Y0016800D01*
X0146800Y0016800D02*
X0131800Y0016800D01*
X0106800Y0041800D02*
X0096800Y0041800D01*
X0076800Y0041800D01*
X0061800Y0026800D01*
X0046800Y0026800D01*
X0051800Y0036800D02*
X0041800Y0041800D01*
X0016800Y0041800D01*
X0026800Y0046800D02*
X0016800Y0056800D01*
X0031800Y0071800D01*
X0031800Y0086800D01*
X0026800Y0091800D01*
X0016800Y0091800D01*
X0016800Y0101800D02*
X0031800Y0101800D01*
X0051800Y0081800D01*
X0051800Y0056800D01*
X0061800Y0056800D01*
X0081800Y0056800D01*
X0086800Y0061800D01*
X0096800Y0061800D01*
X0096800Y0071800D02*
X0086800Y0071800D01*
X0081800Y0066800D01*
X0071957Y0066800D01*
X0071800Y0066957D01*
X0086800Y0081800D02*
X0081800Y0086800D01*
X0071957Y0086800D01*
X0071800Y0086643D01*
X0086800Y0081800D02*
X0096800Y0081800D01*
X0096800Y0051800D02*
X0071800Y0051800D01*
X0066800Y0046800D01*
X0026800Y0046800D01*
X0026800Y0056800D02*
X0036800Y0056800D01*
X0061800Y0026800D02*
X0061800Y0016800D01*
X0126800Y0121800D02*
X0204300Y0121800D01*
X0204300Y0131800D02*
X0126800Y0131800D01*
X0126800Y0141800D02*
X0204300Y0141800D01*
X0146800Y0166800D02*
X0141800Y0161800D01*
X0141800Y0156800D01*
X0131800Y0156800D01*
X0126800Y0161800D01*
X0146800Y0166800D02*
X0146800Y0186800D01*
X0083424Y0191800D02*
X0083050Y0191800D01*
X0083050Y0186800D02*
X0083050Y0176800D01*
X0056800Y0176800D02*
X0056800Y0161800D01*
X0051800Y0151800D02*
X0042154Y0161446D01*
X0042154Y0178650D01*
X0046879Y0181800D02*
X0051800Y0181800D01*
X0056800Y0176800D01*
D21*
X0056800Y0161800D03*
X0051800Y0151800D03*
X0031800Y0176800D03*
X0096800Y0176800D03*
X0171800Y0176800D03*
X0181800Y0136800D03*
X0191800Y0126800D03*
X0171800Y0111800D03*
X0191800Y0081800D03*
X0051800Y0056800D03*
X0051800Y0036800D03*
X0046800Y0026800D03*
M02*
