G75*
%MOIN*%
%OFA0B0*%
%FSLAX25Y25*%
%IPPOS*%
%LPD*%
%AMOC8*
5,1,8,0,0,1.08239X$1,22.5*
%
%ADD10C,0.00000*%
%ADD11OC8,0.05600*%
%ADD12C,0.05600*%
%ADD13C,0.05600*%
%ADD14C,0.07800*%
%ADD15C,0.06337*%
%ADD16C,0.07487*%
%ADD17C,0.07000*%
%ADD18C,0.05550*%
%ADD19C,0.11620*%
D10*
X0011800Y0006800D02*
X0011800Y0203650D01*
X0208650Y0203650D01*
X0208650Y0006800D01*
X0011800Y0006800D01*
D11*
X0036800Y0016800D03*
X0061800Y0016800D03*
X0076800Y0031800D03*
X0076800Y0041800D03*
X0061800Y0056800D03*
X0036800Y0056800D03*
X0026800Y0056800D03*
X0016800Y0056800D03*
X0091800Y0016800D03*
X0131800Y0016800D03*
X0146800Y0016800D03*
X0156800Y0016800D03*
X0161800Y0081800D03*
X0141800Y0146800D03*
X0141800Y0156800D03*
X0146800Y0166800D03*
X0131800Y0176800D03*
X0116800Y0186800D03*
X0111800Y0194300D03*
X0106800Y0186800D03*
X0083050Y0176800D03*
X0083050Y0166800D03*
X0146800Y0186800D03*
X0146800Y0196800D03*
X0186800Y0166800D03*
D12*
X0131800Y0196800D03*
X0141800Y0081800D03*
D13*
X0129400Y0081800D02*
X0124200Y0081800D01*
X0124200Y0091800D02*
X0129400Y0091800D01*
X0129400Y0101800D02*
X0124200Y0101800D01*
X0124200Y0111800D02*
X0129400Y0111800D01*
X0129400Y0121800D02*
X0124200Y0121800D01*
X0124200Y0131800D02*
X0129400Y0131800D01*
X0129400Y0141800D02*
X0124200Y0141800D01*
X0124200Y0151800D02*
X0129400Y0151800D01*
X0129400Y0161800D02*
X0124200Y0161800D01*
X0099400Y0161800D02*
X0094200Y0161800D01*
X0094200Y0151800D02*
X0099400Y0151800D01*
X0099400Y0141800D02*
X0094200Y0141800D01*
X0094200Y0131800D02*
X0099400Y0131800D01*
X0099400Y0121800D02*
X0094200Y0121800D01*
X0094200Y0111800D02*
X0099400Y0111800D01*
X0099400Y0101800D02*
X0094200Y0101800D01*
X0094200Y0091800D02*
X0099400Y0091800D01*
X0099400Y0081800D02*
X0094200Y0081800D01*
X0094200Y0071800D02*
X0099400Y0071800D01*
X0099400Y0061800D02*
X0094200Y0061800D01*
X0094200Y0051800D02*
X0099400Y0051800D01*
X0099400Y0041800D02*
X0094200Y0041800D01*
X0094200Y0031800D02*
X0099400Y0031800D01*
X0124200Y0031800D02*
X0129400Y0031800D01*
X0129400Y0041800D02*
X0124200Y0041800D01*
X0124200Y0051800D02*
X0129400Y0051800D01*
X0129400Y0061800D02*
X0124200Y0061800D01*
X0124200Y0071800D02*
X0129400Y0071800D01*
D14*
X0204300Y0071800D03*
X0204300Y0081800D03*
X0204300Y0091800D03*
X0204300Y0101800D03*
X0204300Y0111800D03*
X0204300Y0121800D03*
X0204300Y0131800D03*
X0204300Y0141800D03*
X0204300Y0151800D03*
X0204300Y0161800D03*
X0204300Y0171800D03*
X0204300Y0181800D03*
X0204300Y0191800D03*
X0186800Y0196800D03*
X0176800Y0196800D03*
X0166800Y0196800D03*
X0016800Y0141800D03*
X0016800Y0131800D03*
X0016800Y0121800D03*
X0016800Y0111800D03*
X0016800Y0101800D03*
X0016800Y0091800D03*
X0016800Y0081800D03*
X0016800Y0071800D03*
X0016800Y0041800D03*
X0016800Y0031800D03*
X0016800Y0021800D03*
D15*
X0067676Y0191800D03*
X0075550Y0191800D03*
X0083424Y0191800D03*
D16*
X0091298Y0191800D03*
X0059802Y0191800D03*
D17*
X0071800Y0086643D03*
X0071800Y0076800D03*
X0071800Y0066957D03*
D18*
X0046879Y0175501D03*
X0042154Y0178650D03*
X0046879Y0181800D03*
X0042154Y0184950D03*
X0046879Y0188099D03*
D19*
X0026800Y0196170D03*
X0026800Y0167430D03*
M02*
