G75*
%MOIN*%
%OFA0B0*%
%FSLAX25Y25*%
%IPPOS*%
%LPD*%
%AMOC8*
5,1,8,0,0,1.08239X$1,22.5*
%
%ADD10C,0.00000*%
%ADD11OC8,0.05200*%
%ADD12C,0.00500*%
%ADD13C,0.05200*%
%ADD14C,0.05200*%
%ADD15C,0.07400*%
%ADD16C,0.05937*%
%ADD17C,0.07087*%
%ADD18C,0.06600*%
%ADD19C,0.05150*%
%ADD20C,0.11220*%
%ADD21C,0.01600*%
%ADD22C,0.03562*%
D10*
X0011800Y0006800D02*
X0011800Y0203650D01*
X0208650Y0203650D01*
X0208650Y0006800D01*
X0011800Y0006800D01*
D11*
X0036800Y0016800D03*
X0061800Y0016800D03*
X0076800Y0031800D03*
X0076800Y0041800D03*
X0061800Y0056800D03*
X0036800Y0056800D03*
X0026800Y0056800D03*
X0016800Y0056800D03*
X0091800Y0016800D03*
X0131800Y0016800D03*
X0146800Y0016800D03*
X0156800Y0016800D03*
X0161800Y0081800D03*
X0141800Y0146800D03*
X0141800Y0156800D03*
X0146800Y0166800D03*
X0131800Y0176800D03*
X0116800Y0186800D03*
X0111800Y0194300D03*
X0106800Y0186800D03*
X0083050Y0176800D03*
X0083050Y0166800D03*
X0146800Y0186800D03*
X0146800Y0196800D03*
X0186800Y0166800D03*
D12*
X0169610Y0167553D02*
X0167358Y0166051D01*
X0169610Y0164550D01*
X0167358Y0164550D02*
X0167358Y0169054D01*
X0165756Y0168303D02*
X0165756Y0165301D01*
X0165006Y0164550D01*
X0163505Y0164550D01*
X0162754Y0165301D01*
X0165756Y0168303D01*
X0165006Y0169054D01*
X0163505Y0169054D01*
X0162754Y0168303D01*
X0162754Y0165301D01*
X0161153Y0164550D02*
X0158150Y0164550D01*
X0159651Y0164550D02*
X0159651Y0169054D01*
X0158150Y0167553D01*
X0149798Y0158061D02*
X0149798Y0156560D01*
X0149047Y0154958D02*
X0152050Y0154958D01*
X0152050Y0152707D01*
X0151299Y0151956D01*
X0149047Y0151956D01*
X0152050Y0150355D02*
X0152050Y0147352D01*
X0152050Y0148853D02*
X0147546Y0148853D01*
X0149047Y0147352D01*
X0151299Y0145801D02*
X0152050Y0145801D01*
X0152050Y0145050D01*
X0151299Y0145050D01*
X0151299Y0145801D01*
X0152050Y0156560D02*
X0147546Y0156560D01*
X0147546Y0159562D01*
X0140612Y0166800D02*
X0140612Y0171304D01*
X0143614Y0171304D01*
X0142113Y0169052D02*
X0140612Y0169052D01*
X0139010Y0169803D02*
X0139010Y0166800D01*
X0136758Y0166800D01*
X0136008Y0167551D01*
X0136008Y0169803D01*
X0134406Y0170553D02*
X0134406Y0167551D01*
X0133656Y0166800D01*
X0132155Y0166800D01*
X0131404Y0167551D01*
X0134406Y0170553D01*
X0133656Y0171304D01*
X0132155Y0171304D01*
X0131404Y0170553D01*
X0131404Y0167551D01*
X0129803Y0166800D02*
X0126800Y0166800D01*
X0128301Y0166800D02*
X0128301Y0171304D01*
X0126800Y0169803D01*
X0125176Y0171303D02*
X0125176Y0172053D01*
X0124425Y0172804D01*
X0122924Y0172804D01*
X0122174Y0172053D01*
X0120572Y0172053D02*
X0117570Y0169051D01*
X0118320Y0168300D01*
X0119822Y0168300D01*
X0120572Y0169051D01*
X0120572Y0172053D01*
X0119822Y0172804D01*
X0118320Y0172804D01*
X0117570Y0172053D01*
X0117570Y0169051D01*
X0115968Y0172053D02*
X0112966Y0169051D01*
X0112966Y0168300D01*
X0111364Y0168300D02*
X0108362Y0168300D01*
X0109863Y0168300D02*
X0109863Y0172804D01*
X0108362Y0171303D01*
X0106760Y0172053D02*
X0106760Y0170552D01*
X0106010Y0169801D01*
X0103758Y0169801D01*
X0103758Y0168300D02*
X0103758Y0172804D01*
X0106010Y0172804D01*
X0106760Y0172053D01*
X0102156Y0172053D02*
X0101406Y0172804D01*
X0099905Y0172804D01*
X0099154Y0172053D01*
X0099154Y0169051D01*
X0099905Y0168300D01*
X0101406Y0168300D01*
X0102156Y0169051D01*
X0097553Y0168300D02*
X0097553Y0172804D01*
X0096051Y0171303D01*
X0094550Y0172804D01*
X0094550Y0168300D01*
X0077300Y0168241D02*
X0077300Y0165238D01*
X0077300Y0166739D02*
X0072796Y0166739D01*
X0074297Y0165238D01*
X0076549Y0163687D02*
X0077300Y0163687D01*
X0077300Y0162936D01*
X0076549Y0162936D01*
X0076549Y0163687D01*
X0076549Y0169842D02*
X0074297Y0169842D01*
X0074297Y0172845D02*
X0077300Y0172845D01*
X0077300Y0170593D01*
X0076549Y0169842D01*
X0077300Y0174446D02*
X0072796Y0174446D01*
X0072796Y0177449D01*
X0075048Y0175947D02*
X0075048Y0174446D01*
X0112966Y0172804D02*
X0115968Y0172804D01*
X0115968Y0172053D01*
X0122174Y0168300D02*
X0125176Y0171303D01*
X0125176Y0168300D02*
X0122174Y0168300D01*
X0154046Y0184239D02*
X0158550Y0184239D01*
X0158550Y0182738D02*
X0158550Y0185741D01*
X0157799Y0187342D02*
X0155547Y0187342D01*
X0157799Y0187342D02*
X0158550Y0188093D01*
X0158550Y0190345D01*
X0155547Y0190345D01*
X0156298Y0191946D02*
X0156298Y0193447D01*
X0154046Y0191946D02*
X0154046Y0194949D01*
X0154046Y0191946D02*
X0158550Y0191946D01*
X0154046Y0184239D02*
X0155547Y0182738D01*
X0157799Y0181187D02*
X0158550Y0181187D01*
X0158550Y0180436D01*
X0157799Y0180436D01*
X0157799Y0181187D01*
X0166750Y0184250D02*
X0166750Y0188754D01*
X0169002Y0188754D01*
X0169753Y0188003D01*
X0169753Y0186502D01*
X0169002Y0185751D01*
X0166750Y0185751D01*
X0168251Y0185751D02*
X0169753Y0184250D01*
X0171354Y0184250D02*
X0174356Y0184250D01*
X0175958Y0185001D02*
X0176708Y0184250D01*
X0178210Y0184250D01*
X0178960Y0185001D01*
X0178960Y0185751D01*
X0178210Y0186502D01*
X0176708Y0186502D01*
X0175958Y0187253D01*
X0175958Y0188003D01*
X0176708Y0188754D01*
X0178210Y0188754D01*
X0178960Y0188003D01*
X0180562Y0188754D02*
X0180562Y0184250D01*
X0183564Y0184250D01*
X0182063Y0186502D02*
X0180562Y0186502D01*
X0180562Y0188754D02*
X0183564Y0188754D01*
X0185166Y0188754D02*
X0188168Y0188754D01*
X0186667Y0188754D02*
X0186667Y0184250D01*
X0174356Y0188754D02*
X0171354Y0188754D01*
X0171354Y0184250D01*
X0171354Y0186502D02*
X0172855Y0186502D01*
X0160364Y0070054D02*
X0157362Y0070054D01*
X0157362Y0065550D01*
X0155760Y0065550D02*
X0155760Y0068553D01*
X0157362Y0067802D02*
X0158863Y0067802D01*
X0155760Y0065550D02*
X0153508Y0065550D01*
X0152758Y0066301D01*
X0152758Y0068553D01*
X0151156Y0069303D02*
X0150406Y0070054D01*
X0148905Y0070054D01*
X0148154Y0069303D01*
X0148154Y0066301D01*
X0151156Y0069303D01*
X0151156Y0066301D01*
X0150406Y0065550D01*
X0148905Y0065550D01*
X0148154Y0066301D01*
X0146553Y0065550D02*
X0143550Y0065550D01*
X0145051Y0065550D02*
X0145051Y0070054D01*
X0143550Y0068553D01*
X0161134Y0020054D02*
X0161134Y0015550D01*
X0164137Y0015550D01*
X0165738Y0015550D02*
X0168741Y0015550D01*
X0170342Y0015550D02*
X0172594Y0015550D01*
X0173345Y0016301D01*
X0173345Y0019303D01*
X0172594Y0020054D01*
X0170342Y0020054D01*
X0170342Y0015550D01*
X0167239Y0017802D02*
X0165738Y0017802D01*
X0165738Y0020054D02*
X0165738Y0015550D01*
X0165738Y0020054D02*
X0168741Y0020054D01*
X0174946Y0019303D02*
X0175697Y0020054D01*
X0177198Y0020054D01*
X0177949Y0019303D01*
X0177949Y0018553D01*
X0174946Y0015550D01*
X0177949Y0015550D01*
X0114349Y0015301D02*
X0113598Y0014550D01*
X0112097Y0014550D01*
X0111346Y0015301D01*
X0114349Y0018303D01*
X0114349Y0015301D01*
X0114349Y0018303D02*
X0113598Y0019054D01*
X0112097Y0019054D01*
X0111346Y0018303D01*
X0111346Y0015301D01*
X0109745Y0015301D02*
X0108994Y0014550D01*
X0107493Y0014550D01*
X0106742Y0015301D01*
X0105141Y0015301D02*
X0104390Y0014550D01*
X0102889Y0014550D01*
X0102138Y0015301D01*
X0103639Y0016802D02*
X0104390Y0016802D01*
X0105141Y0016051D01*
X0105141Y0015301D01*
X0104390Y0016802D02*
X0105141Y0017553D01*
X0105141Y0018303D01*
X0104390Y0019054D01*
X0102889Y0019054D01*
X0102138Y0018303D01*
X0106742Y0018303D02*
X0107493Y0019054D01*
X0108994Y0019054D01*
X0109745Y0018303D01*
X0109745Y0017553D01*
X0108994Y0016802D01*
X0109745Y0016051D01*
X0109745Y0015301D01*
X0108994Y0016802D02*
X0108243Y0016802D01*
X0088550Y0022936D02*
X0088550Y0023687D01*
X0087799Y0023687D01*
X0087799Y0022936D01*
X0088550Y0022936D01*
X0088550Y0025238D02*
X0088550Y0028241D01*
X0088550Y0026739D02*
X0084046Y0026739D01*
X0085547Y0025238D01*
X0085547Y0029842D02*
X0087799Y0029842D01*
X0088550Y0030593D01*
X0088550Y0032845D01*
X0085547Y0032845D01*
X0086298Y0034446D02*
X0086298Y0035947D01*
X0084046Y0034446D02*
X0084046Y0037449D01*
X0084046Y0034446D02*
X0088550Y0034446D01*
X0064050Y0033653D02*
X0064050Y0030650D01*
X0064050Y0032151D02*
X0059546Y0032151D01*
X0061047Y0030650D01*
X0060297Y0035254D02*
X0059546Y0036005D01*
X0059546Y0037506D01*
X0060297Y0038256D01*
X0063299Y0035254D01*
X0064050Y0036005D01*
X0064050Y0037506D01*
X0063299Y0038256D01*
X0060297Y0038256D01*
X0059546Y0039858D02*
X0064050Y0039858D01*
X0062549Y0039858D02*
X0064050Y0042110D01*
X0062549Y0039858D02*
X0061047Y0042110D01*
X0060297Y0035254D02*
X0063299Y0035254D01*
X0039050Y0035847D02*
X0038299Y0035096D01*
X0035297Y0038099D01*
X0038299Y0038099D01*
X0039050Y0037348D01*
X0039050Y0035847D01*
X0038299Y0035096D02*
X0035297Y0035096D01*
X0034546Y0035847D01*
X0034546Y0037348D01*
X0035297Y0038099D01*
X0035297Y0033495D02*
X0036047Y0033495D01*
X0036798Y0032744D01*
X0037549Y0033495D01*
X0038299Y0033495D01*
X0039050Y0032744D01*
X0039050Y0031243D01*
X0038299Y0030492D01*
X0038299Y0028891D02*
X0039050Y0028140D01*
X0039050Y0026639D01*
X0038299Y0025888D01*
X0036798Y0027389D02*
X0036798Y0028140D01*
X0037549Y0028891D01*
X0038299Y0028891D01*
X0036798Y0028140D02*
X0036047Y0028891D01*
X0035297Y0028891D01*
X0034546Y0028140D01*
X0034546Y0026639D01*
X0035297Y0025888D01*
X0035297Y0030492D02*
X0034546Y0031243D01*
X0034546Y0032744D01*
X0035297Y0033495D01*
X0036798Y0032744D02*
X0036798Y0031993D01*
X0029350Y0032314D02*
X0027849Y0030813D01*
X0027849Y0031564D02*
X0027849Y0029312D01*
X0029350Y0029312D02*
X0024846Y0029312D01*
X0024846Y0031564D01*
X0025597Y0032314D01*
X0027098Y0032314D01*
X0027849Y0031564D01*
X0029350Y0027710D02*
X0029350Y0024708D01*
X0024846Y0024708D01*
X0024846Y0027710D01*
X0027098Y0026209D02*
X0027098Y0024708D01*
X0027849Y0023106D02*
X0028599Y0023106D01*
X0029350Y0022356D01*
X0029350Y0020855D01*
X0028599Y0020104D01*
X0028599Y0018503D02*
X0024846Y0018503D01*
X0025597Y0020104D02*
X0026347Y0020104D01*
X0027098Y0020855D01*
X0027098Y0022356D01*
X0027849Y0023106D01*
X0025597Y0023106D02*
X0024846Y0022356D01*
X0024846Y0020855D01*
X0025597Y0020104D01*
X0028599Y0018503D02*
X0029350Y0017752D01*
X0029350Y0016251D01*
X0028599Y0015500D01*
X0024846Y0015500D01*
X0029550Y0061050D02*
X0032553Y0061050D01*
X0034154Y0061050D02*
X0037156Y0061050D01*
X0038758Y0061050D02*
X0041010Y0061050D01*
X0041760Y0061801D01*
X0041760Y0064803D01*
X0041010Y0065554D01*
X0038758Y0065554D01*
X0038758Y0061050D01*
X0035655Y0063302D02*
X0034154Y0063302D01*
X0034154Y0065554D02*
X0034154Y0061050D01*
X0034154Y0065554D02*
X0037156Y0065554D01*
X0043362Y0064053D02*
X0044863Y0065554D01*
X0044863Y0061050D01*
X0043362Y0061050D02*
X0046364Y0061050D01*
X0029550Y0061050D02*
X0029550Y0065554D01*
D13*
X0141800Y0081800D03*
X0131800Y0196800D03*
D14*
X0129400Y0161800D02*
X0124200Y0161800D01*
X0124200Y0151800D02*
X0129400Y0151800D01*
X0129400Y0141800D02*
X0124200Y0141800D01*
X0124200Y0131800D02*
X0129400Y0131800D01*
X0129400Y0121800D02*
X0124200Y0121800D01*
X0124200Y0111800D02*
X0129400Y0111800D01*
X0129400Y0101800D02*
X0124200Y0101800D01*
X0124200Y0091800D02*
X0129400Y0091800D01*
X0129400Y0081800D02*
X0124200Y0081800D01*
X0124200Y0071800D02*
X0129400Y0071800D01*
X0129400Y0061800D02*
X0124200Y0061800D01*
X0124200Y0051800D02*
X0129400Y0051800D01*
X0129400Y0041800D02*
X0124200Y0041800D01*
X0124200Y0031800D02*
X0129400Y0031800D01*
X0099400Y0031800D02*
X0094200Y0031800D01*
X0094200Y0041800D02*
X0099400Y0041800D01*
X0099400Y0051800D02*
X0094200Y0051800D01*
X0094200Y0061800D02*
X0099400Y0061800D01*
X0099400Y0071800D02*
X0094200Y0071800D01*
X0094200Y0081800D02*
X0099400Y0081800D01*
X0099400Y0091800D02*
X0094200Y0091800D01*
X0094200Y0101800D02*
X0099400Y0101800D01*
X0099400Y0111800D02*
X0094200Y0111800D01*
X0094200Y0121800D02*
X0099400Y0121800D01*
X0099400Y0131800D02*
X0094200Y0131800D01*
X0094200Y0141800D02*
X0099400Y0141800D01*
X0099400Y0151800D02*
X0094200Y0151800D01*
X0094200Y0161800D02*
X0099400Y0161800D01*
D15*
X0166800Y0196800D03*
X0176800Y0196800D03*
X0186800Y0196800D03*
X0204300Y0191800D03*
X0204300Y0181800D03*
X0204300Y0171800D03*
X0204300Y0161800D03*
X0204300Y0151800D03*
X0204300Y0141800D03*
X0204300Y0131800D03*
X0204300Y0121800D03*
X0204300Y0111800D03*
X0204300Y0101800D03*
X0204300Y0091800D03*
X0204300Y0081800D03*
X0204300Y0071800D03*
X0016800Y0071800D03*
X0016800Y0081800D03*
X0016800Y0091800D03*
X0016800Y0101800D03*
X0016800Y0111800D03*
X0016800Y0121800D03*
X0016800Y0131800D03*
X0016800Y0141800D03*
X0016800Y0041800D03*
X0016800Y0031800D03*
X0016800Y0021800D03*
D16*
X0067676Y0191800D03*
X0075550Y0191800D03*
X0083424Y0191800D03*
D17*
X0091298Y0191800D03*
X0059802Y0191800D03*
D18*
X0071800Y0086643D03*
X0071800Y0076800D03*
X0071800Y0066957D03*
D19*
X0046879Y0175501D03*
X0042154Y0178650D03*
X0046879Y0181800D03*
X0042154Y0184950D03*
X0046879Y0188099D03*
D20*
X0026800Y0196170D03*
X0026800Y0167430D03*
D21*
X0031800Y0176800D02*
X0031800Y0181800D01*
X0036800Y0186800D01*
X0040304Y0186800D01*
X0042154Y0184950D01*
X0046879Y0188099D02*
X0050501Y0188099D01*
X0056800Y0181800D01*
X0071800Y0181800D01*
X0076800Y0186800D01*
X0076800Y0190550D01*
X0075550Y0191800D01*
X0083050Y0191800D02*
X0083050Y0186800D01*
X0088050Y0181800D01*
X0091800Y0181800D01*
X0096800Y0176800D01*
X0091800Y0181800D02*
X0104300Y0194300D01*
X0111800Y0194300D01*
X0116800Y0186800D02*
X0126800Y0191800D01*
X0131800Y0196800D01*
X0141800Y0186800D01*
X0146800Y0186800D01*
X0151800Y0181800D01*
X0166800Y0181800D01*
X0171800Y0176800D01*
X0166800Y0181800D02*
X0204300Y0181800D01*
X0186800Y0166800D02*
X0186800Y0161800D01*
X0176800Y0151800D01*
X0136800Y0151800D01*
X0131800Y0146800D01*
X0116800Y0146800D01*
X0096800Y0161800D01*
X0096800Y0151800D02*
X0066800Y0151800D01*
X0056800Y0141800D01*
X0016800Y0141800D01*
X0016800Y0131800D02*
X0061800Y0131800D01*
X0071800Y0141800D01*
X0096800Y0141800D01*
X0096800Y0131800D02*
X0106800Y0131800D01*
X0111800Y0136800D01*
X0181800Y0136800D01*
X0191800Y0126800D02*
X0111800Y0126800D01*
X0106800Y0121800D01*
X0096800Y0121800D01*
X0096800Y0111800D02*
X0071800Y0111800D01*
X0061800Y0121800D01*
X0016800Y0121800D01*
X0016800Y0111800D02*
X0056800Y0111800D01*
X0066800Y0101800D01*
X0096800Y0101800D01*
X0111800Y0106800D02*
X0116800Y0111800D01*
X0126800Y0111800D01*
X0171800Y0111800D01*
X0171800Y0101800D02*
X0171800Y0071800D01*
X0161800Y0061800D01*
X0126800Y0061800D01*
X0126800Y0051800D02*
X0161800Y0051800D01*
X0176800Y0066800D01*
X0176800Y0096800D01*
X0181800Y0101800D01*
X0204300Y0101800D01*
X0204300Y0091800D02*
X0186800Y0091800D01*
X0181800Y0086800D01*
X0181800Y0061800D01*
X0161800Y0041800D01*
X0126800Y0041800D01*
X0126800Y0031800D02*
X0161800Y0031800D01*
X0186800Y0056800D01*
X0186800Y0076800D01*
X0191800Y0081800D01*
X0204300Y0081800D01*
X0204300Y0111800D02*
X0181800Y0111800D01*
X0171800Y0101800D01*
X0141800Y0081800D02*
X0126800Y0081800D01*
X0111800Y0106800D02*
X0111800Y0046800D01*
X0106800Y0041800D01*
X0111800Y0036800D01*
X0111800Y0026800D01*
X0116800Y0021800D01*
X0151800Y0021800D01*
X0156800Y0016800D01*
X0146800Y0016800D02*
X0131800Y0016800D01*
X0106800Y0041800D02*
X0096800Y0041800D01*
X0076800Y0041800D01*
X0061800Y0026800D01*
X0046800Y0026800D01*
X0051800Y0036800D02*
X0041800Y0041800D01*
X0016800Y0041800D01*
X0026800Y0046800D02*
X0016800Y0056800D01*
X0031800Y0071800D01*
X0031800Y0086800D01*
X0026800Y0091800D01*
X0016800Y0091800D01*
X0016800Y0101800D02*
X0031800Y0101800D01*
X0051800Y0081800D01*
X0051800Y0056800D01*
X0061800Y0056800D01*
X0081800Y0056800D01*
X0086800Y0061800D01*
X0096800Y0061800D01*
X0096800Y0071800D02*
X0086800Y0071800D01*
X0081800Y0066800D01*
X0071957Y0066800D01*
X0071800Y0066957D01*
X0086800Y0081800D02*
X0081800Y0086800D01*
X0071957Y0086800D01*
X0071800Y0086643D01*
X0086800Y0081800D02*
X0096800Y0081800D01*
X0096800Y0051800D02*
X0071800Y0051800D01*
X0066800Y0046800D01*
X0026800Y0046800D01*
X0026800Y0056800D02*
X0036800Y0056800D01*
X0061800Y0026800D02*
X0061800Y0016800D01*
X0126800Y0121800D02*
X0204300Y0121800D01*
X0204300Y0131800D02*
X0126800Y0131800D01*
X0126800Y0141800D02*
X0204300Y0141800D01*
X0146800Y0166800D02*
X0141800Y0161800D01*
X0141800Y0156800D01*
X0131800Y0156800D01*
X0126800Y0161800D01*
X0146800Y0166800D02*
X0146800Y0186800D01*
X0083424Y0191800D02*
X0083050Y0191800D01*
X0083050Y0186800D02*
X0083050Y0176800D01*
X0056800Y0176800D02*
X0056800Y0161800D01*
X0051800Y0151800D02*
X0042154Y0161446D01*
X0042154Y0178650D01*
X0046879Y0181800D02*
X0051800Y0181800D01*
X0056800Y0176800D01*
D22*
X0056800Y0161800D03*
X0051800Y0151800D03*
X0031800Y0176800D03*
X0096800Y0176800D03*
X0171800Y0176800D03*
X0181800Y0136800D03*
X0191800Y0126800D03*
X0171800Y0111800D03*
X0191800Y0081800D03*
X0051800Y0056800D03*
X0051800Y0036800D03*
X0046800Y0026800D03*
M02*
