G75*
%MOIN*%
%OFA0B0*%
%FSLAX25Y25*%
%IPPOS*%
%LPD*%
%AMOC8*
5,1,8,0,0,1.08239X$1,22.5*
%
%ADD10C,0.00000*%
%ADD11C,0.00600*%
%ADD12C,0.00400*%
%ADD13C,0.01600*%
%ADD14C,0.00800*%
%ADD15C,0.01200*%
%ADD16R,0.03400X0.02400*%
%ADD17R,0.02400X0.03400*%
%ADD18R,0.10000X0.02000*%
%ADD19R,0.02000X0.10000*%
%ADD20C,0.01000*%
%ADD21C,0.00500*%
D10*
X0011800Y0006800D02*
X0011800Y0203650D01*
X0208650Y0203650D01*
X0208650Y0006800D01*
X0011800Y0006800D01*
D11*
X0032300Y0025300D02*
X0032300Y0026800D01*
X0032800Y0027300D01*
X0032800Y0046300D01*
X0032300Y0046800D01*
X0032300Y0048300D01*
X0032302Y0048360D01*
X0032307Y0048421D01*
X0032316Y0048480D01*
X0032329Y0048539D01*
X0032345Y0048598D01*
X0032365Y0048655D01*
X0032388Y0048710D01*
X0032415Y0048765D01*
X0032444Y0048817D01*
X0032477Y0048868D01*
X0032513Y0048917D01*
X0032551Y0048963D01*
X0032593Y0049007D01*
X0032637Y0049049D01*
X0032683Y0049087D01*
X0032732Y0049123D01*
X0032783Y0049156D01*
X0032835Y0049185D01*
X0032890Y0049212D01*
X0032945Y0049235D01*
X0033002Y0049255D01*
X0033061Y0049271D01*
X0033120Y0049284D01*
X0033179Y0049293D01*
X0033240Y0049298D01*
X0033300Y0049300D01*
X0040300Y0049300D01*
X0040360Y0049298D01*
X0040421Y0049293D01*
X0040480Y0049284D01*
X0040539Y0049271D01*
X0040598Y0049255D01*
X0040655Y0049235D01*
X0040710Y0049212D01*
X0040765Y0049185D01*
X0040817Y0049156D01*
X0040868Y0049123D01*
X0040917Y0049087D01*
X0040963Y0049049D01*
X0041007Y0049007D01*
X0041049Y0048963D01*
X0041087Y0048917D01*
X0041123Y0048868D01*
X0041156Y0048817D01*
X0041185Y0048765D01*
X0041212Y0048710D01*
X0041235Y0048655D01*
X0041255Y0048598D01*
X0041271Y0048539D01*
X0041284Y0048480D01*
X0041293Y0048421D01*
X0041298Y0048360D01*
X0041300Y0048300D01*
X0041300Y0046800D01*
X0040800Y0046300D01*
X0040800Y0027300D01*
X0041300Y0026800D01*
X0041300Y0025300D01*
X0041298Y0025240D01*
X0041293Y0025179D01*
X0041284Y0025120D01*
X0041271Y0025061D01*
X0041255Y0025002D01*
X0041235Y0024945D01*
X0041212Y0024890D01*
X0041185Y0024835D01*
X0041156Y0024783D01*
X0041123Y0024732D01*
X0041087Y0024683D01*
X0041049Y0024637D01*
X0041007Y0024593D01*
X0040963Y0024551D01*
X0040917Y0024513D01*
X0040868Y0024477D01*
X0040817Y0024444D01*
X0040765Y0024415D01*
X0040710Y0024388D01*
X0040655Y0024365D01*
X0040598Y0024345D01*
X0040539Y0024329D01*
X0040480Y0024316D01*
X0040421Y0024307D01*
X0040360Y0024302D01*
X0040300Y0024300D01*
X0033300Y0024300D01*
X0033240Y0024302D01*
X0033179Y0024307D01*
X0033120Y0024316D01*
X0033061Y0024329D01*
X0033002Y0024345D01*
X0032945Y0024365D01*
X0032890Y0024388D01*
X0032835Y0024415D01*
X0032783Y0024444D01*
X0032732Y0024477D01*
X0032683Y0024513D01*
X0032637Y0024551D01*
X0032593Y0024593D01*
X0032551Y0024637D01*
X0032513Y0024683D01*
X0032477Y0024732D01*
X0032444Y0024783D01*
X0032415Y0024835D01*
X0032388Y0024890D01*
X0032365Y0024945D01*
X0032345Y0025002D01*
X0032329Y0025061D01*
X0032316Y0025120D01*
X0032307Y0025179D01*
X0032302Y0025240D01*
X0032300Y0025300D01*
X0057300Y0025300D02*
X0057300Y0026800D01*
X0057800Y0027300D01*
X0057800Y0046300D01*
X0057300Y0046800D01*
X0057300Y0048300D01*
X0057302Y0048360D01*
X0057307Y0048421D01*
X0057316Y0048480D01*
X0057329Y0048539D01*
X0057345Y0048598D01*
X0057365Y0048655D01*
X0057388Y0048710D01*
X0057415Y0048765D01*
X0057444Y0048817D01*
X0057477Y0048868D01*
X0057513Y0048917D01*
X0057551Y0048963D01*
X0057593Y0049007D01*
X0057637Y0049049D01*
X0057683Y0049087D01*
X0057732Y0049123D01*
X0057783Y0049156D01*
X0057835Y0049185D01*
X0057890Y0049212D01*
X0057945Y0049235D01*
X0058002Y0049255D01*
X0058061Y0049271D01*
X0058120Y0049284D01*
X0058179Y0049293D01*
X0058240Y0049298D01*
X0058300Y0049300D01*
X0065300Y0049300D01*
X0065360Y0049298D01*
X0065421Y0049293D01*
X0065480Y0049284D01*
X0065539Y0049271D01*
X0065598Y0049255D01*
X0065655Y0049235D01*
X0065710Y0049212D01*
X0065765Y0049185D01*
X0065817Y0049156D01*
X0065868Y0049123D01*
X0065917Y0049087D01*
X0065963Y0049049D01*
X0066007Y0049007D01*
X0066049Y0048963D01*
X0066087Y0048917D01*
X0066123Y0048868D01*
X0066156Y0048817D01*
X0066185Y0048765D01*
X0066212Y0048710D01*
X0066235Y0048655D01*
X0066255Y0048598D01*
X0066271Y0048539D01*
X0066284Y0048480D01*
X0066293Y0048421D01*
X0066298Y0048360D01*
X0066300Y0048300D01*
X0066300Y0046800D01*
X0065800Y0046300D01*
X0065800Y0027300D01*
X0066300Y0026800D01*
X0066300Y0025300D01*
X0066298Y0025240D01*
X0066293Y0025179D01*
X0066284Y0025120D01*
X0066271Y0025061D01*
X0066255Y0025002D01*
X0066235Y0024945D01*
X0066212Y0024890D01*
X0066185Y0024835D01*
X0066156Y0024783D01*
X0066123Y0024732D01*
X0066087Y0024683D01*
X0066049Y0024637D01*
X0066007Y0024593D01*
X0065963Y0024551D01*
X0065917Y0024513D01*
X0065868Y0024477D01*
X0065817Y0024444D01*
X0065765Y0024415D01*
X0065710Y0024388D01*
X0065655Y0024365D01*
X0065598Y0024345D01*
X0065539Y0024329D01*
X0065480Y0024316D01*
X0065421Y0024307D01*
X0065360Y0024302D01*
X0065300Y0024300D01*
X0058300Y0024300D01*
X0058240Y0024302D01*
X0058179Y0024307D01*
X0058120Y0024316D01*
X0058061Y0024329D01*
X0058002Y0024345D01*
X0057945Y0024365D01*
X0057890Y0024388D01*
X0057835Y0024415D01*
X0057783Y0024444D01*
X0057732Y0024477D01*
X0057683Y0024513D01*
X0057637Y0024551D01*
X0057593Y0024593D01*
X0057551Y0024637D01*
X0057513Y0024683D01*
X0057477Y0024732D01*
X0057444Y0024783D01*
X0057415Y0024835D01*
X0057388Y0024890D01*
X0057365Y0024945D01*
X0057345Y0025002D01*
X0057329Y0025061D01*
X0057316Y0025120D01*
X0057307Y0025179D01*
X0057302Y0025240D01*
X0057300Y0025300D01*
X0072300Y0030300D02*
X0072300Y0043300D01*
X0072302Y0043387D01*
X0072308Y0043474D01*
X0072317Y0043561D01*
X0072330Y0043647D01*
X0072347Y0043733D01*
X0072368Y0043818D01*
X0072393Y0043901D01*
X0072421Y0043984D01*
X0072452Y0044065D01*
X0072487Y0044145D01*
X0072526Y0044223D01*
X0072568Y0044300D01*
X0072613Y0044375D01*
X0072662Y0044447D01*
X0072713Y0044518D01*
X0072768Y0044586D01*
X0072825Y0044651D01*
X0072886Y0044714D01*
X0072949Y0044775D01*
X0073014Y0044832D01*
X0073082Y0044887D01*
X0073153Y0044938D01*
X0073225Y0044987D01*
X0073300Y0045032D01*
X0073377Y0045074D01*
X0073455Y0045113D01*
X0073535Y0045148D01*
X0073616Y0045179D01*
X0073699Y0045207D01*
X0073782Y0045232D01*
X0073867Y0045253D01*
X0073953Y0045270D01*
X0074039Y0045283D01*
X0074126Y0045292D01*
X0074213Y0045298D01*
X0074300Y0045300D01*
X0079300Y0045300D01*
X0079387Y0045298D01*
X0079474Y0045292D01*
X0079561Y0045283D01*
X0079647Y0045270D01*
X0079733Y0045253D01*
X0079818Y0045232D01*
X0079901Y0045207D01*
X0079984Y0045179D01*
X0080065Y0045148D01*
X0080145Y0045113D01*
X0080223Y0045074D01*
X0080300Y0045032D01*
X0080375Y0044987D01*
X0080447Y0044938D01*
X0080518Y0044887D01*
X0080586Y0044832D01*
X0080651Y0044775D01*
X0080714Y0044714D01*
X0080775Y0044651D01*
X0080832Y0044586D01*
X0080887Y0044518D01*
X0080938Y0044447D01*
X0080987Y0044375D01*
X0081032Y0044300D01*
X0081074Y0044223D01*
X0081113Y0044145D01*
X0081148Y0044065D01*
X0081179Y0043984D01*
X0081207Y0043901D01*
X0081232Y0043818D01*
X0081253Y0043733D01*
X0081270Y0043647D01*
X0081283Y0043561D01*
X0081292Y0043474D01*
X0081298Y0043387D01*
X0081300Y0043300D01*
X0081300Y0030300D01*
X0081298Y0030213D01*
X0081292Y0030126D01*
X0081283Y0030039D01*
X0081270Y0029953D01*
X0081253Y0029867D01*
X0081232Y0029782D01*
X0081207Y0029699D01*
X0081179Y0029616D01*
X0081148Y0029535D01*
X0081113Y0029455D01*
X0081074Y0029377D01*
X0081032Y0029300D01*
X0080987Y0029225D01*
X0080938Y0029153D01*
X0080887Y0029082D01*
X0080832Y0029014D01*
X0080775Y0028949D01*
X0080714Y0028886D01*
X0080651Y0028825D01*
X0080586Y0028768D01*
X0080518Y0028713D01*
X0080447Y0028662D01*
X0080375Y0028613D01*
X0080300Y0028568D01*
X0080223Y0028526D01*
X0080145Y0028487D01*
X0080065Y0028452D01*
X0079984Y0028421D01*
X0079901Y0028393D01*
X0079818Y0028368D01*
X0079733Y0028347D01*
X0079647Y0028330D01*
X0079561Y0028317D01*
X0079474Y0028308D01*
X0079387Y0028302D01*
X0079300Y0028300D01*
X0074300Y0028300D01*
X0074213Y0028302D01*
X0074126Y0028308D01*
X0074039Y0028317D01*
X0073953Y0028330D01*
X0073867Y0028347D01*
X0073782Y0028368D01*
X0073699Y0028393D01*
X0073616Y0028421D01*
X0073535Y0028452D01*
X0073455Y0028487D01*
X0073377Y0028526D01*
X0073300Y0028568D01*
X0073225Y0028613D01*
X0073153Y0028662D01*
X0073082Y0028713D01*
X0073014Y0028768D01*
X0072949Y0028825D01*
X0072886Y0028886D01*
X0072825Y0028949D01*
X0072768Y0029014D01*
X0072713Y0029082D01*
X0072662Y0029153D01*
X0072613Y0029225D01*
X0072568Y0029300D01*
X0072526Y0029377D01*
X0072487Y0029455D01*
X0072452Y0029535D01*
X0072421Y0029616D01*
X0072393Y0029699D01*
X0072368Y0029782D01*
X0072347Y0029867D01*
X0072330Y0029953D01*
X0072317Y0030039D01*
X0072308Y0030126D01*
X0072302Y0030213D01*
X0072300Y0030300D01*
X0100300Y0026800D02*
X0123300Y0026800D01*
X0123300Y0166800D01*
X0115800Y0166800D01*
X0115798Y0166674D01*
X0115792Y0166549D01*
X0115782Y0166424D01*
X0115768Y0166299D01*
X0115751Y0166174D01*
X0115729Y0166050D01*
X0115704Y0165927D01*
X0115674Y0165805D01*
X0115641Y0165684D01*
X0115604Y0165564D01*
X0115564Y0165445D01*
X0115519Y0165328D01*
X0115471Y0165211D01*
X0115419Y0165097D01*
X0115364Y0164984D01*
X0115305Y0164873D01*
X0115243Y0164764D01*
X0115177Y0164657D01*
X0115108Y0164552D01*
X0115036Y0164449D01*
X0114961Y0164348D01*
X0114882Y0164250D01*
X0114800Y0164155D01*
X0114716Y0164062D01*
X0114628Y0163972D01*
X0114538Y0163884D01*
X0114445Y0163800D01*
X0114350Y0163718D01*
X0114252Y0163639D01*
X0114151Y0163564D01*
X0114048Y0163492D01*
X0113943Y0163423D01*
X0113836Y0163357D01*
X0113727Y0163295D01*
X0113616Y0163236D01*
X0113503Y0163181D01*
X0113389Y0163129D01*
X0113272Y0163081D01*
X0113155Y0163036D01*
X0113036Y0162996D01*
X0112916Y0162959D01*
X0112795Y0162926D01*
X0112673Y0162896D01*
X0112550Y0162871D01*
X0112426Y0162849D01*
X0112301Y0162832D01*
X0112176Y0162818D01*
X0112051Y0162808D01*
X0111926Y0162802D01*
X0111800Y0162800D01*
X0111674Y0162802D01*
X0111549Y0162808D01*
X0111424Y0162818D01*
X0111299Y0162832D01*
X0111174Y0162849D01*
X0111050Y0162871D01*
X0110927Y0162896D01*
X0110805Y0162926D01*
X0110684Y0162959D01*
X0110564Y0162996D01*
X0110445Y0163036D01*
X0110328Y0163081D01*
X0110211Y0163129D01*
X0110097Y0163181D01*
X0109984Y0163236D01*
X0109873Y0163295D01*
X0109764Y0163357D01*
X0109657Y0163423D01*
X0109552Y0163492D01*
X0109449Y0163564D01*
X0109348Y0163639D01*
X0109250Y0163718D01*
X0109155Y0163800D01*
X0109062Y0163884D01*
X0108972Y0163972D01*
X0108884Y0164062D01*
X0108800Y0164155D01*
X0108718Y0164250D01*
X0108639Y0164348D01*
X0108564Y0164449D01*
X0108492Y0164552D01*
X0108423Y0164657D01*
X0108357Y0164764D01*
X0108295Y0164873D01*
X0108236Y0164984D01*
X0108181Y0165097D01*
X0108129Y0165211D01*
X0108081Y0165328D01*
X0108036Y0165445D01*
X0107996Y0165564D01*
X0107959Y0165684D01*
X0107926Y0165805D01*
X0107896Y0165927D01*
X0107871Y0166050D01*
X0107849Y0166174D01*
X0107832Y0166299D01*
X0107818Y0166424D01*
X0107808Y0166549D01*
X0107802Y0166674D01*
X0107800Y0166800D01*
X0100300Y0166800D01*
X0100300Y0026800D01*
X0100300Y0021300D02*
X0101800Y0021300D01*
X0102300Y0020800D01*
X0121300Y0020800D01*
X0121800Y0021300D01*
X0123300Y0021300D01*
X0123360Y0021298D01*
X0123421Y0021293D01*
X0123480Y0021284D01*
X0123539Y0021271D01*
X0123598Y0021255D01*
X0123655Y0021235D01*
X0123710Y0021212D01*
X0123765Y0021185D01*
X0123817Y0021156D01*
X0123868Y0021123D01*
X0123917Y0021087D01*
X0123963Y0021049D01*
X0124007Y0021007D01*
X0124049Y0020963D01*
X0124087Y0020917D01*
X0124123Y0020868D01*
X0124156Y0020817D01*
X0124185Y0020765D01*
X0124212Y0020710D01*
X0124235Y0020655D01*
X0124255Y0020598D01*
X0124271Y0020539D01*
X0124284Y0020480D01*
X0124293Y0020421D01*
X0124298Y0020360D01*
X0124300Y0020300D01*
X0124300Y0013300D01*
X0124298Y0013240D01*
X0124293Y0013179D01*
X0124284Y0013120D01*
X0124271Y0013061D01*
X0124255Y0013002D01*
X0124235Y0012945D01*
X0124212Y0012890D01*
X0124185Y0012835D01*
X0124156Y0012783D01*
X0124123Y0012732D01*
X0124087Y0012683D01*
X0124049Y0012637D01*
X0124007Y0012593D01*
X0123963Y0012551D01*
X0123917Y0012513D01*
X0123868Y0012477D01*
X0123817Y0012444D01*
X0123765Y0012415D01*
X0123710Y0012388D01*
X0123655Y0012365D01*
X0123598Y0012345D01*
X0123539Y0012329D01*
X0123480Y0012316D01*
X0123421Y0012307D01*
X0123360Y0012302D01*
X0123300Y0012300D01*
X0121800Y0012300D01*
X0121300Y0012800D01*
X0102300Y0012800D01*
X0101800Y0012300D01*
X0100300Y0012300D01*
X0100240Y0012302D01*
X0100179Y0012307D01*
X0100120Y0012316D01*
X0100061Y0012329D01*
X0100002Y0012345D01*
X0099945Y0012365D01*
X0099890Y0012388D01*
X0099835Y0012415D01*
X0099783Y0012444D01*
X0099732Y0012477D01*
X0099683Y0012513D01*
X0099637Y0012551D01*
X0099593Y0012593D01*
X0099551Y0012637D01*
X0099513Y0012683D01*
X0099477Y0012732D01*
X0099444Y0012783D01*
X0099415Y0012835D01*
X0099388Y0012890D01*
X0099365Y0012945D01*
X0099345Y0013002D01*
X0099329Y0013061D01*
X0099316Y0013120D01*
X0099307Y0013179D01*
X0099302Y0013240D01*
X0099300Y0013300D01*
X0099300Y0020300D01*
X0099302Y0020360D01*
X0099307Y0020421D01*
X0099316Y0020480D01*
X0099329Y0020539D01*
X0099345Y0020598D01*
X0099365Y0020655D01*
X0099388Y0020710D01*
X0099415Y0020765D01*
X0099444Y0020817D01*
X0099477Y0020868D01*
X0099513Y0020917D01*
X0099551Y0020963D01*
X0099593Y0021007D01*
X0099637Y0021049D01*
X0099683Y0021087D01*
X0099732Y0021123D01*
X0099783Y0021156D01*
X0099835Y0021185D01*
X0099890Y0021212D01*
X0099945Y0021235D01*
X0100002Y0021255D01*
X0100061Y0021271D01*
X0100120Y0021284D01*
X0100179Y0021293D01*
X0100240Y0021298D01*
X0100300Y0021300D01*
X0110095Y0054600D02*
X0110095Y0057803D01*
X0111162Y0058870D01*
X0113297Y0058870D01*
X0114365Y0057803D01*
X0114365Y0054600D01*
X0116500Y0054600D02*
X0110095Y0054600D01*
X0110095Y0061045D02*
X0110095Y0063181D01*
X0110095Y0062113D02*
X0116500Y0062113D01*
X0116500Y0061045D02*
X0116500Y0063181D01*
X0115432Y0065342D02*
X0116500Y0066410D01*
X0116500Y0068545D01*
X0115432Y0069613D01*
X0115432Y0071788D02*
X0116500Y0072856D01*
X0116500Y0074991D01*
X0115432Y0076058D01*
X0114365Y0076058D01*
X0113297Y0074991D01*
X0113297Y0073923D01*
X0113297Y0074991D02*
X0112230Y0076058D01*
X0111162Y0076058D01*
X0110095Y0074991D01*
X0110095Y0072856D01*
X0111162Y0071788D01*
X0111162Y0069613D02*
X0110095Y0068545D01*
X0110095Y0066410D01*
X0111162Y0065342D01*
X0115432Y0065342D01*
X0116500Y0078233D02*
X0112230Y0082504D01*
X0111162Y0082504D01*
X0110095Y0081436D01*
X0110095Y0079301D01*
X0111162Y0078233D01*
X0116500Y0078233D02*
X0116500Y0082504D01*
X0116500Y0084679D02*
X0110095Y0084679D01*
X0112230Y0086814D01*
X0110095Y0088949D01*
X0116500Y0088949D01*
X0116500Y0091124D02*
X0110095Y0095395D01*
X0111162Y0097570D02*
X0110095Y0098638D01*
X0110095Y0100773D01*
X0111162Y0101840D01*
X0112230Y0101840D01*
X0116500Y0097570D01*
X0116500Y0101840D01*
X0115432Y0104015D02*
X0116500Y0105083D01*
X0116500Y0107218D01*
X0115432Y0108286D01*
X0113297Y0108286D01*
X0112230Y0107218D01*
X0112230Y0106151D01*
X0113297Y0104015D01*
X0110095Y0104015D01*
X0110095Y0108286D01*
X0111162Y0110461D02*
X0110095Y0111529D01*
X0110095Y0113664D01*
X0111162Y0114731D01*
X0115432Y0110461D01*
X0116500Y0111529D01*
X0116500Y0113664D01*
X0115432Y0114731D01*
X0111162Y0114731D01*
X0110095Y0116906D02*
X0110095Y0121177D01*
X0112230Y0123352D02*
X0110095Y0125487D01*
X0116500Y0125487D01*
X0116500Y0123352D02*
X0116500Y0127622D01*
X0116500Y0129797D02*
X0112230Y0134068D01*
X0111162Y0134068D01*
X0110095Y0133000D01*
X0110095Y0130865D01*
X0111162Y0129797D01*
X0116500Y0129797D02*
X0116500Y0134068D01*
X0115432Y0136243D02*
X0114365Y0136243D01*
X0113297Y0137311D01*
X0113297Y0139446D01*
X0114365Y0140513D01*
X0115432Y0140513D01*
X0116500Y0139446D01*
X0116500Y0137311D01*
X0115432Y0136243D01*
X0113297Y0137311D02*
X0112230Y0136243D01*
X0111162Y0136243D01*
X0110095Y0137311D01*
X0110095Y0139446D01*
X0111162Y0140513D01*
X0112230Y0140513D01*
X0113297Y0139446D01*
X0113297Y0142688D02*
X0113297Y0145891D01*
X0114365Y0146959D01*
X0115432Y0146959D01*
X0116500Y0145891D01*
X0116500Y0142688D01*
X0110095Y0142688D01*
X0110095Y0145891D01*
X0111162Y0146959D01*
X0112230Y0146959D01*
X0113297Y0145891D01*
X0137300Y0145300D02*
X0137300Y0158300D01*
X0137302Y0158387D01*
X0137308Y0158474D01*
X0137317Y0158561D01*
X0137330Y0158647D01*
X0137347Y0158733D01*
X0137368Y0158818D01*
X0137393Y0158901D01*
X0137421Y0158984D01*
X0137452Y0159065D01*
X0137487Y0159145D01*
X0137526Y0159223D01*
X0137568Y0159300D01*
X0137613Y0159375D01*
X0137662Y0159447D01*
X0137713Y0159518D01*
X0137768Y0159586D01*
X0137825Y0159651D01*
X0137886Y0159714D01*
X0137949Y0159775D01*
X0138014Y0159832D01*
X0138082Y0159887D01*
X0138153Y0159938D01*
X0138225Y0159987D01*
X0138300Y0160032D01*
X0138377Y0160074D01*
X0138455Y0160113D01*
X0138535Y0160148D01*
X0138616Y0160179D01*
X0138699Y0160207D01*
X0138782Y0160232D01*
X0138867Y0160253D01*
X0138953Y0160270D01*
X0139039Y0160283D01*
X0139126Y0160292D01*
X0139213Y0160298D01*
X0139300Y0160300D01*
X0144300Y0160300D01*
X0144387Y0160298D01*
X0144474Y0160292D01*
X0144561Y0160283D01*
X0144647Y0160270D01*
X0144733Y0160253D01*
X0144818Y0160232D01*
X0144901Y0160207D01*
X0144984Y0160179D01*
X0145065Y0160148D01*
X0145145Y0160113D01*
X0145223Y0160074D01*
X0145300Y0160032D01*
X0145375Y0159987D01*
X0145447Y0159938D01*
X0145518Y0159887D01*
X0145586Y0159832D01*
X0145651Y0159775D01*
X0145714Y0159714D01*
X0145775Y0159651D01*
X0145832Y0159586D01*
X0145887Y0159518D01*
X0145938Y0159447D01*
X0145987Y0159375D01*
X0146032Y0159300D01*
X0146074Y0159223D01*
X0146113Y0159145D01*
X0146148Y0159065D01*
X0146179Y0158984D01*
X0146207Y0158901D01*
X0146232Y0158818D01*
X0146253Y0158733D01*
X0146270Y0158647D01*
X0146283Y0158561D01*
X0146292Y0158474D01*
X0146298Y0158387D01*
X0146300Y0158300D01*
X0146300Y0145300D01*
X0146298Y0145213D01*
X0146292Y0145126D01*
X0146283Y0145039D01*
X0146270Y0144953D01*
X0146253Y0144867D01*
X0146232Y0144782D01*
X0146207Y0144699D01*
X0146179Y0144616D01*
X0146148Y0144535D01*
X0146113Y0144455D01*
X0146074Y0144377D01*
X0146032Y0144300D01*
X0145987Y0144225D01*
X0145938Y0144153D01*
X0145887Y0144082D01*
X0145832Y0144014D01*
X0145775Y0143949D01*
X0145714Y0143886D01*
X0145651Y0143825D01*
X0145586Y0143768D01*
X0145518Y0143713D01*
X0145447Y0143662D01*
X0145375Y0143613D01*
X0145300Y0143568D01*
X0145223Y0143526D01*
X0145145Y0143487D01*
X0145065Y0143452D01*
X0144984Y0143421D01*
X0144901Y0143393D01*
X0144818Y0143368D01*
X0144733Y0143347D01*
X0144647Y0143330D01*
X0144561Y0143317D01*
X0144474Y0143308D01*
X0144387Y0143302D01*
X0144300Y0143300D01*
X0139300Y0143300D01*
X0139213Y0143302D01*
X0139126Y0143308D01*
X0139039Y0143317D01*
X0138953Y0143330D01*
X0138867Y0143347D01*
X0138782Y0143368D01*
X0138699Y0143393D01*
X0138616Y0143421D01*
X0138535Y0143452D01*
X0138455Y0143487D01*
X0138377Y0143526D01*
X0138300Y0143568D01*
X0138225Y0143613D01*
X0138153Y0143662D01*
X0138082Y0143713D01*
X0138014Y0143768D01*
X0137949Y0143825D01*
X0137886Y0143886D01*
X0137825Y0143949D01*
X0137768Y0144014D01*
X0137713Y0144082D01*
X0137662Y0144153D01*
X0137613Y0144225D01*
X0137568Y0144300D01*
X0137526Y0144377D01*
X0137487Y0144455D01*
X0137452Y0144535D01*
X0137421Y0144616D01*
X0137393Y0144699D01*
X0137368Y0144782D01*
X0137347Y0144867D01*
X0137330Y0144953D01*
X0137317Y0145039D01*
X0137308Y0145126D01*
X0137302Y0145213D01*
X0137300Y0145300D01*
X0154300Y0163300D02*
X0154300Y0170300D01*
X0154302Y0170360D01*
X0154307Y0170421D01*
X0154316Y0170480D01*
X0154329Y0170539D01*
X0154345Y0170598D01*
X0154365Y0170655D01*
X0154388Y0170710D01*
X0154415Y0170765D01*
X0154444Y0170817D01*
X0154477Y0170868D01*
X0154513Y0170917D01*
X0154551Y0170963D01*
X0154593Y0171007D01*
X0154637Y0171049D01*
X0154683Y0171087D01*
X0154732Y0171123D01*
X0154783Y0171156D01*
X0154835Y0171185D01*
X0154890Y0171212D01*
X0154945Y0171235D01*
X0155002Y0171255D01*
X0155061Y0171271D01*
X0155120Y0171284D01*
X0155179Y0171293D01*
X0155240Y0171298D01*
X0155300Y0171300D01*
X0156800Y0171300D01*
X0157300Y0170800D01*
X0176300Y0170800D01*
X0176800Y0171300D01*
X0178300Y0171300D01*
X0178360Y0171298D01*
X0178421Y0171293D01*
X0178480Y0171284D01*
X0178539Y0171271D01*
X0178598Y0171255D01*
X0178655Y0171235D01*
X0178710Y0171212D01*
X0178765Y0171185D01*
X0178817Y0171156D01*
X0178868Y0171123D01*
X0178917Y0171087D01*
X0178963Y0171049D01*
X0179007Y0171007D01*
X0179049Y0170963D01*
X0179087Y0170917D01*
X0179123Y0170868D01*
X0179156Y0170817D01*
X0179185Y0170765D01*
X0179212Y0170710D01*
X0179235Y0170655D01*
X0179255Y0170598D01*
X0179271Y0170539D01*
X0179284Y0170480D01*
X0179293Y0170421D01*
X0179298Y0170360D01*
X0179300Y0170300D01*
X0179300Y0163300D01*
X0179298Y0163240D01*
X0179293Y0163179D01*
X0179284Y0163120D01*
X0179271Y0163061D01*
X0179255Y0163002D01*
X0179235Y0162945D01*
X0179212Y0162890D01*
X0179185Y0162835D01*
X0179156Y0162783D01*
X0179123Y0162732D01*
X0179087Y0162683D01*
X0179049Y0162637D01*
X0179007Y0162593D01*
X0178963Y0162551D01*
X0178917Y0162513D01*
X0178868Y0162477D01*
X0178817Y0162444D01*
X0178765Y0162415D01*
X0178710Y0162388D01*
X0178655Y0162365D01*
X0178598Y0162345D01*
X0178539Y0162329D01*
X0178480Y0162316D01*
X0178421Y0162307D01*
X0178360Y0162302D01*
X0178300Y0162300D01*
X0176800Y0162300D01*
X0176300Y0162800D01*
X0157300Y0162800D01*
X0156800Y0162300D01*
X0155300Y0162300D01*
X0155240Y0162302D01*
X0155179Y0162307D01*
X0155120Y0162316D01*
X0155061Y0162329D01*
X0155002Y0162345D01*
X0154945Y0162365D01*
X0154890Y0162388D01*
X0154835Y0162415D01*
X0154783Y0162444D01*
X0154732Y0162477D01*
X0154683Y0162513D01*
X0154637Y0162551D01*
X0154593Y0162593D01*
X0154551Y0162637D01*
X0154513Y0162683D01*
X0154477Y0162732D01*
X0154444Y0162783D01*
X0154415Y0162835D01*
X0154388Y0162890D01*
X0154365Y0162945D01*
X0154345Y0163002D01*
X0154329Y0163061D01*
X0154316Y0163120D01*
X0154307Y0163179D01*
X0154302Y0163240D01*
X0154300Y0163300D01*
X0141300Y0173800D02*
X0141300Y0198300D01*
X0138300Y0201300D01*
X0125300Y0201300D01*
X0122300Y0198300D01*
X0122300Y0173800D01*
X0122302Y0173724D01*
X0122308Y0173648D01*
X0122317Y0173573D01*
X0122331Y0173498D01*
X0122348Y0173424D01*
X0122369Y0173351D01*
X0122393Y0173279D01*
X0122422Y0173208D01*
X0122453Y0173139D01*
X0122488Y0173072D01*
X0122527Y0173007D01*
X0122569Y0172943D01*
X0122614Y0172882D01*
X0122662Y0172823D01*
X0122713Y0172767D01*
X0122767Y0172713D01*
X0122823Y0172662D01*
X0122882Y0172614D01*
X0122943Y0172569D01*
X0123007Y0172527D01*
X0123072Y0172488D01*
X0123139Y0172453D01*
X0123208Y0172422D01*
X0123279Y0172393D01*
X0123351Y0172369D01*
X0123424Y0172348D01*
X0123498Y0172331D01*
X0123573Y0172317D01*
X0123648Y0172308D01*
X0123724Y0172302D01*
X0123800Y0172300D01*
X0139800Y0172300D01*
X0139876Y0172302D01*
X0139952Y0172308D01*
X0140027Y0172317D01*
X0140102Y0172331D01*
X0140176Y0172348D01*
X0140249Y0172369D01*
X0140321Y0172393D01*
X0140392Y0172422D01*
X0140461Y0172453D01*
X0140528Y0172488D01*
X0140593Y0172527D01*
X0140657Y0172569D01*
X0140718Y0172614D01*
X0140777Y0172662D01*
X0140833Y0172713D01*
X0140887Y0172767D01*
X0140938Y0172823D01*
X0140986Y0172882D01*
X0141031Y0172943D01*
X0141073Y0173007D01*
X0141112Y0173072D01*
X0141147Y0173139D01*
X0141178Y0173208D01*
X0141207Y0173279D01*
X0141231Y0173351D01*
X0141252Y0173424D01*
X0141269Y0173498D01*
X0141283Y0173573D01*
X0141292Y0173648D01*
X0141298Y0173724D01*
X0141300Y0173800D01*
X0144300Y0183300D02*
X0149300Y0183300D01*
X0149387Y0183302D01*
X0149474Y0183308D01*
X0149561Y0183317D01*
X0149647Y0183330D01*
X0149733Y0183347D01*
X0149818Y0183368D01*
X0149901Y0183393D01*
X0149984Y0183421D01*
X0150065Y0183452D01*
X0150145Y0183487D01*
X0150223Y0183526D01*
X0150300Y0183568D01*
X0150375Y0183613D01*
X0150447Y0183662D01*
X0150518Y0183713D01*
X0150586Y0183768D01*
X0150651Y0183825D01*
X0150714Y0183886D01*
X0150775Y0183949D01*
X0150832Y0184014D01*
X0150887Y0184082D01*
X0150938Y0184153D01*
X0150987Y0184225D01*
X0151032Y0184300D01*
X0151074Y0184377D01*
X0151113Y0184455D01*
X0151148Y0184535D01*
X0151179Y0184616D01*
X0151207Y0184699D01*
X0151232Y0184782D01*
X0151253Y0184867D01*
X0151270Y0184953D01*
X0151283Y0185039D01*
X0151292Y0185126D01*
X0151298Y0185213D01*
X0151300Y0185300D01*
X0151300Y0198300D01*
X0151298Y0198387D01*
X0151292Y0198474D01*
X0151283Y0198561D01*
X0151270Y0198647D01*
X0151253Y0198733D01*
X0151232Y0198818D01*
X0151207Y0198901D01*
X0151179Y0198984D01*
X0151148Y0199065D01*
X0151113Y0199145D01*
X0151074Y0199223D01*
X0151032Y0199300D01*
X0150987Y0199375D01*
X0150938Y0199447D01*
X0150887Y0199518D01*
X0150832Y0199586D01*
X0150775Y0199651D01*
X0150714Y0199714D01*
X0150651Y0199775D01*
X0150586Y0199832D01*
X0150518Y0199887D01*
X0150447Y0199938D01*
X0150375Y0199987D01*
X0150300Y0200032D01*
X0150223Y0200074D01*
X0150145Y0200113D01*
X0150065Y0200148D01*
X0149984Y0200179D01*
X0149901Y0200207D01*
X0149818Y0200232D01*
X0149733Y0200253D01*
X0149647Y0200270D01*
X0149561Y0200283D01*
X0149474Y0200292D01*
X0149387Y0200298D01*
X0149300Y0200300D01*
X0144300Y0200300D01*
X0144213Y0200298D01*
X0144126Y0200292D01*
X0144039Y0200283D01*
X0143953Y0200270D01*
X0143867Y0200253D01*
X0143782Y0200232D01*
X0143699Y0200207D01*
X0143616Y0200179D01*
X0143535Y0200148D01*
X0143455Y0200113D01*
X0143377Y0200074D01*
X0143300Y0200032D01*
X0143225Y0199987D01*
X0143153Y0199938D01*
X0143082Y0199887D01*
X0143014Y0199832D01*
X0142949Y0199775D01*
X0142886Y0199714D01*
X0142825Y0199651D01*
X0142768Y0199586D01*
X0142713Y0199518D01*
X0142662Y0199447D01*
X0142613Y0199375D01*
X0142568Y0199300D01*
X0142526Y0199223D01*
X0142487Y0199145D01*
X0142452Y0199065D01*
X0142421Y0198984D01*
X0142393Y0198901D01*
X0142368Y0198818D01*
X0142347Y0198733D01*
X0142330Y0198647D01*
X0142317Y0198561D01*
X0142308Y0198474D01*
X0142302Y0198387D01*
X0142300Y0198300D01*
X0142300Y0185300D01*
X0142302Y0185213D01*
X0142308Y0185126D01*
X0142317Y0185039D01*
X0142330Y0184953D01*
X0142347Y0184867D01*
X0142368Y0184782D01*
X0142393Y0184699D01*
X0142421Y0184616D01*
X0142452Y0184535D01*
X0142487Y0184455D01*
X0142526Y0184377D01*
X0142568Y0184300D01*
X0142613Y0184225D01*
X0142662Y0184153D01*
X0142713Y0184082D01*
X0142768Y0184014D01*
X0142825Y0183949D01*
X0142886Y0183886D01*
X0142949Y0183825D01*
X0143014Y0183768D01*
X0143082Y0183713D01*
X0143153Y0183662D01*
X0143225Y0183613D01*
X0143300Y0183568D01*
X0143377Y0183526D01*
X0143455Y0183487D01*
X0143535Y0183452D01*
X0143616Y0183421D01*
X0143699Y0183393D01*
X0143782Y0183368D01*
X0143867Y0183347D01*
X0143953Y0183330D01*
X0144039Y0183317D01*
X0144126Y0183308D01*
X0144213Y0183302D01*
X0144300Y0183300D01*
X0136600Y0187300D02*
X0136600Y0189300D01*
X0131800Y0189300D01*
X0127000Y0189300D01*
X0127000Y0187300D01*
X0136600Y0187300D01*
X0131800Y0189300D02*
X0131800Y0192800D01*
X0135900Y0193800D02*
X0138400Y0193800D01*
X0137200Y0192500D02*
X0137200Y0195100D01*
X0131800Y0184300D02*
X0131800Y0180800D01*
X0087550Y0178300D02*
X0087550Y0165300D01*
X0087548Y0165213D01*
X0087542Y0165126D01*
X0087533Y0165039D01*
X0087520Y0164953D01*
X0087503Y0164867D01*
X0087482Y0164782D01*
X0087457Y0164699D01*
X0087429Y0164616D01*
X0087398Y0164535D01*
X0087363Y0164455D01*
X0087324Y0164377D01*
X0087282Y0164300D01*
X0087237Y0164225D01*
X0087188Y0164153D01*
X0087137Y0164082D01*
X0087082Y0164014D01*
X0087025Y0163949D01*
X0086964Y0163886D01*
X0086901Y0163825D01*
X0086836Y0163768D01*
X0086768Y0163713D01*
X0086697Y0163662D01*
X0086625Y0163613D01*
X0086550Y0163568D01*
X0086473Y0163526D01*
X0086395Y0163487D01*
X0086315Y0163452D01*
X0086234Y0163421D01*
X0086151Y0163393D01*
X0086068Y0163368D01*
X0085983Y0163347D01*
X0085897Y0163330D01*
X0085811Y0163317D01*
X0085724Y0163308D01*
X0085637Y0163302D01*
X0085550Y0163300D01*
X0080550Y0163300D01*
X0080463Y0163302D01*
X0080376Y0163308D01*
X0080289Y0163317D01*
X0080203Y0163330D01*
X0080117Y0163347D01*
X0080032Y0163368D01*
X0079949Y0163393D01*
X0079866Y0163421D01*
X0079785Y0163452D01*
X0079705Y0163487D01*
X0079627Y0163526D01*
X0079550Y0163568D01*
X0079475Y0163613D01*
X0079403Y0163662D01*
X0079332Y0163713D01*
X0079264Y0163768D01*
X0079199Y0163825D01*
X0079136Y0163886D01*
X0079075Y0163949D01*
X0079018Y0164014D01*
X0078963Y0164082D01*
X0078912Y0164153D01*
X0078863Y0164225D01*
X0078818Y0164300D01*
X0078776Y0164377D01*
X0078737Y0164455D01*
X0078702Y0164535D01*
X0078671Y0164616D01*
X0078643Y0164699D01*
X0078618Y0164782D01*
X0078597Y0164867D01*
X0078580Y0164953D01*
X0078567Y0165039D01*
X0078558Y0165126D01*
X0078552Y0165213D01*
X0078550Y0165300D01*
X0078550Y0178300D01*
X0078552Y0178387D01*
X0078558Y0178474D01*
X0078567Y0178561D01*
X0078580Y0178647D01*
X0078597Y0178733D01*
X0078618Y0178818D01*
X0078643Y0178901D01*
X0078671Y0178984D01*
X0078702Y0179065D01*
X0078737Y0179145D01*
X0078776Y0179223D01*
X0078818Y0179300D01*
X0078863Y0179375D01*
X0078912Y0179447D01*
X0078963Y0179518D01*
X0079018Y0179586D01*
X0079075Y0179651D01*
X0079136Y0179714D01*
X0079199Y0179775D01*
X0079264Y0179832D01*
X0079332Y0179887D01*
X0079403Y0179938D01*
X0079475Y0179987D01*
X0079550Y0180032D01*
X0079627Y0180074D01*
X0079705Y0180113D01*
X0079785Y0180148D01*
X0079866Y0180179D01*
X0079949Y0180207D01*
X0080032Y0180232D01*
X0080117Y0180253D01*
X0080203Y0180270D01*
X0080289Y0180283D01*
X0080376Y0180292D01*
X0080463Y0180298D01*
X0080550Y0180300D01*
X0085550Y0180300D01*
X0085637Y0180298D01*
X0085724Y0180292D01*
X0085811Y0180283D01*
X0085897Y0180270D01*
X0085983Y0180253D01*
X0086068Y0180232D01*
X0086151Y0180207D01*
X0086234Y0180179D01*
X0086315Y0180148D01*
X0086395Y0180113D01*
X0086473Y0180074D01*
X0086550Y0180032D01*
X0086625Y0179987D01*
X0086697Y0179938D01*
X0086768Y0179887D01*
X0086836Y0179832D01*
X0086901Y0179775D01*
X0086964Y0179714D01*
X0087025Y0179651D01*
X0087082Y0179586D01*
X0087137Y0179518D01*
X0087188Y0179447D01*
X0087237Y0179375D01*
X0087282Y0179300D01*
X0087324Y0179223D01*
X0087363Y0179145D01*
X0087398Y0179065D01*
X0087429Y0178984D01*
X0087457Y0178901D01*
X0087482Y0178818D01*
X0087503Y0178733D01*
X0087520Y0178647D01*
X0087533Y0178561D01*
X0087542Y0178474D01*
X0087548Y0178387D01*
X0087550Y0178300D01*
X0035316Y0144938D02*
X0035316Y0140668D01*
X0034248Y0139600D01*
X0032113Y0139600D01*
X0031045Y0140668D01*
X0035316Y0144938D01*
X0034248Y0146005D01*
X0032113Y0146005D01*
X0031045Y0144938D01*
X0031045Y0140668D01*
X0028870Y0139600D02*
X0028870Y0143870D01*
X0026735Y0146005D01*
X0024600Y0143870D01*
X0024600Y0139600D01*
X0026735Y0136005D02*
X0028870Y0133870D01*
X0028870Y0129600D01*
X0031045Y0129600D02*
X0035316Y0129600D01*
X0033181Y0129600D02*
X0033181Y0136005D01*
X0031045Y0133870D01*
X0028870Y0132803D02*
X0024600Y0132803D01*
X0024600Y0133870D02*
X0024600Y0129600D01*
X0024600Y0126005D02*
X0027803Y0126005D01*
X0028870Y0124938D01*
X0028870Y0123870D01*
X0027803Y0122803D01*
X0024600Y0122803D01*
X0024600Y0126005D02*
X0024600Y0119600D01*
X0027803Y0119600D01*
X0028870Y0120668D01*
X0028870Y0121735D01*
X0027803Y0122803D01*
X0031045Y0124938D02*
X0032113Y0126005D01*
X0034248Y0126005D01*
X0035316Y0124938D01*
X0035316Y0123870D01*
X0031045Y0119600D01*
X0035316Y0119600D01*
X0034248Y0116005D02*
X0032113Y0116005D01*
X0031045Y0114938D01*
X0028870Y0114938D02*
X0028870Y0113870D01*
X0027803Y0112803D01*
X0024600Y0112803D01*
X0024600Y0116005D02*
X0027803Y0116005D01*
X0028870Y0114938D01*
X0027803Y0112803D02*
X0028870Y0111735D01*
X0028870Y0110668D01*
X0027803Y0109600D01*
X0024600Y0109600D01*
X0024600Y0116005D01*
X0031045Y0110668D02*
X0032113Y0109600D01*
X0034248Y0109600D01*
X0035316Y0110668D01*
X0035316Y0111735D01*
X0034248Y0112803D01*
X0033181Y0112803D01*
X0034248Y0112803D02*
X0035316Y0113870D01*
X0035316Y0114938D01*
X0034248Y0116005D01*
X0034248Y0106005D02*
X0031045Y0102803D01*
X0035316Y0102803D01*
X0034248Y0106005D02*
X0034248Y0099600D01*
X0034248Y0096005D02*
X0031045Y0092803D01*
X0035316Y0092803D01*
X0034248Y0096005D02*
X0034248Y0089600D01*
X0035336Y0086005D02*
X0037471Y0086005D01*
X0038539Y0084938D01*
X0038539Y0083870D01*
X0037471Y0082803D01*
X0038539Y0081735D01*
X0038539Y0080668D01*
X0037471Y0079600D01*
X0035336Y0079600D01*
X0034268Y0080668D01*
X0032113Y0080668D02*
X0032113Y0079600D01*
X0031045Y0079600D01*
X0031045Y0080668D01*
X0032113Y0080668D01*
X0028870Y0080668D02*
X0028870Y0081735D01*
X0027803Y0082803D01*
X0026735Y0082803D01*
X0027803Y0082803D02*
X0028870Y0083870D01*
X0028870Y0084938D01*
X0027803Y0086005D01*
X0025668Y0086005D01*
X0024600Y0084938D01*
X0024600Y0080668D02*
X0025668Y0079600D01*
X0027803Y0079600D01*
X0028870Y0080668D01*
X0034268Y0084938D02*
X0035336Y0086005D01*
X0036403Y0082803D02*
X0037471Y0082803D01*
X0040714Y0081735D02*
X0042849Y0079600D01*
X0044984Y0081735D01*
X0044984Y0086005D01*
X0040714Y0086005D02*
X0040714Y0081735D01*
X0040694Y0073505D02*
X0037491Y0073505D01*
X0037491Y0067100D01*
X0040694Y0067100D01*
X0041761Y0068168D01*
X0041761Y0072438D01*
X0040694Y0073505D01*
X0035316Y0073505D02*
X0035316Y0067100D01*
X0031045Y0073505D01*
X0031045Y0067100D01*
X0028870Y0068168D02*
X0028870Y0070303D01*
X0026735Y0070303D01*
X0024600Y0072438D02*
X0024600Y0068168D01*
X0025668Y0067100D01*
X0027803Y0067100D01*
X0028870Y0068168D01*
X0028870Y0072438D02*
X0027803Y0073505D01*
X0025668Y0073505D01*
X0024600Y0072438D01*
X0017064Y0053117D02*
X0017158Y0052998D01*
X0017256Y0052882D01*
X0017356Y0052768D01*
X0017460Y0052657D01*
X0017566Y0052549D01*
X0017674Y0052443D01*
X0017786Y0052341D01*
X0017900Y0052241D01*
X0018016Y0052143D01*
X0018135Y0052049D01*
X0018256Y0051958D01*
X0018380Y0051870D01*
X0018506Y0051785D01*
X0018633Y0051704D01*
X0018763Y0051625D01*
X0018895Y0051550D01*
X0019028Y0051479D01*
X0019164Y0051410D01*
X0019301Y0051345D01*
X0019439Y0051284D01*
X0019580Y0051226D01*
X0019721Y0051172D01*
X0019864Y0051121D01*
X0020008Y0051074D01*
X0020153Y0051030D01*
X0020300Y0050991D01*
X0020447Y0050955D01*
X0020595Y0050922D01*
X0020744Y0050894D01*
X0020894Y0050869D01*
X0021044Y0050848D01*
X0021194Y0050831D01*
X0021346Y0050817D01*
X0021497Y0050808D01*
X0021648Y0050802D01*
X0021800Y0050800D01*
X0017000Y0060400D02*
X0017092Y0060519D01*
X0017186Y0060636D01*
X0017284Y0060750D01*
X0017384Y0060862D01*
X0017488Y0060972D01*
X0017593Y0061078D01*
X0017702Y0061183D01*
X0017813Y0061284D01*
X0017927Y0061382D01*
X0018043Y0061478D01*
X0018161Y0061571D01*
X0018282Y0061660D01*
X0018405Y0061747D01*
X0018530Y0061830D01*
X0018657Y0061911D01*
X0018786Y0061988D01*
X0018917Y0062062D01*
X0019050Y0062133D01*
X0019184Y0062200D01*
X0019320Y0062264D01*
X0019458Y0062324D01*
X0019597Y0062381D01*
X0019738Y0062434D01*
X0019880Y0062484D01*
X0020023Y0062531D01*
X0020167Y0062573D01*
X0020312Y0062613D01*
X0020458Y0062648D01*
X0020605Y0062680D01*
X0020753Y0062708D01*
X0020901Y0062732D01*
X0021050Y0062753D01*
X0021200Y0062770D01*
X0021349Y0062783D01*
X0021499Y0062792D01*
X0021650Y0062798D01*
X0021800Y0062800D01*
X0026536Y0053117D02*
X0026442Y0052998D01*
X0026344Y0052882D01*
X0026244Y0052768D01*
X0026140Y0052657D01*
X0026034Y0052549D01*
X0025926Y0052443D01*
X0025814Y0052341D01*
X0025700Y0052241D01*
X0025584Y0052143D01*
X0025465Y0052049D01*
X0025344Y0051958D01*
X0025220Y0051870D01*
X0025094Y0051785D01*
X0024967Y0051704D01*
X0024837Y0051625D01*
X0024705Y0051550D01*
X0024572Y0051479D01*
X0024436Y0051410D01*
X0024299Y0051345D01*
X0024161Y0051284D01*
X0024020Y0051226D01*
X0023879Y0051172D01*
X0023736Y0051121D01*
X0023592Y0051074D01*
X0023447Y0051030D01*
X0023300Y0050991D01*
X0023153Y0050955D01*
X0023005Y0050922D01*
X0022856Y0050894D01*
X0022706Y0050869D01*
X0022556Y0050848D01*
X0022406Y0050831D01*
X0022254Y0050817D01*
X0022103Y0050808D01*
X0021952Y0050802D01*
X0021800Y0050800D01*
X0026682Y0060287D02*
X0026591Y0060412D01*
X0026497Y0060534D01*
X0026399Y0060653D01*
X0026299Y0060770D01*
X0026195Y0060884D01*
X0026089Y0060996D01*
X0025980Y0061104D01*
X0025868Y0061210D01*
X0025753Y0061313D01*
X0025636Y0061413D01*
X0025516Y0061511D01*
X0025394Y0061604D01*
X0025270Y0061695D01*
X0025143Y0061783D01*
X0025014Y0061867D01*
X0024882Y0061948D01*
X0024749Y0062025D01*
X0024614Y0062099D01*
X0024477Y0062170D01*
X0024338Y0062237D01*
X0024198Y0062300D01*
X0024055Y0062360D01*
X0023912Y0062416D01*
X0023767Y0062468D01*
X0023621Y0062517D01*
X0023473Y0062562D01*
X0023325Y0062603D01*
X0023175Y0062640D01*
X0023025Y0062674D01*
X0022873Y0062703D01*
X0022721Y0062729D01*
X0022569Y0062751D01*
X0022416Y0062768D01*
X0022262Y0062782D01*
X0022108Y0062792D01*
X0021954Y0062798D01*
X0021800Y0062800D01*
X0024600Y0089600D02*
X0024600Y0093870D01*
X0026735Y0096005D01*
X0028870Y0093870D01*
X0028870Y0089600D01*
X0028870Y0092803D02*
X0024600Y0092803D01*
X0024600Y0099600D02*
X0027803Y0099600D01*
X0028870Y0100668D01*
X0028870Y0101735D01*
X0027803Y0102803D01*
X0024600Y0102803D01*
X0024600Y0106005D02*
X0027803Y0106005D01*
X0028870Y0104938D01*
X0028870Y0103870D01*
X0027803Y0102803D01*
X0024600Y0099600D02*
X0024600Y0106005D01*
X0024600Y0133870D02*
X0026735Y0136005D01*
X0024600Y0142803D02*
X0028870Y0142803D01*
X0110095Y0116906D02*
X0116500Y0116906D01*
X0113297Y0116906D02*
X0113297Y0119042D01*
X0115432Y0110461D02*
X0111162Y0110461D01*
X0116500Y0095395D02*
X0110095Y0091124D01*
X0137300Y0088300D02*
X0137300Y0075300D01*
X0140300Y0072300D01*
X0164800Y0072300D01*
X0164876Y0072302D01*
X0164952Y0072308D01*
X0165027Y0072317D01*
X0165102Y0072331D01*
X0165176Y0072348D01*
X0165249Y0072369D01*
X0165321Y0072393D01*
X0165392Y0072422D01*
X0165461Y0072453D01*
X0165528Y0072488D01*
X0165593Y0072527D01*
X0165657Y0072569D01*
X0165718Y0072614D01*
X0165777Y0072662D01*
X0165833Y0072713D01*
X0165887Y0072767D01*
X0165938Y0072823D01*
X0165986Y0072882D01*
X0166031Y0072943D01*
X0166073Y0073007D01*
X0166112Y0073072D01*
X0166147Y0073139D01*
X0166178Y0073208D01*
X0166207Y0073279D01*
X0166231Y0073351D01*
X0166252Y0073424D01*
X0166269Y0073498D01*
X0166283Y0073573D01*
X0166292Y0073648D01*
X0166298Y0073724D01*
X0166300Y0073800D01*
X0166300Y0089800D01*
X0166298Y0089876D01*
X0166292Y0089952D01*
X0166283Y0090027D01*
X0166269Y0090102D01*
X0166252Y0090176D01*
X0166231Y0090249D01*
X0166207Y0090321D01*
X0166178Y0090392D01*
X0166147Y0090461D01*
X0166112Y0090528D01*
X0166073Y0090593D01*
X0166031Y0090657D01*
X0165986Y0090718D01*
X0165938Y0090777D01*
X0165887Y0090833D01*
X0165833Y0090887D01*
X0165777Y0090938D01*
X0165718Y0090986D01*
X0165657Y0091031D01*
X0165593Y0091073D01*
X0165528Y0091112D01*
X0165461Y0091147D01*
X0165392Y0091178D01*
X0165321Y0091207D01*
X0165249Y0091231D01*
X0165176Y0091252D01*
X0165102Y0091269D01*
X0165027Y0091283D01*
X0164952Y0091292D01*
X0164876Y0091298D01*
X0164800Y0091300D01*
X0140300Y0091300D01*
X0137300Y0088300D01*
X0143500Y0087200D02*
X0146100Y0087200D01*
X0144800Y0088400D02*
X0144800Y0085900D01*
X0145800Y0081800D02*
X0149300Y0081800D01*
X0149300Y0086600D01*
X0151300Y0086600D01*
X0151300Y0077000D01*
X0149300Y0077000D01*
X0149300Y0081800D01*
X0154300Y0081800D02*
X0157800Y0081800D01*
X0174600Y0072438D02*
X0174600Y0068168D01*
X0175668Y0067100D01*
X0177803Y0067100D01*
X0178870Y0068168D01*
X0178870Y0070303D01*
X0176735Y0070303D01*
X0174600Y0072438D02*
X0175668Y0073505D01*
X0177803Y0073505D01*
X0178870Y0072438D01*
X0181045Y0073505D02*
X0185316Y0067100D01*
X0185316Y0073505D01*
X0187491Y0073505D02*
X0190694Y0073505D01*
X0191761Y0072438D01*
X0191761Y0068168D01*
X0190694Y0067100D01*
X0187491Y0067100D01*
X0187491Y0073505D01*
X0187803Y0077100D02*
X0185668Y0077100D01*
X0184600Y0078168D01*
X0184600Y0080303D02*
X0186735Y0081370D01*
X0187803Y0081370D01*
X0188870Y0080303D01*
X0188870Y0078168D01*
X0187803Y0077100D01*
X0191045Y0079235D02*
X0193181Y0077100D01*
X0195316Y0079235D01*
X0195316Y0083505D01*
X0191045Y0083505D02*
X0191045Y0079235D01*
X0188870Y0083505D02*
X0184600Y0083505D01*
X0184600Y0080303D01*
X0181045Y0073505D02*
X0181045Y0067100D01*
X0184600Y0089600D02*
X0187803Y0089600D01*
X0188870Y0090668D01*
X0188870Y0091735D01*
X0187803Y0092803D01*
X0184600Y0092803D01*
X0184600Y0096005D02*
X0187803Y0096005D01*
X0188870Y0094938D01*
X0188870Y0093870D01*
X0187803Y0092803D01*
X0184600Y0089600D02*
X0184600Y0096005D01*
X0184600Y0099600D02*
X0187803Y0099600D01*
X0188870Y0100668D01*
X0188870Y0101735D01*
X0187803Y0102803D01*
X0184600Y0102803D01*
X0184600Y0106005D02*
X0187803Y0106005D01*
X0188870Y0104938D01*
X0188870Y0103870D01*
X0187803Y0102803D01*
X0184600Y0099600D02*
X0184600Y0106005D01*
X0184600Y0109600D02*
X0187803Y0109600D01*
X0188870Y0110668D01*
X0188870Y0111735D01*
X0187803Y0112803D01*
X0184600Y0112803D01*
X0184600Y0116005D02*
X0187803Y0116005D01*
X0188870Y0114938D01*
X0188870Y0113870D01*
X0187803Y0112803D01*
X0184600Y0109600D02*
X0184600Y0116005D01*
X0186045Y0117100D02*
X0190316Y0117100D01*
X0192113Y0116005D02*
X0191045Y0114938D01*
X0191045Y0113870D01*
X0192113Y0112803D01*
X0195316Y0112803D01*
X0195316Y0114938D02*
X0194248Y0116005D01*
X0192113Y0116005D01*
X0193559Y0117100D02*
X0192491Y0118168D01*
X0193559Y0117100D02*
X0195694Y0117100D01*
X0196761Y0118168D01*
X0196761Y0119235D01*
X0195694Y0120303D01*
X0194626Y0120303D01*
X0195694Y0120303D02*
X0196761Y0121370D01*
X0196761Y0122438D01*
X0195694Y0123505D01*
X0193559Y0123505D01*
X0192491Y0122438D01*
X0188181Y0123505D02*
X0188181Y0117100D01*
X0183870Y0118168D02*
X0182803Y0117100D01*
X0179600Y0117100D01*
X0179600Y0123505D01*
X0182803Y0123505D01*
X0183870Y0122438D01*
X0183870Y0121370D01*
X0182803Y0120303D01*
X0179600Y0120303D01*
X0182803Y0120303D02*
X0183870Y0119235D01*
X0183870Y0118168D01*
X0186045Y0121370D02*
X0188181Y0123505D01*
X0189795Y0129600D02*
X0194066Y0129600D01*
X0191931Y0129600D02*
X0191931Y0136005D01*
X0189795Y0133870D01*
X0187620Y0133870D02*
X0186553Y0132803D01*
X0183350Y0132803D01*
X0183350Y0136005D02*
X0183350Y0129600D01*
X0186553Y0129600D01*
X0187620Y0130668D01*
X0187620Y0131735D01*
X0186553Y0132803D01*
X0187620Y0133870D02*
X0187620Y0134938D01*
X0186553Y0136005D01*
X0183350Y0136005D01*
X0184053Y0140850D02*
X0180850Y0140850D01*
X0180850Y0147255D01*
X0184053Y0147255D01*
X0185120Y0146188D01*
X0185120Y0145120D01*
X0184053Y0144053D01*
X0180850Y0144053D01*
X0184053Y0144053D02*
X0185120Y0142985D01*
X0185120Y0141918D01*
X0184053Y0140850D01*
X0187295Y0140850D02*
X0191566Y0140850D01*
X0189431Y0140850D02*
X0189431Y0147255D01*
X0187295Y0145120D01*
X0193741Y0144053D02*
X0195876Y0145120D01*
X0196944Y0145120D01*
X0198011Y0144053D01*
X0198011Y0141918D01*
X0196944Y0140850D01*
X0194809Y0140850D01*
X0193741Y0141918D01*
X0193741Y0144053D02*
X0193741Y0147255D01*
X0198011Y0147255D01*
X0199444Y0136005D02*
X0196241Y0132803D01*
X0200511Y0132803D01*
X0199444Y0136005D02*
X0199444Y0129600D01*
X0195316Y0114938D02*
X0195316Y0110668D01*
X0194248Y0109600D01*
X0192113Y0109600D01*
X0191045Y0110668D01*
X0192113Y0106005D02*
X0194248Y0106005D01*
X0195316Y0104938D01*
X0195316Y0103870D01*
X0194248Y0102803D01*
X0192113Y0102803D01*
X0191045Y0103870D01*
X0191045Y0104938D01*
X0192113Y0106005D01*
X0192113Y0102803D02*
X0191045Y0101735D01*
X0191045Y0100668D01*
X0192113Y0099600D01*
X0194248Y0099600D01*
X0195316Y0100668D01*
X0195316Y0101735D01*
X0194248Y0102803D01*
X0195316Y0096005D02*
X0191045Y0096005D01*
X0195316Y0096005D02*
X0195316Y0094938D01*
X0191045Y0090668D01*
X0191045Y0089600D01*
X0151800Y0010800D02*
X0151646Y0010802D01*
X0151492Y0010808D01*
X0151338Y0010818D01*
X0151184Y0010832D01*
X0151031Y0010849D01*
X0150879Y0010871D01*
X0150727Y0010897D01*
X0150575Y0010926D01*
X0150425Y0010960D01*
X0150275Y0010997D01*
X0150127Y0011038D01*
X0149979Y0011083D01*
X0149833Y0011132D01*
X0149688Y0011184D01*
X0149545Y0011240D01*
X0149402Y0011300D01*
X0149262Y0011363D01*
X0149123Y0011430D01*
X0148986Y0011501D01*
X0148851Y0011575D01*
X0148718Y0011652D01*
X0148586Y0011733D01*
X0148457Y0011817D01*
X0148330Y0011905D01*
X0148206Y0011996D01*
X0148084Y0012089D01*
X0147964Y0012187D01*
X0147847Y0012287D01*
X0147732Y0012390D01*
X0147620Y0012496D01*
X0147511Y0012604D01*
X0147405Y0012716D01*
X0147301Y0012830D01*
X0147201Y0012947D01*
X0147103Y0013066D01*
X0147009Y0013188D01*
X0146918Y0013313D01*
X0151800Y0022800D02*
X0151952Y0022798D01*
X0152103Y0022792D01*
X0152254Y0022783D01*
X0152406Y0022769D01*
X0152556Y0022752D01*
X0152706Y0022731D01*
X0152856Y0022706D01*
X0153005Y0022678D01*
X0153153Y0022645D01*
X0153300Y0022609D01*
X0153447Y0022570D01*
X0153592Y0022526D01*
X0153736Y0022479D01*
X0153879Y0022428D01*
X0154020Y0022374D01*
X0154161Y0022316D01*
X0154299Y0022255D01*
X0154436Y0022190D01*
X0154572Y0022121D01*
X0154705Y0022050D01*
X0154837Y0021975D01*
X0154967Y0021896D01*
X0155094Y0021815D01*
X0155220Y0021730D01*
X0155344Y0021642D01*
X0155465Y0021551D01*
X0155584Y0021457D01*
X0155700Y0021359D01*
X0155814Y0021259D01*
X0155926Y0021157D01*
X0156034Y0021051D01*
X0156140Y0020943D01*
X0156244Y0020832D01*
X0156344Y0020718D01*
X0156442Y0020602D01*
X0156536Y0020483D01*
X0151800Y0022800D02*
X0151648Y0022798D01*
X0151497Y0022792D01*
X0151346Y0022783D01*
X0151194Y0022769D01*
X0151044Y0022752D01*
X0150894Y0022731D01*
X0150744Y0022706D01*
X0150595Y0022678D01*
X0150447Y0022645D01*
X0150300Y0022609D01*
X0150153Y0022570D01*
X0150008Y0022526D01*
X0149864Y0022479D01*
X0149721Y0022428D01*
X0149580Y0022374D01*
X0149439Y0022316D01*
X0149301Y0022255D01*
X0149164Y0022190D01*
X0149028Y0022121D01*
X0148895Y0022050D01*
X0148763Y0021975D01*
X0148633Y0021896D01*
X0148506Y0021815D01*
X0148380Y0021730D01*
X0148256Y0021642D01*
X0148135Y0021551D01*
X0148016Y0021457D01*
X0147900Y0021359D01*
X0147786Y0021259D01*
X0147674Y0021157D01*
X0147566Y0021051D01*
X0147460Y0020943D01*
X0147356Y0020832D01*
X0147256Y0020718D01*
X0147158Y0020602D01*
X0147064Y0020483D01*
X0151800Y0010800D02*
X0151950Y0010802D01*
X0152101Y0010808D01*
X0152251Y0010817D01*
X0152400Y0010830D01*
X0152550Y0010847D01*
X0152699Y0010868D01*
X0152847Y0010892D01*
X0152995Y0010920D01*
X0153142Y0010952D01*
X0153288Y0010987D01*
X0153433Y0011027D01*
X0153577Y0011069D01*
X0153720Y0011116D01*
X0153862Y0011166D01*
X0154003Y0011219D01*
X0154142Y0011276D01*
X0154280Y0011336D01*
X0154416Y0011400D01*
X0154550Y0011467D01*
X0154683Y0011538D01*
X0154814Y0011612D01*
X0154943Y0011689D01*
X0155070Y0011770D01*
X0155195Y0011853D01*
X0155318Y0011940D01*
X0155439Y0012029D01*
X0155557Y0012122D01*
X0155673Y0012218D01*
X0155787Y0012316D01*
X0155898Y0012417D01*
X0156007Y0012522D01*
X0156112Y0012628D01*
X0156216Y0012738D01*
X0156316Y0012850D01*
X0156414Y0012964D01*
X0156508Y0013081D01*
X0156600Y0013200D01*
D12*
X0083785Y0071437D02*
X0083268Y0070920D01*
X0082751Y0070920D01*
X0082234Y0071437D01*
X0082234Y0072471D01*
X0082751Y0072988D01*
X0083268Y0072988D01*
X0083785Y0072471D01*
X0083785Y0071437D01*
X0082234Y0071437D02*
X0081717Y0070920D01*
X0081200Y0070920D01*
X0080682Y0071437D01*
X0080682Y0072471D01*
X0081200Y0072988D01*
X0081717Y0072988D01*
X0082234Y0072471D01*
X0083785Y0074143D02*
X0080682Y0074143D01*
X0081717Y0075177D01*
X0080682Y0076211D01*
X0083785Y0076211D01*
X0083785Y0077366D02*
X0080682Y0077366D01*
X0082234Y0077366D02*
X0082234Y0079434D01*
X0083268Y0080588D02*
X0081200Y0082657D01*
X0080682Y0082657D01*
X0080682Y0080588D01*
X0080682Y0079434D02*
X0083785Y0079434D01*
X0083785Y0080588D02*
X0083785Y0082657D01*
X0083785Y0080588D02*
X0083268Y0080588D01*
X0064100Y0079846D02*
X0064100Y0078312D01*
X0064100Y0079079D02*
X0061031Y0079079D01*
X0061031Y0078312D01*
X0061031Y0076777D02*
X0061031Y0074475D01*
X0061798Y0073708D01*
X0063333Y0073708D01*
X0064100Y0074475D01*
X0064100Y0076777D01*
X0064100Y0081381D02*
X0064100Y0082916D01*
X0064100Y0082148D02*
X0059496Y0082148D01*
X0059496Y0081381D01*
X0059496Y0079079D02*
X0058729Y0079079D01*
X0059496Y0084450D02*
X0059496Y0085218D01*
X0064100Y0085218D01*
X0064100Y0085985D02*
X0064100Y0084450D01*
X0063333Y0087520D02*
X0062565Y0088287D01*
X0062565Y0090589D01*
X0061798Y0090589D02*
X0064100Y0090589D01*
X0064100Y0088287D01*
X0063333Y0087520D01*
X0061031Y0088287D02*
X0061031Y0089822D01*
X0061798Y0090589D01*
X0061031Y0092124D02*
X0061031Y0093658D01*
X0060263Y0092891D02*
X0063333Y0092891D01*
X0064100Y0093658D01*
X0063333Y0095193D02*
X0064100Y0095960D01*
X0064100Y0097495D01*
X0063333Y0098262D01*
X0061798Y0098262D01*
X0061031Y0097495D01*
X0061031Y0095960D01*
X0061798Y0095193D01*
X0063333Y0095193D01*
X0064100Y0099797D02*
X0061031Y0099797D01*
X0062565Y0099797D02*
X0061031Y0101331D01*
X0061031Y0102099D01*
X0061031Y0072173D02*
X0061031Y0069871D01*
X0061798Y0069104D01*
X0062565Y0069871D01*
X0062565Y0071406D01*
X0063333Y0072173D01*
X0064100Y0071406D01*
X0064100Y0069104D01*
X0063333Y0067569D02*
X0060263Y0067569D01*
X0059496Y0066802D01*
X0059496Y0065267D01*
X0060263Y0064500D01*
X0063333Y0064500D01*
X0064100Y0065267D01*
X0064100Y0066802D01*
X0063333Y0067569D01*
D13*
X0194300Y0186800D02*
X0194300Y0196800D01*
X0199300Y0191800D01*
X0194300Y0186800D01*
X0194300Y0187432D02*
X0194932Y0187432D01*
X0194300Y0189030D02*
X0196530Y0189030D01*
X0198129Y0190629D02*
X0194300Y0190629D01*
X0194300Y0192227D02*
X0198873Y0192227D01*
X0197274Y0193826D02*
X0194300Y0193826D01*
X0194300Y0195424D02*
X0195676Y0195424D01*
D14*
X0199300Y0194300D02*
X0199300Y0189300D01*
X0201800Y0186800D01*
X0199300Y0184300D01*
X0199300Y0179300D01*
X0201800Y0176800D01*
X0199300Y0174300D01*
X0199300Y0169300D01*
X0201800Y0166800D01*
X0199300Y0164300D01*
X0199300Y0159300D01*
X0201800Y0156800D01*
X0199300Y0154300D01*
X0199300Y0149300D01*
X0201800Y0146800D01*
X0206800Y0146800D01*
X0209300Y0149300D01*
X0209300Y0154300D01*
X0206800Y0156800D01*
X0209300Y0159300D01*
X0209300Y0164300D01*
X0206800Y0166800D01*
X0209300Y0169300D01*
X0209300Y0174300D01*
X0206800Y0176800D01*
X0209300Y0179300D01*
X0209300Y0184300D01*
X0206800Y0186800D01*
X0209300Y0189300D01*
X0209300Y0194300D01*
X0206800Y0196800D01*
X0201800Y0196800D01*
X0199300Y0194300D01*
X0191800Y0194300D02*
X0191800Y0199300D01*
X0189300Y0201800D01*
X0184300Y0201800D01*
X0181800Y0199300D01*
X0179300Y0201800D01*
X0174300Y0201800D01*
X0171800Y0199300D01*
X0169300Y0201800D01*
X0164300Y0201800D01*
X0161800Y0199300D01*
X0161800Y0194300D01*
X0164300Y0191800D01*
X0169300Y0191800D01*
X0171800Y0194300D01*
X0174300Y0191800D01*
X0179300Y0191800D01*
X0181800Y0194300D01*
X0184300Y0191800D01*
X0189300Y0191800D01*
X0191800Y0194300D01*
X0201800Y0146800D02*
X0199300Y0144300D01*
X0199300Y0139300D01*
X0201800Y0136800D01*
X0199300Y0134300D01*
X0199300Y0129300D01*
X0201800Y0126800D01*
X0199300Y0124300D01*
X0199300Y0119300D01*
X0201800Y0116800D01*
X0199300Y0114300D01*
X0199300Y0109300D01*
X0201800Y0106800D01*
X0199300Y0104300D01*
X0199300Y0099300D01*
X0201800Y0096800D01*
X0199300Y0094300D01*
X0199300Y0089300D01*
X0201800Y0086800D01*
X0199300Y0084300D01*
X0199300Y0079300D01*
X0201800Y0076800D01*
X0199300Y0074300D01*
X0199300Y0069300D01*
X0201800Y0066800D01*
X0206800Y0066800D01*
X0209300Y0069300D01*
X0209300Y0074300D01*
X0206800Y0076800D01*
X0209300Y0079300D01*
X0209300Y0084300D01*
X0206800Y0086800D01*
X0209300Y0089300D01*
X0209300Y0094300D01*
X0206800Y0096800D01*
X0209300Y0099300D01*
X0209300Y0104300D01*
X0206800Y0106800D01*
X0209300Y0109300D01*
X0209300Y0114300D01*
X0206800Y0116800D01*
X0209300Y0119300D01*
X0209300Y0124300D01*
X0206800Y0126800D01*
X0209300Y0129300D01*
X0209300Y0134300D01*
X0206800Y0136800D01*
X0209300Y0139300D01*
X0209300Y0144300D01*
X0206800Y0146800D01*
X0201800Y0146800D01*
X0083635Y0116408D02*
X0083635Y0107200D01*
X0079031Y0107200D01*
X0077497Y0108735D01*
X0077497Y0111804D01*
X0079031Y0113339D01*
X0083635Y0113339D01*
X0074428Y0113339D02*
X0072893Y0113339D01*
X0069824Y0110269D01*
X0069824Y0107200D02*
X0069824Y0113339D01*
X0066754Y0111804D02*
X0066754Y0107200D01*
X0062150Y0107200D01*
X0060616Y0108735D01*
X0062150Y0110269D01*
X0066754Y0110269D01*
X0066754Y0111804D02*
X0065220Y0113339D01*
X0062150Y0113339D01*
X0057546Y0111804D02*
X0057546Y0108735D01*
X0056012Y0107200D01*
X0052942Y0107200D01*
X0051408Y0108735D01*
X0051408Y0111804D01*
X0052942Y0113339D01*
X0056012Y0113339D01*
X0057546Y0111804D01*
X0048339Y0113339D02*
X0046804Y0111804D01*
X0042200Y0111804D01*
X0042200Y0107200D02*
X0042200Y0116408D01*
X0046804Y0116408D01*
X0048339Y0114873D01*
X0048339Y0113339D01*
X0046804Y0111804D02*
X0048339Y0110269D01*
X0048339Y0108735D01*
X0046804Y0107200D01*
X0042200Y0107200D01*
X0046519Y0122200D02*
X0046519Y0131408D01*
X0043450Y0131408D02*
X0049589Y0131408D01*
X0052658Y0128339D02*
X0054192Y0128339D01*
X0054192Y0122200D01*
X0052658Y0122200D02*
X0055727Y0122200D01*
X0058796Y0122200D02*
X0058796Y0128339D01*
X0060331Y0128339D01*
X0061866Y0126804D01*
X0063400Y0128339D01*
X0064935Y0126804D01*
X0064935Y0122200D01*
X0061866Y0122200D02*
X0061866Y0126804D01*
X0068004Y0128339D02*
X0069539Y0129873D01*
X0069539Y0132943D01*
X0074143Y0128339D02*
X0078747Y0128339D01*
X0077212Y0125269D02*
X0074143Y0125269D01*
X0072608Y0126804D01*
X0074143Y0128339D01*
X0077212Y0125269D02*
X0078747Y0123735D01*
X0077212Y0122200D01*
X0072608Y0122200D01*
X0054192Y0131408D02*
X0054192Y0132943D01*
X0021800Y0134300D02*
X0021800Y0129300D01*
X0019300Y0126800D01*
X0021800Y0124300D01*
X0021800Y0119300D01*
X0019300Y0116800D01*
X0021800Y0114300D01*
X0021800Y0109300D01*
X0019300Y0106800D01*
X0021800Y0104300D01*
X0021800Y0099300D01*
X0019300Y0096800D01*
X0021800Y0094300D01*
X0021800Y0089300D01*
X0019300Y0086800D01*
X0021800Y0084300D01*
X0021800Y0079300D01*
X0019300Y0076800D01*
X0021800Y0074300D01*
X0021800Y0069300D01*
X0019300Y0066800D01*
X0014300Y0066800D01*
X0011800Y0069300D01*
X0011800Y0074300D01*
X0014300Y0076800D01*
X0011800Y0079300D01*
X0011800Y0084300D01*
X0014300Y0086800D01*
X0011800Y0089300D01*
X0011800Y0094300D01*
X0014300Y0096800D01*
X0011800Y0099300D01*
X0011800Y0104300D01*
X0014300Y0106800D01*
X0011800Y0109300D01*
X0011800Y0114300D01*
X0014300Y0116800D01*
X0011800Y0119300D01*
X0011800Y0124300D01*
X0014300Y0126800D01*
X0011800Y0129300D01*
X0011800Y0134300D01*
X0014300Y0136800D01*
X0011800Y0139300D01*
X0011800Y0144300D01*
X0014300Y0146800D01*
X0019300Y0146800D01*
X0021800Y0144300D01*
X0021800Y0139300D01*
X0019300Y0136800D01*
X0021800Y0134300D01*
X0019300Y0046800D02*
X0014300Y0046800D01*
X0011800Y0044300D01*
X0011800Y0039300D01*
X0014300Y0036800D01*
X0011800Y0034300D01*
X0011800Y0029300D01*
X0014300Y0026800D01*
X0011800Y0024300D01*
X0011800Y0019300D01*
X0014300Y0016800D01*
X0019300Y0016800D01*
X0021800Y0019300D01*
X0021800Y0024300D01*
X0019300Y0026800D01*
X0021800Y0029300D01*
X0021800Y0034300D01*
X0019300Y0036800D01*
X0021800Y0039300D01*
X0021800Y0044300D01*
X0019300Y0046800D01*
D15*
X0073800Y0038000D02*
X0079800Y0038000D01*
X0079800Y0035500D02*
X0073800Y0035500D01*
X0138800Y0150600D02*
X0144800Y0150600D01*
X0144800Y0153100D02*
X0138800Y0153100D01*
X0143800Y0190500D02*
X0149800Y0190500D01*
X0149800Y0193000D02*
X0143800Y0193000D01*
X0086050Y0173000D02*
X0080050Y0173000D01*
X0080050Y0170500D02*
X0086050Y0170500D01*
D16*
X0152600Y0166800D03*
X0181000Y0166800D03*
X0126000Y0016800D03*
X0097600Y0016800D03*
D17*
X0061800Y0022600D03*
X0036800Y0022600D03*
X0036800Y0051000D03*
X0061800Y0051000D03*
D18*
X0131800Y0184800D03*
D19*
X0153800Y0081800D03*
D20*
X0151800Y0024800D02*
X0151995Y0024798D01*
X0152191Y0024790D01*
X0152386Y0024778D01*
X0152581Y0024762D01*
X0152776Y0024740D01*
X0152970Y0024714D01*
X0153163Y0024683D01*
X0153355Y0024647D01*
X0153547Y0024607D01*
X0153737Y0024562D01*
X0153926Y0024512D01*
X0154114Y0024458D01*
X0154301Y0024399D01*
X0154486Y0024336D01*
X0154669Y0024268D01*
X0154851Y0024195D01*
X0155031Y0024119D01*
X0155209Y0024037D01*
X0155385Y0023952D01*
X0155559Y0023862D01*
X0155730Y0023768D01*
X0155900Y0023670D01*
X0156066Y0023567D01*
X0156231Y0023461D01*
X0156392Y0023351D01*
X0156551Y0023237D01*
X0156707Y0023118D01*
X0156860Y0022997D01*
X0157010Y0022871D01*
X0157157Y0022742D01*
X0157301Y0022609D01*
X0157441Y0022473D01*
X0157578Y0022333D01*
X0157712Y0022190D01*
X0157842Y0022044D01*
X0157968Y0021895D01*
X0158091Y0021742D01*
X0158210Y0021587D01*
X0158325Y0021429D01*
X0158436Y0021268D01*
X0158543Y0021104D01*
X0158647Y0020938D01*
X0158746Y0020769D01*
X0151800Y0008800D02*
X0151605Y0008802D01*
X0151411Y0008809D01*
X0151217Y0008821D01*
X0151023Y0008838D01*
X0150829Y0008859D01*
X0150636Y0008885D01*
X0150444Y0008916D01*
X0150252Y0008951D01*
X0150062Y0008991D01*
X0149872Y0009036D01*
X0149684Y0009085D01*
X0149497Y0009139D01*
X0149311Y0009197D01*
X0149127Y0009260D01*
X0148944Y0009327D01*
X0148763Y0009399D01*
X0148584Y0009475D01*
X0148407Y0009555D01*
X0148232Y0009640D01*
X0148058Y0009729D01*
X0147888Y0009822D01*
X0147719Y0009919D01*
X0147553Y0010021D01*
X0147389Y0010126D01*
X0147228Y0010235D01*
X0147069Y0010348D01*
X0146914Y0010465D01*
X0146761Y0010586D01*
X0146612Y0010711D01*
X0146465Y0010839D01*
X0146321Y0010970D01*
X0146181Y0011105D01*
X0146044Y0011244D01*
X0145911Y0011385D01*
X0145781Y0011530D01*
X0145654Y0011678D01*
X0151800Y0008800D02*
X0151992Y0008802D01*
X0152184Y0008809D01*
X0152376Y0008821D01*
X0152568Y0008837D01*
X0152759Y0008858D01*
X0152949Y0008883D01*
X0153139Y0008913D01*
X0153328Y0008947D01*
X0153516Y0008986D01*
X0153703Y0009030D01*
X0153889Y0009078D01*
X0154074Y0009130D01*
X0154258Y0009187D01*
X0154440Y0009248D01*
X0154620Y0009314D01*
X0154799Y0009384D01*
X0154977Y0009458D01*
X0155152Y0009536D01*
X0155326Y0009619D01*
X0155497Y0009706D01*
X0155666Y0009796D01*
X0155833Y0009891D01*
X0155998Y0009990D01*
X0156161Y0010093D01*
X0156320Y0010200D01*
X0156478Y0010310D01*
X0156632Y0010424D01*
X0156784Y0010542D01*
X0156933Y0010664D01*
X0157079Y0010789D01*
X0157221Y0010917D01*
X0157361Y0011049D01*
X0157498Y0011184D01*
X0157631Y0011323D01*
X0157761Y0011464D01*
X0157887Y0011609D01*
X0158010Y0011757D01*
X0158129Y0011907D01*
X0158245Y0012061D01*
X0158357Y0012217D01*
X0158465Y0012376D01*
X0158570Y0012537D01*
X0158670Y0012701D01*
X0158766Y0012867D01*
X0158859Y0013035D01*
X0151800Y0024800D02*
X0151607Y0024798D01*
X0151414Y0024791D01*
X0151222Y0024779D01*
X0151029Y0024763D01*
X0150837Y0024742D01*
X0150646Y0024716D01*
X0150456Y0024686D01*
X0150266Y0024651D01*
X0150077Y0024612D01*
X0149889Y0024568D01*
X0149702Y0024520D01*
X0149516Y0024467D01*
X0149332Y0024410D01*
X0149149Y0024348D01*
X0148968Y0024282D01*
X0148788Y0024211D01*
X0148610Y0024137D01*
X0148434Y0024058D01*
X0148260Y0023974D01*
X0148088Y0023887D01*
X0147918Y0023795D01*
X0147751Y0023699D01*
X0147585Y0023600D01*
X0147422Y0023496D01*
X0147262Y0023389D01*
X0147105Y0023277D01*
X0146950Y0023162D01*
X0146798Y0023043D01*
X0146649Y0022921D01*
X0146502Y0022795D01*
X0146359Y0022665D01*
X0146219Y0022532D01*
X0146083Y0022396D01*
X0145949Y0022256D01*
X0145820Y0022114D01*
X0145693Y0021968D01*
X0021800Y0064800D02*
X0021608Y0064798D01*
X0021416Y0064791D01*
X0021224Y0064779D01*
X0021032Y0064763D01*
X0020841Y0064742D01*
X0020651Y0064717D01*
X0020461Y0064687D01*
X0020272Y0064653D01*
X0020084Y0064614D01*
X0019897Y0064570D01*
X0019711Y0064522D01*
X0019526Y0064470D01*
X0019342Y0064413D01*
X0019160Y0064352D01*
X0018980Y0064286D01*
X0018801Y0064216D01*
X0018623Y0064142D01*
X0018448Y0064064D01*
X0018274Y0063981D01*
X0018103Y0063894D01*
X0017934Y0063804D01*
X0017767Y0063709D01*
X0017602Y0063610D01*
X0017439Y0063507D01*
X0017280Y0063400D01*
X0017122Y0063290D01*
X0016968Y0063176D01*
X0016816Y0063058D01*
X0016667Y0062936D01*
X0016521Y0062811D01*
X0016379Y0062683D01*
X0016239Y0062551D01*
X0016102Y0062416D01*
X0015969Y0062277D01*
X0015839Y0062136D01*
X0015713Y0061991D01*
X0015590Y0061843D01*
X0015471Y0061693D01*
X0015355Y0061539D01*
X0015243Y0061383D01*
X0015135Y0061224D01*
X0015030Y0061063D01*
X0014930Y0060899D01*
X0014834Y0060733D01*
X0014741Y0060565D01*
X0014854Y0052831D02*
X0014953Y0052662D01*
X0015057Y0052496D01*
X0015164Y0052332D01*
X0015275Y0052171D01*
X0015390Y0052013D01*
X0015509Y0051858D01*
X0015632Y0051705D01*
X0015758Y0051556D01*
X0015888Y0051410D01*
X0016022Y0051267D01*
X0016159Y0051127D01*
X0016299Y0050991D01*
X0016443Y0050858D01*
X0016590Y0050729D01*
X0016740Y0050603D01*
X0016893Y0050482D01*
X0017049Y0050363D01*
X0017208Y0050249D01*
X0017369Y0050139D01*
X0017534Y0050033D01*
X0017700Y0049930D01*
X0017870Y0049832D01*
X0018041Y0049738D01*
X0018215Y0049648D01*
X0018391Y0049563D01*
X0018569Y0049481D01*
X0018749Y0049405D01*
X0018931Y0049332D01*
X0019114Y0049264D01*
X0019299Y0049201D01*
X0019486Y0049142D01*
X0019674Y0049088D01*
X0019863Y0049038D01*
X0020053Y0048993D01*
X0020245Y0048953D01*
X0020437Y0048917D01*
X0020630Y0048886D01*
X0020824Y0048860D01*
X0021019Y0048838D01*
X0021214Y0048822D01*
X0021409Y0048810D01*
X0021605Y0048802D01*
X0021800Y0048800D01*
X0021993Y0048802D01*
X0022186Y0048809D01*
X0022378Y0048821D01*
X0022571Y0048837D01*
X0022763Y0048858D01*
X0022954Y0048884D01*
X0023144Y0048914D01*
X0023334Y0048949D01*
X0023523Y0048988D01*
X0023711Y0049032D01*
X0023898Y0049080D01*
X0024084Y0049133D01*
X0024268Y0049190D01*
X0024451Y0049252D01*
X0024632Y0049318D01*
X0024812Y0049389D01*
X0024990Y0049463D01*
X0025166Y0049542D01*
X0025340Y0049626D01*
X0025512Y0049713D01*
X0025682Y0049805D01*
X0025849Y0049901D01*
X0026015Y0050000D01*
X0026178Y0050104D01*
X0026338Y0050211D01*
X0026495Y0050323D01*
X0026650Y0050438D01*
X0026802Y0050557D01*
X0026951Y0050679D01*
X0027098Y0050805D01*
X0027241Y0050935D01*
X0027381Y0051068D01*
X0027517Y0051204D01*
X0027651Y0051344D01*
X0027780Y0051486D01*
X0027907Y0051632D01*
X0027946Y0061922D02*
X0027819Y0062070D01*
X0027689Y0062215D01*
X0027556Y0062356D01*
X0027419Y0062495D01*
X0027279Y0062630D01*
X0027135Y0062761D01*
X0026988Y0062889D01*
X0026839Y0063014D01*
X0026686Y0063135D01*
X0026531Y0063252D01*
X0026372Y0063365D01*
X0026211Y0063474D01*
X0026047Y0063579D01*
X0025881Y0063681D01*
X0025712Y0063778D01*
X0025542Y0063871D01*
X0025368Y0063960D01*
X0025193Y0064045D01*
X0025016Y0064125D01*
X0024837Y0064201D01*
X0024656Y0064273D01*
X0024473Y0064340D01*
X0024289Y0064403D01*
X0024103Y0064461D01*
X0023916Y0064515D01*
X0023728Y0064564D01*
X0023538Y0064609D01*
X0023348Y0064649D01*
X0023156Y0064684D01*
X0022964Y0064715D01*
X0022771Y0064741D01*
X0022577Y0064762D01*
X0022383Y0064779D01*
X0022189Y0064791D01*
X0021995Y0064798D01*
X0021800Y0064800D01*
D21*
X0029550Y0065554D02*
X0029550Y0061050D01*
X0032553Y0061050D01*
X0034154Y0061050D02*
X0037156Y0061050D01*
X0038758Y0061050D02*
X0041010Y0061050D01*
X0041760Y0061801D01*
X0041760Y0064803D01*
X0041010Y0065554D01*
X0038758Y0065554D01*
X0038758Y0061050D01*
X0035655Y0063302D02*
X0034154Y0063302D01*
X0034154Y0065554D02*
X0034154Y0061050D01*
X0034154Y0065554D02*
X0037156Y0065554D01*
X0043362Y0064053D02*
X0044863Y0065554D01*
X0044863Y0061050D01*
X0043362Y0061050D02*
X0046364Y0061050D01*
X0065894Y0061052D02*
X0077706Y0061052D01*
X0077706Y0092548D01*
X0065894Y0092548D01*
X0065894Y0061052D01*
X0067863Y0070894D02*
X0075737Y0070894D01*
X0075737Y0072863D02*
X0075737Y0080737D01*
X0067863Y0080737D01*
X0067863Y0072863D01*
X0075737Y0072863D01*
X0075737Y0082706D02*
X0067863Y0082706D01*
X0029350Y0032314D02*
X0027849Y0030813D01*
X0027849Y0031564D02*
X0027849Y0029312D01*
X0029350Y0029312D02*
X0024846Y0029312D01*
X0024846Y0031564D01*
X0025597Y0032314D01*
X0027098Y0032314D01*
X0027849Y0031564D01*
X0029350Y0027710D02*
X0029350Y0024708D01*
X0024846Y0024708D01*
X0024846Y0027710D01*
X0027098Y0026209D02*
X0027098Y0024708D01*
X0027849Y0023106D02*
X0028599Y0023106D01*
X0029350Y0022356D01*
X0029350Y0020855D01*
X0028599Y0020104D01*
X0028599Y0018503D02*
X0024846Y0018503D01*
X0025597Y0020104D02*
X0026347Y0020104D01*
X0027098Y0020855D01*
X0027098Y0022356D01*
X0027849Y0023106D01*
X0025597Y0023106D02*
X0024846Y0022356D01*
X0024846Y0020855D01*
X0025597Y0020104D01*
X0028599Y0018503D02*
X0029350Y0017752D01*
X0029350Y0016251D01*
X0028599Y0015500D01*
X0024846Y0015500D01*
X0161134Y0015550D02*
X0164137Y0015550D01*
X0165738Y0015550D02*
X0168741Y0015550D01*
X0170342Y0015550D02*
X0172594Y0015550D01*
X0173345Y0016301D01*
X0173345Y0019303D01*
X0172594Y0020054D01*
X0170342Y0020054D01*
X0170342Y0015550D01*
X0167239Y0017802D02*
X0165738Y0017802D01*
X0165738Y0020054D02*
X0165738Y0015550D01*
X0165738Y0020054D02*
X0168741Y0020054D01*
X0174946Y0019303D02*
X0175697Y0020054D01*
X0177198Y0020054D01*
X0177949Y0019303D01*
X0177949Y0018553D01*
X0174946Y0015550D01*
X0177949Y0015550D01*
X0161134Y0015550D02*
X0161134Y0020054D01*
X0120046Y0180300D02*
X0103554Y0180300D01*
X0102927Y0185800D02*
X0101348Y0185800D01*
X0099172Y0183926D02*
X0099172Y0199674D01*
X0071613Y0199674D01*
X0071613Y0207548D01*
X0063739Y0207548D01*
X0063739Y0199674D01*
X0051928Y0199674D01*
X0051928Y0183926D01*
X0099172Y0183926D01*
X0110673Y0185800D02*
X0112927Y0185800D01*
X0103554Y0180300D02*
X0103401Y0180499D01*
X0103253Y0180701D01*
X0103110Y0180906D01*
X0102972Y0181115D01*
X0102839Y0181327D01*
X0102711Y0181542D01*
X0102589Y0181760D01*
X0102471Y0181981D01*
X0102359Y0182205D01*
X0102252Y0182431D01*
X0102151Y0182660D01*
X0102055Y0182891D01*
X0101964Y0183125D01*
X0101879Y0183360D01*
X0101800Y0183598D01*
X0101727Y0183837D01*
X0101659Y0184078D01*
X0101597Y0184320D01*
X0101541Y0184564D01*
X0101490Y0184810D01*
X0101446Y0185056D01*
X0101407Y0185303D01*
X0101375Y0185551D01*
X0101348Y0185800D01*
X0114896Y0196833D02*
X0115138Y0196755D01*
X0115378Y0196671D01*
X0115616Y0196582D01*
X0115852Y0196486D01*
X0116086Y0196385D01*
X0116317Y0196279D01*
X0116545Y0196166D01*
X0116771Y0196049D01*
X0116994Y0195926D01*
X0117213Y0195797D01*
X0117430Y0195663D01*
X0117643Y0195524D01*
X0117853Y0195380D01*
X0118059Y0195231D01*
X0118261Y0195077D01*
X0118460Y0194918D01*
X0118655Y0194754D01*
X0118846Y0194585D01*
X0119032Y0194412D01*
X0119215Y0194235D01*
X0119393Y0194053D01*
X0119566Y0193867D01*
X0119735Y0193676D01*
X0119899Y0193482D01*
X0120059Y0193284D01*
X0120214Y0193082D01*
X0120363Y0192876D01*
X0120508Y0192667D01*
X0120648Y0192454D01*
X0120782Y0192238D01*
X0120911Y0192018D01*
X0121035Y0191796D01*
X0121154Y0191571D01*
X0121266Y0191343D01*
X0121374Y0191112D01*
X0121475Y0190879D01*
X0121571Y0190643D01*
X0121662Y0190405D01*
X0121746Y0190165D01*
X0121825Y0189923D01*
X0121898Y0189679D01*
X0121964Y0189433D01*
X0122025Y0189186D01*
X0122080Y0188938D01*
X0122129Y0188688D01*
X0122172Y0188437D01*
X0122208Y0188185D01*
X0122239Y0187933D01*
X0122263Y0187679D01*
X0122281Y0187426D01*
X0122293Y0187171D01*
X0122299Y0186917D01*
X0122299Y0186662D01*
X0122293Y0186408D01*
X0122280Y0186154D01*
X0122261Y0185900D01*
X0122236Y0185647D01*
X0122205Y0185394D01*
X0122168Y0185142D01*
X0122125Y0184892D01*
X0122076Y0184642D01*
X0122021Y0184393D01*
X0121959Y0184146D01*
X0121892Y0183901D01*
X0121819Y0183657D01*
X0121740Y0183415D01*
X0121655Y0183176D01*
X0121564Y0182938D01*
X0121467Y0182702D01*
X0121365Y0182469D01*
X0121257Y0182239D01*
X0121144Y0182011D01*
X0121025Y0181786D01*
X0120901Y0181564D01*
X0120772Y0181345D01*
X0120637Y0181129D01*
X0120497Y0180916D01*
X0120351Y0180707D01*
X0120201Y0180502D01*
X0120046Y0180300D01*
X0120673Y0185800D02*
X0122252Y0185800D01*
X0108704Y0196833D02*
X0108460Y0196755D01*
X0108218Y0196670D01*
X0107979Y0196580D01*
X0107741Y0196484D01*
X0107506Y0196382D01*
X0107273Y0196274D01*
X0107043Y0196161D01*
X0106816Y0196042D01*
X0106592Y0195918D01*
X0106371Y0195788D01*
X0106154Y0195653D01*
X0105939Y0195512D01*
X0105728Y0195366D01*
X0105521Y0195216D01*
X0105318Y0195060D01*
X0105118Y0194899D01*
X0104922Y0194734D01*
X0104731Y0194564D01*
X0104543Y0194389D01*
X0104360Y0194209D01*
X0104182Y0194026D01*
X0104007Y0193837D01*
X0103838Y0193645D01*
X0103673Y0193449D01*
X0103513Y0193248D01*
X0103359Y0193044D01*
X0103209Y0192836D01*
X0103064Y0192625D01*
X0102924Y0192410D01*
X0102790Y0192192D01*
X0102661Y0191970D01*
X0102538Y0191746D01*
X0102420Y0191518D01*
X0102307Y0191288D01*
X0102201Y0191055D01*
X0102100Y0190819D01*
X0102004Y0190581D01*
X0101915Y0190341D01*
X0101832Y0190099D01*
X0101754Y0189854D01*
X0101683Y0189608D01*
X0101617Y0189360D01*
X0101558Y0189111D01*
X0101504Y0188861D01*
X0101457Y0188609D01*
X0101416Y0188356D01*
X0101381Y0188102D01*
X0101352Y0187847D01*
X0101330Y0187592D01*
X0101314Y0187336D01*
X0101304Y0187080D01*
X0101300Y0186824D01*
X0101303Y0186567D01*
X0101311Y0186311D01*
X0101326Y0186055D01*
X0101348Y0185800D01*
X0071613Y0199674D02*
X0063739Y0199674D01*
X0166750Y0188754D02*
X0166750Y0184250D01*
X0166750Y0185751D02*
X0169002Y0185751D01*
X0169753Y0186502D01*
X0169753Y0188003D01*
X0169002Y0188754D01*
X0166750Y0188754D01*
X0168251Y0185751D02*
X0169753Y0184250D01*
X0171354Y0184250D02*
X0174356Y0184250D01*
X0175958Y0185001D02*
X0176708Y0184250D01*
X0178210Y0184250D01*
X0178960Y0185001D01*
X0178960Y0185751D01*
X0178210Y0186502D01*
X0176708Y0186502D01*
X0175958Y0187253D01*
X0175958Y0188003D01*
X0176708Y0188754D01*
X0178210Y0188754D01*
X0178960Y0188003D01*
X0180562Y0188754D02*
X0180562Y0184250D01*
X0183564Y0184250D01*
X0182063Y0186502D02*
X0180562Y0186502D01*
X0180562Y0188754D02*
X0183564Y0188754D01*
X0185166Y0188754D02*
X0188168Y0188754D01*
X0186667Y0188754D02*
X0186667Y0184250D01*
X0174356Y0188754D02*
X0171354Y0188754D01*
X0171354Y0184250D01*
X0171354Y0186502D02*
X0172855Y0186502D01*
M02*
